<svg width="115" height="104" viewBox="0 0 115 104" fill="none" xmlns="http://www.w3.org/2000/svg">
<path d="M13.2743 51.7483L13.2732 86.8991L11.9061 87.6934L11.9076 52.5431L13.2743 51.7483Z" fill="#B8B4A9"/>
<path d="M11.9076 52.5431L11.9061 87.6934L10.3191 86.7765V50.1005C10.3978 50.1301 10.4787 50.1644 10.5611 50.213C11.3068 50.6422 11.9097 51.6859 11.9076 52.5431Z" fill="#8D8C91"/>
<path d="M42.2071 67.4148L42.2056 102.565L40.8384 103.359L40.84 68.2086L42.2071 67.4148Z" fill="#B8B4A9"/>
<path d="M40.84 68.2086L40.8384 103.359L39.2508 102.443V65.767C39.3296 65.7966 39.4104 65.831 39.4934 65.8785C40.2385 66.3087 40.8426 67.3524 40.84 68.2086Z" fill="#8D8C91"/>
<path d="M102.746 32.9341L102.744 68.0839L101.378 68.8782L101.379 33.7284L102.746 32.9341Z" fill="#B8B4A9"/>
<path d="M101.379 33.7284L101.378 68.8787L99.7906 67.9623V31.2863C99.8683 31.3154 99.9497 31.3502 100.033 31.3983C100.778 31.8275 101.381 32.8712 101.379 33.7284Z" fill="#8D8C91"/>
<path d="M44.1535 85.5589L4.19144 51.3582V39.1468L44.1535 73.6883V85.5589Z" fill="#8D8C91"/>
<path d="M108.072 48.1208L44.1535 85.5588V73.6883L108.072 35.9093V48.1208Z" fill="#B8B4A9"/>
<path d="M114.052 39.9062L113.605 41.4377L46.8529 80.5336L47.3011 79.0026L114.052 39.9062Z" fill="white"/>
<path d="M114.052 39.9062L47.3011 79.0026L1.18549 39.1526L67.9374 0.0577393L114.052 39.9062Z" fill="#EBE7DC"/>
<path d="M111.905 39.4797L47.5991 77.1535L3.62858 39.151L67.9332 1.47723L111.905 39.4797Z" fill="#283838"/>
<path d="M47.3011 79.0026L46.8529 80.5336L0.736809 40.6852L1.18548 39.1526L47.3011 79.0026Z" fill="#D1CEC5"/>
<path opacity="0.7" d="M14.3465 44.3808L16.5297 43.1151C16.6396 43.0511 16.777 43.0173 16.9281 43.0173C17.1559 43.0173 17.3842 43.096 17.5401 43.2287L19.5726 44.961C19.7031 45.0715 19.7676 45.2025 19.757 45.3283C19.7465 45.4414 19.6735 45.5418 19.5514 45.6132L17.3683 46.8778C17.2579 46.9417 17.1184 46.9761 16.9651 46.9761C16.7347 46.9761 16.5043 46.8968 16.3473 46.7631L14.3137 45.0303C14.1885 44.9246 14.1257 44.7961 14.1378 44.6709C14.1479 44.5562 14.2223 44.4526 14.3465 44.3808Z" fill="#aaaaaa"/>
<path opacity="0.7" d="M21.4592 40.2581L23.6418 38.9924C23.7528 38.928 23.8929 38.8936 24.0461 38.8936C24.2755 38.8936 24.5038 38.9724 24.6581 39.1029L26.6911 40.8352C26.8195 40.9441 26.8835 41.0746 26.8724 41.2009C26.8618 41.3156 26.7884 41.4192 26.6636 41.4911L24.481 42.7557C24.3711 42.8196 24.2342 42.8529 24.0847 42.8529H24.0842C23.8553 42.8529 23.625 42.7726 23.4659 42.6373L21.4323 40.905C21.306 40.7977 21.2416 40.6688 21.2532 40.5435C21.2638 40.4304 21.3366 40.3295 21.4592 40.2581Z" fill="#aaaaaa"/>
<path opacity="0.7" d="M17.9032 42.3192L20.0863 41.0529C20.1968 40.989 20.3368 40.9547 20.4901 40.9547C20.7199 40.9547 20.9488 41.0329 21.1021 41.1639L23.1351 42.8963C23.263 43.0051 23.328 43.1357 23.3163 43.262C23.3063 43.3766 23.2324 43.4792 23.1082 43.5516L20.925 44.8167C20.8145 44.8807 20.6751 44.9156 20.5218 44.9156C20.2914 44.9156 20.0609 44.8363 19.904 44.7015L17.8705 42.9692C17.7447 42.863 17.6823 42.7351 17.6939 42.6093C17.7045 42.4946 17.779 42.391 17.9032 42.3192Z" fill="#aaaaaa"/>
<path opacity="0.7" d="M25.0153 38.1971L27.1985 36.9319C27.3116 36.8664 27.4516 36.8326 27.6043 36.8326C27.8316 36.8326 28.0599 36.9103 28.2147 37.0424L30.2477 38.7752C30.3772 38.8852 30.4417 39.0152 30.4311 39.1415C30.4206 39.2551 30.3466 39.3576 30.2219 39.4305L28.0382 40.6957C27.9288 40.7591 27.792 40.7924 27.6419 40.7924C27.4125 40.7924 27.181 40.7121 27.023 40.5779L24.99 38.8445C24.8626 38.7372 24.7987 38.6082 24.8103 38.4825C24.8203 38.3694 24.8932 38.2679 25.0153 38.1971Z" fill="#aaaaaa"/>
<path opacity="0.7" d="M29.8123 35.4178L31.9944 34.1527C32.1043 34.0893 32.2422 34.0549 32.3928 34.0549C32.6206 34.0549 32.85 34.1337 33.0048 34.2658L35.0379 35.9986C35.1679 36.1096 35.2329 36.2401 35.2223 36.3654C35.2117 36.4785 35.1393 36.5794 35.0162 36.6502L32.8336 37.9154C32.721 37.9809 32.581 38.0148 32.4293 38.0148C32.2005 38.0148 31.9701 37.9344 31.8126 37.8007L29.7795 36.0678C29.6527 35.9595 29.5893 35.8316 29.6009 35.708C29.6114 35.5938 29.686 35.4908 29.8123 35.4178Z" fill="#aaaaaa"/>
<path opacity="0.7" d="M33.3689 33.3563L35.5521 32.0911C35.6609 32.0272 35.7988 31.9939 35.9495 31.9939C36.1772 31.9939 36.4066 32.0726 36.5614 32.2047L38.5945 33.9371C38.7245 34.048 38.7905 34.1786 38.7789 34.3049C38.7683 34.4169 38.6959 34.5184 38.5738 34.5887L36.3897 35.8549C36.2792 35.9188 36.1397 35.9532 35.9875 35.9532C35.7571 35.9532 35.5256 35.8734 35.3692 35.7397L33.3356 34.0068C33.2109 33.9011 33.148 33.7727 33.1591 33.6469C33.1697 33.5322 33.2436 33.4281 33.3689 33.3563Z" fill="#aaaaaa"/>
<path opacity="0.7" d="M36.6803 36.1788L38.8635 34.9137C38.9724 34.8503 39.1102 34.8164 39.2593 34.8164C39.4891 34.8164 39.7206 34.8968 39.8786 35.032L41.9117 36.7644C42.0391 36.8733 42.103 37.0011 42.0919 37.1269C42.0814 37.2405 42.0084 37.3415 41.8852 37.4128L39.7021 38.678C39.5912 38.7419 39.4506 38.7763 39.2984 38.7763C39.0685 38.7763 38.8407 38.6981 38.6869 38.567L36.6534 36.8347C36.525 36.7258 36.4605 36.5963 36.4716 36.4695C36.4827 36.3538 36.5566 36.2512 36.6803 36.1788Z" fill="#aaaaaa"/>
<path opacity="0.7" d="M33.1242 38.2404L35.3074 36.9753C35.4173 36.9119 35.5542 36.8775 35.7037 36.8775C35.9331 36.8775 36.1645 36.9584 36.3225 37.0936L38.3556 38.8255C38.483 38.9338 38.5469 39.0622 38.5358 39.188C38.5247 39.3011 38.4523 39.402 38.3292 39.4734L36.1466 40.7385C36.033 40.8041 35.8935 40.8389 35.7397 40.8389C35.5135 40.8389 35.2852 40.7597 35.1303 40.6281L33.0968 38.8957C32.9678 38.7853 32.9034 38.6553 32.9134 38.53C32.9245 38.4154 32.9984 38.3128 33.1242 38.2404Z" fill="#aaaaaa"/>
<path opacity="0.7" d="M24.7717 43.0807L26.9549 41.8155C27.0648 41.7516 27.2053 41.7172 27.3575 41.7172C27.5879 41.7172 27.8184 41.7965 27.9759 41.9307L30.0094 43.6625C30.1342 43.7693 30.1976 43.8972 30.1859 44.023C30.1748 44.1376 30.1014 44.2418 29.9772 44.3136L27.7941 45.5788C27.6842 45.6427 27.5462 45.676 27.3956 45.676C27.1673 45.676 26.9395 45.5973 26.7836 45.4657L24.7506 43.7333C24.62 43.6218 24.5556 43.4913 24.5661 43.3655C24.5778 43.2519 24.6507 43.151 24.7717 43.0807Z" fill="#aaaaaa"/>
<path opacity="0.7" d="M28.3284 41.0192L30.511 39.754C30.6235 39.689 30.7625 39.6546 30.9153 39.6546C31.143 39.6546 31.3734 39.735 31.532 39.8697L33.5656 41.6015C33.6919 41.7099 33.7553 41.8378 33.7447 41.9619C33.7336 42.0772 33.6591 42.1797 33.5333 42.2531L31.3502 43.5178C31.2413 43.5817 31.1029 43.615 30.9517 43.615C30.7239 43.615 30.4957 43.5373 30.3403 43.4047L28.3072 41.6723C28.1767 41.5614 28.1122 41.4314 28.1228 41.3045C28.1339 41.192 28.2068 41.0905 28.3284 41.0192Z" fill="#aaaaaa"/>
<path opacity="0.7" d="M21.2156 45.1417L23.3977 43.8766C23.5082 43.8126 23.6487 43.7783 23.8009 43.7783C24.0313 43.7783 24.2628 43.857 24.4193 43.9913L26.4523 45.7236C26.578 45.8298 26.6399 45.9577 26.6293 46.0835C26.6188 46.1987 26.5448 46.3023 26.4206 46.3741L24.2369 47.6398C24.126 47.7048 23.9859 47.7387 23.8327 47.7387C23.6038 47.7387 23.3755 47.661 23.2212 47.5294L21.1876 45.797C21.0598 45.6882 20.9958 45.5577 21.0074 45.4313C21.018 45.3156 21.0915 45.2136 21.2156 45.1417Z" fill="#aaaaaa"/>
<path opacity="0.7" d="M17.6595 47.2023L19.8416 45.9382C19.9515 45.8742 20.0884 45.8404 20.2385 45.8404C20.4678 45.8404 20.6988 45.9202 20.8568 46.056L22.8903 47.7883C23.0177 47.8967 23.0812 48.0246 23.0701 48.1509C23.0595 48.2634 22.9865 48.3644 22.8645 48.4357L20.6808 49.7014C20.5699 49.7654 20.4298 49.7997 20.2765 49.7997C20.0472 49.7997 19.8189 49.7215 19.6656 49.5904L17.6315 47.8576C17.5036 47.7487 17.4397 47.6192 17.4503 47.4929C17.4619 47.3777 17.5353 47.2736 17.6595 47.2023Z" fill="#aaaaaa"/>
<path opacity="0.7" d="M33.8509 23.5848L36.034 22.3196C36.145 22.2557 36.284 22.2213 36.4357 22.2213C36.6671 22.2213 36.8981 22.3006 37.055 22.4348L39.0886 24.1667C39.2149 24.2745 39.2783 24.4024 39.2672 24.5276C39.2566 24.6418 39.1821 24.7448 39.0564 24.8177L36.8738 26.0839C36.7638 26.1468 36.6259 26.1812 36.4758 26.1812C36.247 26.1812 36.0187 26.1019 35.8633 25.9698L33.8303 24.2369C33.7029 24.1297 33.6369 23.9949 33.6485 23.8691C33.6575 23.756 33.7298 23.6546 33.8509 23.5848Z" fill="#aaaaaa"/>
<path opacity="0.7" d="M26.7382 27.7074L28.9213 26.4412C29.0292 26.3794 29.166 26.3456 29.3151 26.3456C29.5476 26.3456 29.7796 26.4259 29.9371 26.5596L31.9706 28.2924C32.0969 28.4002 32.1608 28.5287 32.1492 28.6539C32.1386 28.7675 32.0662 28.869 31.9426 28.9403L29.7605 30.2055C29.649 30.2705 29.509 30.3038 29.3552 30.3038C29.1258 30.3038 28.8975 30.2256 28.7443 30.0951L26.7107 28.3622C26.586 28.2554 26.521 28.1217 26.5321 27.996C26.5426 27.8802 26.6156 27.7782 26.7382 27.7074Z" fill="#aaaaaa"/>
<path opacity="0.7" d="M30.2938 25.6459L32.4774 24.3812C32.5868 24.3173 32.7253 24.284 32.8785 24.284C33.1105 24.284 33.3425 24.3633 33.4984 24.4954L35.532 26.2282C35.6567 26.335 35.719 26.4624 35.7085 26.5887C35.6979 26.7039 35.6239 26.8074 35.4992 26.8793L33.3166 28.1445C33.2067 28.2084 33.0687 28.2423 32.9176 28.2423C32.6898 28.2423 32.4621 28.1635 32.3062 28.0314L30.2732 26.2985C30.1463 26.1907 30.0798 26.0565 30.0914 25.9307C30.102 25.8171 30.1738 25.7156 30.2938 25.6459Z" fill="#aaaaaa"/>
<path opacity="0.7" d="M23.1811 29.7679L25.3653 28.5023C25.4725 28.4399 25.6094 28.4071 25.7584 28.4071C25.9899 28.4071 26.2229 28.4869 26.3794 28.6206L28.414 30.353C28.5403 30.4608 28.6032 30.5897 28.5926 30.715C28.582 30.8286 28.5096 30.9301 28.386 31.0014L26.2039 32.2655C26.0908 32.3316 25.9508 32.3659 25.7981 32.3659C25.5703 32.3659 25.343 32.2872 25.1882 32.1551L23.1541 30.4232C23.0278 30.3154 22.9622 30.1817 22.9728 30.056C22.9834 29.9429 23.0579 29.8398 23.1811 29.7679Z" fill="#aaaaaa"/>
<path opacity="0.7" d="M11.273 36.6693L13.4566 35.4041C13.5655 35.3407 13.7034 35.3063 13.8567 35.3063C14.0887 35.3063 14.3217 35.3861 14.4776 35.5188L16.5101 37.2511C16.6359 37.3579 16.6983 37.4858 16.6872 37.6121C16.6772 37.7278 16.6032 37.8298 16.4779 37.9022L14.2959 39.1684C14.1843 39.2324 14.0443 39.2667 13.891 39.2667C13.6617 39.2667 13.4334 39.1885 13.2801 39.0574L11.2466 37.3251C11.1218 37.2184 11.0558 37.0847 11.0674 36.9583C11.0769 36.8431 11.1504 36.7406 11.273 36.6693Z" fill="#aaaaaa"/>
<path opacity="0.7" d="M14.8291 34.6082L17.0132 33.3431C17.1221 33.2796 17.2606 33.2463 17.4133 33.2463C17.6453 33.2463 17.8783 33.3256 18.0342 33.4583L20.0668 35.1911C20.1926 35.2968 20.2549 35.4247 20.2443 35.551C20.2337 35.6667 20.1598 35.7698 20.035 35.8422L17.8514 37.1074C17.742 37.1708 17.6046 37.2046 17.4529 37.2046C17.2246 37.2046 16.9969 37.1259 16.8415 36.9937L14.809 35.2609C14.6816 35.1536 14.615 35.0188 14.6266 34.8925C14.6362 34.7789 14.7091 34.678 14.8291 34.6082Z" fill="#aaaaaa"/>
<path opacity="0.7" d="M18.3862 32.5477L20.5688 31.2815C20.6798 31.2176 20.8182 31.1832 20.9709 31.1832C21.2019 31.1832 21.4328 31.263 21.5898 31.3972L23.6229 33.1296C23.7502 33.2368 23.813 33.3653 23.8014 33.4905C23.7919 33.6041 23.7174 33.7077 23.5916 33.7806L21.408 35.0458C21.2986 35.1097 21.1612 35.1436 21.01 35.1436C20.7823 35.1436 20.554 35.0643 20.3991 34.9322L18.365 33.1993C18.2382 33.092 18.1716 32.9578 18.1832 32.831C18.1933 32.7179 18.2652 32.6175 18.3862 32.5477Z" fill="#aaaaaa"/>
<path opacity="0.7" d="M43.7931 32.0573L45.9762 30.7916C46.0882 30.7271 46.2288 30.6922 46.3805 30.6922C46.6088 30.6922 46.8397 30.7715 46.9966 30.9068L49.0308 32.6391C49.1571 32.7469 49.2204 32.8748 49.2093 32.999C49.1988 33.1137 49.1243 33.2173 48.9985 33.2902L46.8164 34.5554C46.7065 34.6188 46.5681 34.6531 46.4169 34.6531C46.1892 34.6531 45.9608 34.5739 45.806 34.4417L43.7724 32.7089C43.6424 32.5984 43.5769 32.4679 43.5885 32.3416C43.5986 32.2285 43.6715 32.1276 43.7931 32.0573Z" fill="#aaaaaa"/>
<path opacity="0.7" d="M37.1682 26.4127L39.3513 25.147C39.4639 25.0815 39.6044 25.0471 39.7571 25.0471C39.9844 25.0471 40.2127 25.1259 40.3675 25.258L42.4006 26.9903C42.5269 27.0976 42.5924 27.2313 42.5824 27.356C42.5713 27.4707 42.4978 27.5732 42.3736 27.6456L40.1905 28.9108C40.0822 28.9731 39.9458 29.0064 39.7957 29.0064C39.5642 29.0064 39.3328 28.9272 39.1753 28.7924L37.1412 27.0595C37.0144 26.9517 36.951 26.8238 36.9626 26.6981C36.9732 26.585 37.0461 26.484 37.1682 26.4127Z" fill="#aaaaaa"/>
<path opacity="0.7" d="M40.4817 29.2342L42.6642 27.969C42.7768 27.904 42.9174 27.8697 43.0701 27.8697C43.2974 27.8697 43.5246 27.9484 43.6794 28.0805L45.713 29.8129C45.843 29.9228 45.908 30.0528 45.8969 30.1786C45.8864 30.2927 45.8113 30.3952 45.6871 30.4682L43.5029 31.7333C43.3941 31.7962 43.2561 31.83 43.1071 31.83C42.8772 31.83 42.6468 31.7502 42.4888 31.615L40.4547 29.8832C40.3279 29.7748 40.2645 29.6459 40.2756 29.5206C40.2851 29.4075 40.3586 29.306 40.4817 29.2342Z" fill="#aaaaaa"/>
<path opacity="0.7" d="M7.71691 38.7303L9.90053 37.4652C10.0078 37.4028 10.1447 37.3695 10.2942 37.3695C10.5257 37.3695 10.7577 37.4498 10.9157 37.583L12.9488 39.3153C13.0756 39.4237 13.139 39.5516 13.1285 39.6768C13.1179 39.791 13.0444 39.8919 12.9218 39.9632L10.7387 41.2284C10.6283 41.2934 10.4877 41.3272 10.3355 41.3272C10.1056 41.3272 9.87779 41.2495 9.72242 41.118L7.68994 39.3862C7.56469 39.2794 7.49917 39.1457 7.51079 39.0194C7.52083 38.9047 7.59377 38.8017 7.71691 38.7303Z" fill="#aaaaaa"/>
<path opacity="0.7" d="M26.4988 32.5953L28.683 31.3296C28.7918 31.2657 28.9303 31.2324 29.0804 31.2324C29.3087 31.2324 29.5375 31.3116 29.6924 31.4432L31.7259 33.1756C31.8532 33.2839 31.9188 33.4181 31.9083 33.5439C31.8977 33.657 31.8253 33.7569 31.7048 33.8277L29.5211 35.0929C29.4101 35.1573 29.2711 35.1912 29.1189 35.1912C28.888 35.1912 28.6576 35.1114 28.5012 34.9777L26.4671 33.2453C26.3408 33.138 26.2768 33.0102 26.2885 32.8849C26.299 32.7708 26.373 32.6682 26.4988 32.5953Z" fill="#aaaaaa"/>
<path opacity="0.7" d="M33.6126 28.4727L35.7952 27.2075C35.9062 27.1435 36.0462 27.1092 36.2005 27.1092C36.4293 27.1092 36.6571 27.1869 36.8114 27.3179L38.8445 29.0513C38.9697 29.1576 39.0347 29.2913 39.0236 29.417C39.0136 29.5322 38.9401 29.6353 38.8175 29.7066L36.6344 30.9718C36.5261 31.0342 36.3897 31.0675 36.2402 31.0675C36.0087 31.0675 35.7767 30.9871 35.6192 30.8524L33.5856 29.1206C33.4583 29.0133 33.3948 28.8838 33.4065 28.7586C33.4165 28.646 33.4894 28.5451 33.6126 28.4727Z" fill="#aaaaaa"/>
<path opacity="0.7" d="M21.7034 35.374L23.8865 34.1094C23.9986 34.0433 24.1397 34.0095 24.2924 34.0095C24.5191 34.0095 24.7474 34.0877 24.9017 34.2209L26.9353 35.9527C27.0616 36.06 27.1271 36.1937 27.1166 36.3189C27.106 36.4336 27.0325 36.5361 26.9083 36.6069L24.7252 37.8732C24.6169 37.9355 24.48 37.9688 24.331 37.9688C24.0995 37.9688 23.8664 37.8885 23.71 37.7553L21.6764 36.0219C21.5491 35.9146 21.4862 35.7857 21.4968 35.6604C21.5073 35.5473 21.5813 35.4454 21.7034 35.374Z" fill="#aaaaaa"/>
<path opacity="0.7" d="M30.056 30.5342L32.2391 29.2691C32.3479 29.2056 32.4864 29.1713 32.6375 29.1713C32.8653 29.1713 33.0936 29.2506 33.2495 29.3822L35.282 31.1156C35.4093 31.2228 35.4749 31.3571 35.4643 31.4834C35.4538 31.5965 35.3819 31.6969 35.2609 31.7666L33.0767 33.0323C32.9678 33.0952 32.8294 33.1296 32.6766 33.1296C32.4446 33.1296 32.2116 33.0503 32.0568 32.9166L30.0232 31.1848C29.8979 31.078 29.8351 30.9507 29.8467 30.8249C29.8572 30.7097 29.9318 30.6056 30.056 30.5342Z" fill="#aaaaaa"/>
<path opacity="0.7" d="M18.1473 37.435L20.3305 36.1704C20.4409 36.1054 20.5815 36.0721 20.7347 36.0721C20.9641 36.0721 21.1924 36.1492 21.3457 36.2808L23.3792 38.0137C23.505 38.1204 23.57 38.2531 23.5584 38.3794C23.5483 38.4946 23.4744 38.5966 23.3523 38.6679L21.1686 39.9336C21.0614 39.9965 20.925 40.0298 20.7749 40.0298C20.544 40.0298 20.3114 39.9495 20.154 39.8152L18.1204 38.0829C17.9935 37.9756 17.9301 37.8467 17.9407 37.7214C17.9513 37.6084 18.0237 37.5063 18.1473 37.435Z" fill="#aaaaaa"/>
<path opacity="0.7" d="M11.0346 41.5577L13.2167 40.292C13.3271 40.2286 13.4645 40.1942 13.6157 40.1942C13.8434 40.1942 14.0723 40.274 14.2271 40.4061L16.2602 42.1379C16.3875 42.2463 16.4541 42.38 16.4425 42.5063C16.4319 42.6194 16.36 42.7203 16.2395 42.7901L14.0559 44.0558C13.947 44.1187 13.8085 44.152 13.6558 44.152C13.4227 44.152 13.1908 44.0732 13.0349 43.9406L11.0023 42.2077C10.8766 42.1009 10.8142 41.9736 10.8248 41.8483C10.8354 41.7326 10.9099 41.6301 11.0346 41.5577Z" fill="#aaaaaa"/>
<path opacity="0.7" d="M14.5907 39.4966L16.7738 38.2315C16.8848 38.167 17.0249 38.1326 17.1771 38.1326C17.407 38.1326 17.6358 38.2114 17.789 38.3419L19.8226 40.0737C19.9473 40.1805 20.0134 40.3142 20.0012 40.4405C19.9912 40.5552 19.9177 40.6577 19.7951 40.729L17.612 41.9947C17.5031 42.0576 17.3641 42.092 17.2119 42.092C16.9794 42.092 16.7469 42.0121 16.591 41.8795L14.5579 40.1472C14.4327 40.0404 14.3703 39.9136 14.3809 39.7873C14.3925 39.6721 14.466 39.5685 14.5907 39.4966Z" fill="#aaaaaa"/>
<path opacity="0.7" d="M40.237 34.1178L42.4201 32.8527C42.5311 32.7887 42.67 32.7544 42.8228 32.7544C43.0537 32.7544 43.2841 32.8342 43.4411 32.9679L45.4736 34.7007C45.5994 34.8075 45.6623 34.9354 45.6512 35.0606C45.6406 35.1764 45.5666 35.2789 45.4419 35.3507L43.2587 36.617C43.1488 36.6804 43.0114 36.7148 42.8613 36.7148C42.6325 36.7148 42.4042 36.635 42.2494 36.5028L40.2148 34.7705C40.0864 34.66 40.0203 34.5295 40.0314 34.4043C40.0419 34.2901 40.1138 34.1892 40.237 34.1178Z" fill="#aaaaaa"/>
<path opacity="0.7" d="M36.924 31.2963L39.1071 30.0301C39.2186 29.9661 39.3586 29.9318 39.5119 29.9318C39.7418 29.9318 39.9695 30.01 40.1233 30.141L42.1569 31.8728C42.2848 31.9822 42.3488 32.1117 42.3377 32.2391C42.3276 32.3538 42.2536 32.4563 42.1299 32.5287L39.9458 33.7939C39.8369 33.8567 39.699 33.8911 39.5499 33.8911C39.3201 33.8911 39.0896 33.8108 38.9316 33.6755L36.8975 31.9437C36.7707 31.8353 36.7073 31.7064 36.7184 31.5811C36.7289 31.4686 36.8019 31.3671 36.924 31.2963Z" fill="#aaaaaa"/>
<path opacity="0.7" d="M40.9388 39.8084L43.1219 38.5432C43.2318 38.4798 43.3703 38.4454 43.5214 38.4454C43.7492 38.4454 43.9775 38.5247 44.1323 38.6568L46.1659 40.3897C46.2927 40.498 46.3588 40.6312 46.3472 40.757C46.3366 40.8701 46.2652 40.971 46.1442 41.0408L43.9611 42.3065C43.8517 42.3699 43.7132 42.4037 43.5605 42.4037C43.3285 42.4037 43.096 42.3244 42.9401 42.1918L40.907 40.4589C40.7818 40.3522 40.7195 40.2248 40.73 40.099C40.7406 39.9838 40.8146 39.8802 40.9388 39.8084Z" fill="#aaaaaa"/>
<path opacity="0.7" d="M37.3827 41.8694L39.5663 40.6043C39.6752 40.5403 39.8132 40.507 39.9643 40.507C40.1921 40.507 40.4204 40.5858 40.5758 40.7173L42.6087 42.4507C42.7361 42.558 42.8016 42.6917 42.7905 42.817C42.781 42.9311 42.7087 43.0321 42.5877 43.1018L40.4045 44.367C40.2935 44.4315 40.1546 44.4653 40.0029 44.4653C39.7714 44.4653 39.541 44.3855 39.3835 44.2523L37.3505 42.52C37.2242 42.4116 37.1602 42.2832 37.1718 42.159C37.1819 42.0449 37.2569 41.9424 37.3827 41.8694Z" fill="#aaaaaa"/>
<path opacity="0.7" d="M54.677 41.3314L56.8601 40.0663C56.9705 40.0023 57.109 39.9674 57.2612 39.9674C57.4921 39.9674 57.7236 40.0467 57.8811 40.1809L59.9136 41.9133C60.0409 42.0211 60.1044 42.149 60.0933 42.2742C60.0822 42.3878 60.0082 42.4914 59.8824 42.5644L57.6993 43.8295C57.5894 43.8929 57.4519 43.9273 57.3008 43.9273C57.073 43.9273 56.8447 43.848 56.6894 43.7159L54.6553 41.983C54.529 41.8758 54.4634 41.7415 54.474 41.6147C54.484 41.5026 54.5559 41.4012 54.677 41.3314Z" fill="#aaaaaa"/>
<path opacity="0.7" d="M51.3639 38.5088L53.547 37.2426C53.6596 37.1776 53.7997 37.1438 53.9513 37.1438C54.1796 37.1438 54.4106 37.2236 54.5681 37.3589L56.6016 39.0907C56.7279 39.198 56.7914 39.3259 56.7803 39.4506C56.7697 39.5653 56.6957 39.6689 56.5694 39.7418L54.3863 41.0069C54.2774 41.0709 54.139 41.1042 53.9889 41.1042C53.7601 41.1042 53.5318 41.0254 53.3769 40.8938L51.3434 39.161C51.2128 39.05 51.1478 38.9195 51.1589 38.7932C51.1695 38.6811 51.2424 38.5791 51.3639 38.5088Z" fill="#aaaaaa"/>
<path opacity="0.7" d="M48.0525 35.6868L50.2356 34.4206C50.3477 34.3561 50.4888 34.3218 50.6415 34.3218C50.8683 34.3218 51.0965 34.3995 51.2509 34.5316L53.2844 36.2639C53.4107 36.3712 53.4763 36.5049 53.4657 36.6307C53.4551 36.7443 53.3817 36.8468 53.2575 36.9192L51.0733 38.1844C50.966 38.2467 50.8292 38.28 50.6796 38.28C50.4481 38.28 50.2167 38.2008 50.0581 38.066L48.0256 36.3337C47.8982 36.2253 47.8348 36.0969 47.8459 35.9717C47.857 35.8581 47.9294 35.7576 48.0525 35.6868Z" fill="#aaaaaa"/>
<path opacity="0.7" d="M51.1204 43.392L53.3035 42.1279C53.4123 42.0639 53.5513 42.0301 53.7035 42.0301C53.936 42.0301 54.1686 42.1094 54.3245 42.242L56.3575 43.9749C56.4827 44.0816 56.5451 44.2085 56.5346 44.3348C56.524 44.4505 56.45 44.553 56.3253 44.6259L54.1427 45.8911C54.0328 45.9545 53.8943 45.9889 53.7437 45.9889C53.5159 45.9889 53.2876 45.9091 53.1323 45.777L51.0987 44.0446C50.9719 43.9374 50.9058 43.8031 50.9174 43.6773C50.928 43.5637 50.9999 43.4628 51.1204 43.392Z" fill="#aaaaaa"/>
<path opacity="0.7" d="M50.8762 48.2761L53.0593 47.0104C53.1676 46.9481 53.3034 46.9148 53.4535 46.9148C53.685 46.9148 53.917 46.9951 54.0745 47.1288L56.1081 48.8617C56.2344 48.9689 56.301 49.1037 56.2904 49.2295C56.2793 49.3426 56.2074 49.4435 56.0869 49.5133L53.9028 50.7784C53.7939 50.8413 53.6555 50.8757 53.5038 50.8757H53.5027C53.2707 50.8757 53.0387 50.7969 52.8828 50.6632L50.8492 48.9314C50.7234 48.8247 50.659 48.691 50.6696 48.5652C50.6812 48.4494 50.7536 48.348 50.8762 48.2761Z" fill="#aaaaaa"/>
<path opacity="0.7" d="M57.9889 44.1545L60.172 42.8889C60.2825 42.8239 60.422 42.7906 60.5742 42.7906C60.8046 42.7906 61.0361 42.8698 61.1925 43.003L63.2266 44.7359C63.3529 44.8437 63.4185 44.9774 63.4074 45.1021C63.3968 45.2168 63.3238 45.3193 63.1996 45.3912L61.0165 46.6569C60.9087 46.7187 60.7719 46.7525 60.6228 46.7525C60.3903 46.7525 60.1583 46.6722 60.0013 46.5385L57.9672 44.8056C57.8409 44.6978 57.7749 44.5636 57.7865 44.4378C57.7966 44.3247 57.8689 44.2238 57.9889 44.1545Z" fill="#aaaaaa"/>
<path opacity="0.7" d="M54.4328 46.2151L56.6154 44.9493C56.7248 44.8865 56.8633 44.8532 57.016 44.8532C57.248 44.8532 57.481 44.9319 57.6364 45.0646L59.6705 46.7969C59.7957 46.9036 59.8607 47.0379 59.8496 47.1637C59.8386 47.2789 59.7662 47.3809 59.6425 47.4527L57.4604 48.7174C57.3521 48.7803 57.2157 48.8141 57.0667 48.8141C56.8352 48.8141 56.6022 48.7332 56.4452 48.599L54.4116 46.8672C54.2848 46.7594 54.2188 46.6251 54.2298 46.4994C54.2409 46.3857 54.3123 46.2848 54.4328 46.2151Z" fill="#aaaaaa"/>
<path opacity="0.7" d="M47.5648 45.453L49.7474 44.1878C49.8552 44.1255 49.9921 44.0922 50.1411 44.0922C50.3726 44.0922 50.6056 44.1725 50.7626 44.3062L52.7956 46.0391C52.923 46.1474 52.9859 46.2753 52.9753 46.4016C52.9648 46.5147 52.8918 46.6157 52.7697 46.687L50.5855 47.9522C50.4751 48.0161 50.3345 48.0505 50.1812 48.0505C49.9519 48.0505 49.7236 47.9722 49.5704 47.8412L47.5368 46.1088C47.411 46.0026 47.347 45.8684 47.3571 45.7431C47.3687 45.6274 47.4411 45.5243 47.5648 45.453Z" fill="#aaaaaa"/>
<path opacity="0.7" d="M47.3201 50.3371L49.5032 49.0715C49.6105 49.0091 49.7473 48.9758 49.8974 48.9758C50.1289 48.9758 50.3609 49.0556 50.5184 49.1898L52.552 50.9216C52.6788 51.03 52.7449 51.1647 52.7332 51.29C52.7227 51.4036 52.6513 51.5045 52.5298 51.5738L50.3472 52.8395C50.2362 52.9034 50.0972 52.9378 49.945 52.9378C49.7141 52.9378 49.4826 52.858 49.3262 52.7243L47.2931 50.9914C47.1657 50.8846 47.1002 50.7499 47.1113 50.6252C47.1219 50.5105 47.1964 50.409 47.3201 50.3371Z" fill="#aaaaaa"/>
<path opacity="0.7" d="M47.8078 40.5694L49.9909 39.3042C50.1014 39.2403 50.2409 39.2059 50.3942 39.2059C50.6246 39.2059 50.855 39.2857 51.012 39.4194L53.0455 41.1523C53.1703 41.258 53.2337 41.3864 53.2226 41.5122C53.2115 41.6274 53.1375 41.7315 53.0133 41.8034L50.8307 43.0685C50.7208 43.1314 50.5829 43.1658 50.4323 43.1658C50.204 43.1658 49.9762 43.087 49.8208 42.9549L47.7873 41.2221C47.6578 41.1116 47.5923 40.9811 47.6028 40.8553C47.6129 40.7417 47.6858 40.6407 47.8078 40.5694Z" fill="#aaaaaa"/>
<path opacity="0.7" d="M44.2517 42.6305L46.4343 41.3653C46.5437 41.3024 46.6811 41.2681 46.8307 41.2681C47.0611 41.2681 47.2915 41.3484 47.4495 41.4837L49.4826 43.2155C49.6105 43.3249 49.6739 43.4528 49.6628 43.5791C49.6522 43.6916 49.5793 43.7931 49.4562 43.8634L47.2736 45.1296C47.1626 45.1936 47.022 45.2279 46.8682 45.2279C46.6399 45.2279 46.4106 45.1497 46.2573 45.0186L44.2248 43.2863C44.0958 43.1774 44.0319 43.0469 44.0425 42.9217C44.0536 42.8054 44.1275 42.7023 44.2517 42.6305Z" fill="#aaaaaa"/>
<path opacity="0.7" d="M40.6957 44.692L42.8788 43.4269C42.9882 43.364 43.1257 43.3296 43.2757 43.3296C43.504 43.3296 43.7355 43.4099 43.894 43.5452L45.9266 45.277C46.0539 45.3854 46.1178 45.5143 46.1073 45.6396C46.0967 45.7527 46.0233 45.8536 45.8996 45.9249L43.7175 47.1901C43.6044 47.2556 43.4644 47.2895 43.3117 47.2895C43.0844 47.2895 42.8566 47.2118 42.7013 47.0797L40.6687 45.3473C40.5387 45.2369 40.4732 45.1069 40.4849 44.9806C40.4954 44.8669 40.5699 44.7644 40.6957 44.692Z" fill="#aaaaaa"/>
<path opacity="0.7" d="M44.4949 37.7479L46.679 36.4817C46.7895 36.4177 46.9295 36.3834 47.0833 36.3834C47.3127 36.3834 47.541 36.4616 47.6942 36.5926L49.7278 38.325C49.8525 38.4312 49.9181 38.5649 49.9064 38.6907C49.8969 38.8059 49.8234 38.9089 49.7008 38.9803L47.5172 40.2454C47.4094 40.3078 47.2736 40.3411 47.1235 40.3411C46.892 40.3411 46.659 40.2613 46.502 40.1271L44.4689 38.3947C44.3416 38.2859 44.2787 38.158 44.2893 38.0317C44.2998 37.9191 44.3733 37.8182 44.4949 37.7479Z" fill="#aaaaaa"/>
<path opacity="0.7" d="M44.0071 47.5146L46.1903 46.2494C46.2986 46.1871 46.4355 46.1538 46.5845 46.1538C46.816 46.1538 47.049 46.233 47.206 46.3678L49.239 48.1001C49.3663 48.2085 49.4292 48.3364 49.4186 48.4621C49.4081 48.5752 49.3357 48.6772 49.212 48.7475L47.0289 50.0127C46.9169 50.0782 46.7758 50.1131 46.6236 50.1131C46.3963 50.1131 46.168 50.0343 46.0132 49.9022L43.9802 48.1699C43.8539 48.0626 43.7883 47.9284 43.7989 47.8037C43.8095 47.6885 43.8834 47.5854 44.0071 47.5146Z" fill="#aaaaaa"/>
<path opacity="0.7" d="M32.5873 44.6487L34.7705 43.3835C34.8831 43.3175 35.0231 43.2842 35.1753 43.2842C35.4036 43.2842 35.6308 43.3619 35.7856 43.495L37.8192 45.2268C37.9455 45.3341 38.0116 45.4684 38.0005 45.5931C37.9899 45.7078 37.9159 45.8103 37.7923 45.8811L35.6086 47.1473C35.5013 47.2091 35.3639 47.243 35.2149 47.243C34.9834 47.243 34.7509 47.1621 34.5934 47.0289L32.5604 45.2961C32.4336 45.1883 32.3701 45.0598 32.3807 44.9346C32.3913 44.8215 32.4653 44.7195 32.5873 44.6487Z" fill="#aaaaaa"/>
<path opacity="0.7" d="M28.7871 51.5933L30.9702 50.3276C31.0802 50.2637 31.2202 50.2288 31.3729 50.2288C31.6039 50.2288 31.8343 50.3086 31.9913 50.4429L34.0237 52.1752C34.1495 52.2819 34.2119 52.4088 34.2008 52.5351C34.1908 52.6508 34.1168 52.7539 33.9921 52.8263L31.8089 54.0914C31.6974 54.1559 31.5574 54.1897 31.4041 54.1897C31.1743 54.1897 30.9464 54.1126 30.7926 53.9804L28.7591 52.2487C28.6312 52.1387 28.5673 52.0098 28.5784 51.8824C28.5895 51.7677 28.6629 51.6647 28.7871 51.5933Z" fill="#aaaaaa"/>
<path opacity="0.7" d="M25.2299 53.6549L27.4125 52.3892C27.5224 52.3253 27.6594 52.292 27.8095 52.292C28.0393 52.292 28.2708 52.3723 28.4288 52.5071L30.4618 54.2399C30.5892 54.3483 30.6531 54.4767 30.641 54.602C30.6304 54.7156 30.5586 54.8165 30.4354 54.8878L28.2517 56.153C28.1408 56.217 28.0007 56.2513 27.8475 56.2513C27.6186 56.2513 27.3903 56.1731 27.2365 56.042L25.203 54.3102C25.0746 54.2003 25.0101 54.0708 25.0217 53.944C25.0328 53.8288 25.1068 53.7257 25.2299 53.6549Z" fill="#aaaaaa"/>
<path opacity="0.7" d="M25.4741 48.7702L27.6572 47.5045C27.7687 47.4406 27.9077 47.4062 28.0615 47.4062C28.2908 47.4062 28.5186 47.4845 28.6734 47.6155L30.7059 49.3473C30.8317 49.4541 30.8962 49.5878 30.8856 49.7141C30.875 49.8298 30.8021 49.9313 30.68 50.0026L28.4959 51.2683C28.387 51.3312 28.2486 51.3656 28.0958 51.3656C27.8638 51.3656 27.6308 51.2858 27.4749 51.1531L25.4413 49.4213C25.3166 49.3146 25.2542 49.1862 25.2648 49.0609C25.2754 48.9457 25.3499 48.8426 25.4741 48.7702Z" fill="#aaaaaa"/>
<path opacity="0.7" d="M21.918 50.8318L24.1011 49.5661C24.211 49.5027 24.3489 49.4684 24.4996 49.4684C24.7268 49.4684 24.9556 49.5482 25.1105 49.6803L27.1441 51.4121C27.2714 51.5204 27.338 51.6552 27.3264 51.7804C27.3158 51.894 27.2444 51.9939 27.1229 52.0642L24.9398 53.3299C24.8309 53.3928 24.6914 53.4261 24.5387 53.4261C24.3067 53.4261 24.0747 53.3474 23.9193 53.2147L21.8863 51.4824C21.7605 51.3756 21.6976 51.2477 21.7082 51.1219C21.7198 51.0067 21.7938 50.9042 21.918 50.8318Z" fill="#aaaaaa"/>
<path opacity="0.7" d="M32.3432 49.5323L34.5263 48.2666C34.6367 48.2027 34.7763 48.1689 34.9285 48.1689C35.1599 48.1689 35.3904 48.2487 35.5468 48.3818L37.5798 50.1142C37.7056 50.2209 37.7685 50.3488 37.7569 50.4751C37.7463 50.5903 37.6723 50.6939 37.5481 50.7652L35.365 52.0304C35.2551 52.0944 35.1171 52.1282 34.9665 52.1282C34.7387 52.1282 34.5104 52.0499 34.3545 51.9168L32.321 50.185C32.1915 50.074 32.1265 49.9435 32.1371 49.8177C32.1476 49.7046 32.2206 49.6037 32.3432 49.5323Z" fill="#aaaaaa"/>
<path opacity="0.7" d="M29.0307 46.7097L31.2138 45.4446C31.3253 45.3795 31.4653 45.3463 31.6186 45.3463C31.8479 45.3463 32.0762 45.4234 32.2295 45.555L34.2631 47.2879C34.3878 47.3946 34.4539 47.5283 34.4422 47.6541C34.4317 47.7688 34.3582 47.8713 34.2361 47.9432L32.0525 49.2078C31.9452 49.2707 31.8083 49.3045 31.6588 49.3045C31.4273 49.3045 31.1948 49.2237 31.0373 49.0894L29.0043 47.3576C28.8769 47.2493 28.813 47.1209 28.8251 46.9951C28.8346 46.882 28.9075 46.7805 29.0307 46.7097Z" fill="#aaaaaa"/>
<path opacity="0.7" d="M35.412 57.2385L37.5946 55.9733C37.704 55.9099 37.8425 55.8761 37.9947 55.8761C38.2272 55.8761 38.4597 55.9554 38.6156 56.0875L40.6486 57.8204C40.7739 57.9271 40.8399 58.0608 40.8278 58.1861C40.8177 58.3018 40.7443 58.4043 40.6217 58.4757L38.4391 59.7408C38.3302 59.8043 38.1907 59.8375 38.0385 59.8375C37.8071 59.8375 37.5734 59.7588 37.4175 59.6256L35.384 57.8938C35.2593 57.7876 35.1943 57.6534 35.2048 57.5281C35.2159 57.4124 35.2889 57.3098 35.412 57.2385Z" fill="#aaaaaa"/>
<path opacity="0.7" d="M38.9675 55.1775L41.1507 53.9123C41.2601 53.8489 41.398 53.8145 41.5507 53.8145C41.7833 53.8145 42.0158 53.8943 42.1717 54.0275L44.2047 55.7593C44.33 55.866 44.3955 55.9998 44.3839 56.125C44.3733 56.2418 44.3003 56.3438 44.1777 56.4146L41.9951 57.6798C41.8873 57.7427 41.75 57.776 41.6009 57.776C41.37 57.776 41.1375 57.6962 40.98 57.5614L38.9453 55.8296C38.819 55.7223 38.7535 55.5876 38.7646 55.4613C38.7752 55.3482 38.847 55.2467 38.9675 55.1775Z" fill="#aaaaaa"/>
<path opacity="0.7" d="M42.5242 53.1159L44.7073 51.8507C44.8178 51.7868 44.9573 51.7529 45.109 51.7529C45.3405 51.7529 45.5709 51.8322 45.7284 51.9659L47.7619 53.6982C47.8882 53.8055 47.9537 53.9397 47.9431 54.0645C47.9326 54.1786 47.8591 54.2811 47.7339 54.3535L45.5518 55.6182C45.4435 55.6816 45.3076 55.7144 45.1576 55.7144C44.9261 55.7144 44.6941 55.6346 44.5366 55.5009L42.5031 53.768C42.3768 53.6597 42.3102 53.5265 42.3208 53.3996C42.3313 53.2866 42.4032 53.1867 42.5242 53.1159Z" fill="#aaaaaa"/>
<path opacity="0.7" d="M31.8554 59.2995L34.0379 58.0344C34.1458 57.971 34.2827 57.9377 34.4328 57.9377C34.6637 57.9377 34.8962 58.018 35.0532 58.1522L37.0862 59.8846C37.2136 59.9924 37.2791 60.1266 37.2685 60.2524C37.258 60.3649 37.1861 60.4664 37.0651 60.5367L34.8819 61.8019C34.7726 61.8653 34.6336 61.8986 34.4819 61.8986C34.2489 61.8986 34.0168 61.8198 33.8609 61.6866L31.8274 59.9538C31.7026 59.8476 31.6376 59.7144 31.6487 59.5886C31.6593 59.4734 31.7328 59.3709 31.8554 59.2995Z" fill="#aaaaaa"/>
<path opacity="0.7" d="M32.0995 54.4159L34.2816 53.1507C34.391 53.0873 34.5294 53.053 34.6816 53.053C34.9141 53.053 35.1467 53.1317 35.3026 53.2654L37.3362 54.9978C37.4614 55.1045 37.5243 55.2324 37.5132 55.3577C37.5021 55.4734 37.4281 55.5764 37.3039 55.6488L35.1213 56.914C35.0103 56.978 34.8703 57.0134 34.717 57.0134C34.4877 57.0134 34.2594 56.9352 34.1061 56.8041L32.072 55.0717C31.9468 54.965 31.8818 54.8313 31.8929 54.706C31.9035 54.5887 31.9764 54.4872 32.0995 54.4159Z" fill="#aaaaaa"/>
<path opacity="0.7" d="M39.2123 50.2933L41.3944 49.0281C41.5059 48.9642 41.6443 48.9298 41.797 48.9298C42.028 48.9298 42.2584 49.0096 42.4159 49.1433L44.4495 50.8751C44.5752 50.9835 44.6392 51.1114 44.6286 51.2361C44.6175 51.3508 44.543 51.4533 44.4167 51.5268L42.2336 52.7914C42.1247 52.8553 41.9863 52.8886 41.8362 52.8886C41.6084 52.8886 41.379 52.811 41.2242 52.6783L39.1906 50.946C39.0643 50.8376 38.9978 50.7034 39.0094 50.5776C39.0194 50.4645 39.0913 50.3641 39.2123 50.2933Z" fill="#aaaaaa"/>
<path opacity="0.7" d="M35.6562 52.3549L37.8383 51.0897C37.9476 51.0268 38.0867 50.993 38.2394 50.993C38.4714 50.993 38.7044 51.0718 38.8598 51.2049L40.8928 52.9368C41.0186 53.0435 41.081 53.1714 41.0699 53.2977C41.0588 53.4124 40.9853 53.516 40.8606 53.5878L38.678 54.853C38.5681 54.9169 38.4302 54.9513 38.2801 54.9513C38.0523 54.9513 37.8234 54.872 37.6681 54.7399L35.6345 53.0076C35.5082 52.8992 35.4417 52.7644 35.4533 52.6392C35.4628 52.5256 35.5352 52.4247 35.6562 52.3549Z" fill="#aaaaaa"/>
<path opacity="0.7" d="M28.5424 56.4765L30.7255 55.2123C30.8333 55.1489 30.9702 55.1156 31.1203 55.1156C31.3512 55.1156 31.5832 55.196 31.7407 55.3302L33.7748 57.0625C33.9011 57.1708 33.9651 57.2988 33.954 57.4251C33.9439 57.5381 33.8705 57.6391 33.7473 57.7104L31.5647 58.9756C31.4538 59.0395 31.3137 59.0739 31.1599 59.0739C30.9311 59.0739 30.7028 58.9957 30.5495 58.8651L28.5154 57.1318C28.3907 57.025 28.3252 56.8924 28.3363 56.7671C28.3474 56.6503 28.4198 56.5473 28.5424 56.4765Z" fill="#aaaaaa"/>
<path opacity="0.7" d="M35.8998 47.4713L38.0824 46.2061C38.195 46.1411 38.335 46.1068 38.4867 46.1068C38.715 46.1068 38.9454 46.1871 39.1034 46.3213L41.1375 48.0537C41.2633 48.162 41.3267 48.2899 41.3162 48.4146C41.3056 48.5293 41.2305 48.6318 41.1053 48.7058L38.9222 49.9704C38.8122 50.0338 38.6743 50.0682 38.5242 50.0682C38.2959 50.0682 38.0676 49.9884 37.9117 49.8563L35.8787 48.1245C35.7487 48.014 35.6837 47.8835 35.6942 47.7572C35.7043 47.6436 35.7778 47.5421 35.8998 47.4713Z" fill="#aaaaaa"/>
<path opacity="0.7" d="M46.8905 56.6873L49.073 55.4222C49.1856 55.3566 49.3256 55.3228 49.4789 55.3228C49.7061 55.3228 49.9334 55.401 50.0883 55.5337L52.1223 57.266C52.2487 57.3733 52.3142 57.507 52.3036 57.6317C52.2931 57.7464 52.2196 57.8489 52.0954 57.9203L49.9118 59.186C49.8039 59.2488 49.6671 59.2821 49.518 59.2821C49.2866 59.2821 49.0535 59.2018 48.896 59.0681L46.8635 57.3353C46.7361 57.2269 46.6733 57.099 46.6838 56.9733C46.6939 56.8596 46.7673 56.7587 46.8905 56.6873Z" fill="#aaaaaa"/>
<path opacity="0.7" d="M43.0897 63.6325L45.2723 62.3663C45.3822 62.3023 45.5222 62.268 45.6749 62.268C45.9053 62.268 46.1368 62.3478 46.2933 62.4826L48.3268 64.2144C48.4521 64.3211 48.515 64.4485 48.5033 64.5743C48.4928 64.69 48.4188 64.7936 48.2941 64.8654L46.1115 66.1306C46 66.1956 45.8599 66.2289 45.7062 66.2289C45.4768 66.2289 45.2485 66.1517 45.0952 66.0202L43.0622 64.2873C42.9338 64.1779 42.8698 64.0484 42.8804 63.9221C42.892 63.8074 42.9655 63.7033 43.0897 63.6325Z" fill="#aaaaaa"/>
<path opacity="0.7" d="M39.5326 65.6936L41.7162 64.4274C41.8266 64.3645 41.9624 64.3312 42.1125 64.3312C42.3419 64.3312 42.5734 64.4115 42.7314 64.5457L44.7644 66.2786C44.8917 66.3859 44.9557 66.5148 44.9441 66.6401C44.9335 66.7537 44.8611 66.8552 44.7385 66.9265L42.5554 68.1917C42.4439 68.2556 42.3038 68.29 42.1511 68.29H42.1506C41.9218 68.29 41.6935 68.2117 41.5392 68.0807L39.5056 66.3494C39.3777 66.2395 39.3137 66.11 39.3243 65.9827C39.3359 65.8674 39.4089 65.7649 39.5326 65.6936Z" fill="#aaaaaa"/>
<path opacity="0.7" d="M39.7767 60.8099L41.9609 59.5437C42.0713 59.4798 42.2108 59.446 42.3641 59.446C42.5934 59.446 42.8218 59.5236 42.9761 59.6552L45.0091 61.3876C45.1343 61.4943 45.1999 61.628 45.1888 61.7543C45.1782 61.869 45.1048 61.9715 44.9827 62.0429L42.799 63.3081C42.6896 63.3715 42.5512 63.4058 42.399 63.4058C42.1664 63.4058 41.9339 63.326 41.778 63.1934L39.745 61.461C39.6197 61.3543 39.5569 61.2264 39.568 61.1001C39.5785 60.9849 39.6525 60.8818 39.7767 60.8099Z" fill="#aaaaaa"/>
<path opacity="0.7" d="M36.2206 62.871L38.4037 61.6048C38.5131 61.5414 38.651 61.5075 38.8022 61.5075C39.0299 61.5075 39.2582 61.5874 39.4131 61.7189L41.4467 63.4513C41.574 63.5586 41.6406 63.6933 41.6284 63.8196C41.6179 63.9327 41.5465 64.0331 41.4255 64.1034L39.2424 65.3686C39.1335 65.432 38.9945 65.4653 38.8423 65.4653C38.6093 65.4653 38.3773 65.386 38.2214 65.2534L36.1884 63.5205C36.0631 63.4148 36.0007 63.2869 36.0108 63.1606C36.0219 63.0454 36.0964 62.9429 36.2206 62.871Z" fill="#aaaaaa"/>
<path opacity="0.7" d="M46.6458 61.5715L48.8289 60.3058C48.9399 60.2418 49.0788 60.2075 49.2316 60.2075C49.4625 60.2075 49.6929 60.2873 49.8499 60.421L51.883 62.1528C52.0082 62.2595 52.0716 62.3879 52.06 62.5137C52.0494 62.6295 51.9754 62.732 51.8507 62.8039L49.6676 64.069C49.5582 64.1335 49.4202 64.1668 49.2696 64.1668C49.0413 64.1668 48.8136 64.088 48.6582 63.9559L46.6246 62.2236C46.4941 62.1132 46.4291 61.9826 46.4402 61.8563C46.4502 61.7427 46.5232 61.6423 46.6458 61.5715Z" fill="#aaaaaa"/>
<path opacity="0.7" d="M43.3339 58.7484L45.517 57.4832C45.6274 57.4182 45.7675 57.3849 45.9213 57.3849C46.1506 57.3849 46.3784 57.4621 46.5322 57.5942L48.5658 59.326C48.6905 59.4333 48.756 59.567 48.7443 59.6928C48.7338 59.8074 48.6609 59.9099 48.5388 59.9813L46.3546 61.2465C46.2473 61.3088 46.1104 61.3421 45.9614 61.3421C45.7299 61.3421 45.4969 61.2628 45.34 61.1286L43.3069 59.3963C43.1796 59.2879 43.1167 59.1601 43.1273 59.0338C43.1378 58.9212 43.2107 58.8197 43.3339 58.7484Z" fill="#aaaaaa"/>
<path opacity="0.7" d="M49.7141 69.2777L51.8972 68.012C52.0061 67.9491 52.1445 67.9147 52.2972 67.9147C52.5292 67.9147 52.7623 67.994 52.9182 68.1261L54.9507 69.859C55.0765 69.9663 55.142 70.0994 55.1304 70.2252C55.1198 70.341 55.0468 70.4435 54.9237 70.5143L52.7417 71.78C52.6318 71.8429 52.4938 71.8762 52.3416 71.8762C52.1091 71.8762 51.8755 71.798 51.7202 71.6648L49.6861 69.9319C49.5614 69.8262 49.4969 69.6925 49.5074 69.5667C49.5191 69.451 49.5915 69.349 49.7141 69.2777Z" fill="#aaaaaa"/>
<path opacity="0.7" d="M53.2707 67.2167L55.4538 65.9509C55.5627 65.8881 55.7011 65.8537 55.8538 65.8537C56.0858 65.8537 56.3189 65.933 56.4743 66.0662L58.5073 67.7985C58.6325 67.9052 58.6987 68.0384 58.687 68.1642C58.6765 68.2805 58.603 68.3825 58.4804 68.4538L56.2983 69.719C56.19 69.7813 56.0531 69.8146 55.9035 69.8146C55.6726 69.8146 55.4401 69.7348 55.2831 69.6006L53.2495 67.8688C53.1222 67.7604 53.0567 67.6257 53.0672 67.5004C53.0778 67.3863 53.1491 67.2859 53.2707 67.2167Z" fill="#aaaaaa"/>
<path opacity="0.7" d="M56.8273 65.1551L59.0099 63.8894C59.1204 63.8259 59.2599 63.791 59.4116 63.791C59.6425 63.791 59.874 63.8714 60.0304 64.0046L62.0645 65.7369C62.1908 65.8447 62.2563 65.9789 62.2452 66.1037C62.2347 66.2173 62.1618 66.3203 62.037 66.3922L59.8545 67.6574C59.7461 67.7203 59.6097 67.7536 59.4596 67.7536C59.2287 67.7536 58.9967 67.6732 58.8387 67.539L56.8052 65.8072C56.6788 65.6988 56.6123 65.5646 56.6234 65.4388C56.635 65.3263 56.7069 65.2254 56.8273 65.1551Z" fill="#aaaaaa"/>
<path opacity="0.7" d="M46.158 71.3382L48.3411 70.0735C48.4484 70.0107 48.5852 69.9774 48.7353 69.9774C48.9668 69.9774 49.1988 70.0577 49.3563 70.1919L51.3893 71.9237C51.5161 72.0316 51.5827 72.1663 51.5711 72.2916C51.5605 72.4046 51.4892 72.5056 51.3677 72.5759L49.1851 73.8405C49.0757 73.9045 48.9372 73.9377 48.7845 73.9377C48.5514 73.9377 48.32 73.8595 48.1641 73.7264L46.1305 71.9935C46.0058 71.8868 45.9408 71.7541 45.9514 71.6283C45.9619 71.5126 46.0354 71.409 46.158 71.3382Z" fill="#aaaaaa"/>
<path opacity="0.7" d="M46.4021 66.4546L48.5847 65.1894C48.6935 65.1265 48.8321 65.0922 48.9848 65.0922C49.2168 65.0922 49.4503 65.1709 49.6057 65.3046L51.6393 67.0369C51.7645 67.1432 51.8275 67.271 51.8164 67.3963C51.8053 67.512 51.7313 67.6156 51.6071 67.6875L49.4239 68.9532C49.3135 69.0171 49.1729 69.0515 49.0196 69.0515C48.7903 69.0515 48.562 68.9738 48.4088 68.8422L46.3752 67.1094C46.2494 67.0037 46.1849 66.8699 46.1955 66.7442C46.206 66.6284 46.279 66.5259 46.4021 66.4546Z" fill="#aaaaaa"/>
<path opacity="0.7" d="M53.5149 62.3325L55.698 61.0679C55.809 61.0029 55.9474 60.9695 56.0996 60.9695C56.3311 60.9695 56.5615 61.0488 56.719 61.1825L58.7526 62.9149C58.8789 63.0232 58.9422 63.15 58.9311 63.2753C58.92 63.39 58.8461 63.493 58.7203 63.5665L56.5366 64.8311C56.4272 64.895 56.2888 64.9283 56.1387 64.9283C55.9109 64.9283 55.6827 64.8501 55.5273 64.7175L53.4932 62.9852C53.3669 62.8773 53.3008 62.7426 53.3124 62.6168C53.3214 62.5037 53.3938 62.4028 53.5149 62.3325Z" fill="#aaaaaa"/>
<path opacity="0.7" d="M49.9582 64.3935L52.1408 63.1289C52.2497 63.0654 52.3892 63.0311 52.5414 63.0311C52.774 63.0311 53.0065 63.1109 53.1624 63.2436L55.1954 64.9759C55.3207 65.0821 55.3831 65.21 55.3725 65.3363C55.3614 65.451 55.2879 65.5546 55.1632 65.6264L52.98 66.8921C52.8701 66.9561 52.7328 66.9894 52.5821 66.9894C52.3544 66.9894 52.1255 66.9106 51.9707 66.7785L49.9366 65.0462C49.8103 64.9378 49.7442 64.8036 49.7559 64.6778C49.7659 64.5647 49.8377 64.4633 49.9582 64.3935Z" fill="#aaaaaa"/>
<path opacity="0.7" d="M42.845 68.5156L45.0281 67.251C45.1365 67.1876 45.2734 67.1543 45.4224 67.1543C45.6539 67.1543 45.8858 67.2346 46.0433 67.3688L48.0769 69.1017C48.2043 69.2095 48.2671 69.3379 48.2566 69.4637C48.246 69.5768 48.1725 69.6777 48.0499 69.7491L45.8668 71.0142C45.7564 71.0787 45.6163 71.1125 45.4625 71.1125C45.2332 71.1125 45.0054 71.0349 44.8516 70.9038L42.818 69.1709C42.6933 69.0642 42.6278 68.931 42.6384 68.8057C42.65 68.6895 42.7229 68.5864 42.845 68.5156Z" fill="#aaaaaa"/>
<path opacity="0.7" d="M50.2019 59.5104L52.385 58.2447C52.497 58.1803 52.6376 58.1454 52.7893 58.1454C53.017 58.1454 53.2485 58.2263 53.406 58.3605L55.4396 60.0923C55.5659 60.2006 55.6293 60.3285 55.6182 60.4532C55.6076 60.5679 55.5331 60.6704 55.4073 60.7439L53.2242 62.0096C53.1143 62.0725 52.9769 62.1068 52.8268 62.1068C52.598 62.1068 52.3696 62.0276 52.2148 61.8954L50.1812 60.1626C50.0507 60.0527 49.9862 59.9221 49.9968 59.7958C50.0068 59.6827 50.0803 59.5813 50.2019 59.5104Z" fill="#aaaaaa"/>
<path opacity="0.7" d="M62.4492 47.8529L64.6318 46.5877C64.7444 46.5222 64.8844 46.4883 65.0377 46.4883C65.2655 46.4883 65.4932 46.5666 65.647 46.6981L67.6811 48.4315C67.8074 48.5378 67.8729 48.672 67.8624 48.7967C67.8518 48.9109 67.7783 49.0144 67.6536 49.0858L65.47 50.3509C65.3627 50.4144 65.2258 50.4466 65.0763 50.4466C64.8448 50.4466 64.6122 50.3673 64.4548 50.2326L62.4223 48.5008C62.2949 48.3924 62.2315 48.2635 62.2426 48.1382C62.2532 48.0251 62.3261 47.9242 62.4492 47.8529Z" fill="#aaaaaa"/>
<path opacity="0.7" d="M58.649 54.7975L60.8316 53.5318C60.9426 53.4679 61.0815 53.4335 61.2343 53.4335C61.4652 53.4335 61.6962 53.5133 61.8526 53.647L63.8856 55.3788C64.0108 55.4856 64.0733 55.6135 64.0627 55.7398C64.0521 55.8555 63.9781 55.9591 63.8534 56.031L61.6703 57.2961C61.5588 57.3611 61.4197 57.3944 61.2654 57.3944C61.0371 57.3944 60.8078 57.3162 60.6546 57.1857L58.6215 55.4528C58.4931 55.3434 58.4292 55.2134 58.4397 55.0876C58.4508 54.9729 58.5243 54.8694 58.649 54.7975Z" fill="#aaaaaa"/>
<path opacity="0.7" d="M55.0913 56.858L57.275 55.5929C57.3844 55.53 57.5218 55.4962 57.6718 55.4962C57.9007 55.4962 58.1322 55.5765 58.2902 55.7113L60.3232 57.4431C60.4505 57.5514 60.5145 57.6803 60.5028 57.8056C60.4933 57.9187 60.4199 58.0207 60.2973 58.0915L58.1131 59.3572C58.0026 59.4211 57.8632 59.4555 57.7099 59.4555H57.7088C57.4805 59.4555 57.2522 59.3773 57.0979 59.2462L55.0644 57.5139C54.9365 57.405 54.872 57.275 54.8831 57.1482C54.8947 57.033 54.9681 56.9299 55.0913 56.858Z" fill="#aaaaaa"/>
<path opacity="0.7" d="M55.3354 51.9744L57.5185 50.7092C57.63 50.6453 57.7696 50.6109 57.9228 50.6109C58.1522 50.6109 58.3805 50.6886 58.5348 50.8202L60.5673 52.5525C60.6931 52.6588 60.7586 52.793 60.747 52.9182C60.7364 53.0335 60.6635 53.1365 60.5414 53.2079L58.3578 54.473C58.2484 54.5359 58.1099 54.5697 57.9577 54.5697C57.7252 54.5697 57.4926 54.4904 57.3367 54.3578L55.3037 52.6255C55.1785 52.5192 55.1156 52.3913 55.1267 52.265C55.1372 52.1498 55.2118 52.0468 55.3354 51.9744Z" fill="#aaaaaa"/>
<path opacity="0.7" d="M51.7793 54.0355L53.9619 52.7703C54.0719 52.7069 54.2098 52.6725 54.3609 52.6725C54.5887 52.6725 54.817 52.7518 54.9724 52.8845L57.0065 54.6168C57.1322 54.7241 57.1988 54.8583 57.1872 54.9841C57.1766 55.0972 57.1053 55.1981 56.9838 55.2689L54.8012 56.533C54.6918 56.5975 54.5533 56.6308 54.4011 56.6308C54.1686 56.6308 53.936 56.551 53.7801 56.4189L51.7471 54.686C51.6218 54.5793 51.5595 54.4514 51.5695 54.3261C51.5806 54.2109 51.6551 54.1084 51.7793 54.0355Z" fill="#aaaaaa"/>
<path opacity="0.7" d="M62.2045 52.7359L64.3877 51.4713C64.4981 51.4063 64.6376 51.373 64.7908 51.373C65.0213 51.373 65.2517 51.4522 65.4087 51.5854L67.4422 53.3183C67.567 53.425 67.6298 53.5529 67.6187 53.6782C67.6082 53.7944 67.5342 53.8975 67.4095 53.9694L65.2269 55.2345C65.1164 55.2974 64.979 55.3318 64.8289 55.3318C64.6001 55.3318 64.3718 55.253 64.217 55.1204L62.1834 53.388C62.0539 53.2786 61.9878 53.1471 61.9989 53.0213C62.0095 52.9087 62.0825 52.8078 62.2045 52.7359Z" fill="#aaaaaa"/>
<path opacity="0.7" d="M58.8926 49.9144L61.0746 48.6487C61.1861 48.5842 61.3262 48.5499 61.48 48.5499C61.7093 48.5499 61.9371 48.6281 62.0909 48.7592L64.1244 50.4915C64.2492 50.5977 64.3147 50.732 64.3031 50.8572C64.2925 50.9724 64.2201 51.0755 64.0975 51.1468L61.9133 52.412C61.8061 52.4743 61.6692 52.5076 61.5201 52.5076C61.2881 52.5076 61.0556 52.4284 60.8981 52.2936L58.8651 50.5613C58.7382 50.4529 58.6754 50.3245 58.6859 50.1993C58.6965 50.0867 58.7694 49.9852 58.8926 49.9144Z" fill="#aaaaaa"/>
<path opacity="0.7" d="M65.2734 60.4426L67.4566 59.1775C67.5654 59.1146 67.7038 59.0803 67.8571 59.0803C68.0896 59.0803 68.3217 59.159 68.4771 59.2916L70.5111 61.0245C70.6359 61.1312 70.7013 61.2639 70.6897 61.3907C70.6791 61.5059 70.6063 61.6085 70.4842 61.6793L68.3011 62.9455C68.1917 63.0073 68.0532 63.0417 67.9005 63.0417C67.6685 63.0417 67.4349 62.9629 67.2801 62.8292L65.2465 61.0974C65.1207 60.9907 65.0557 60.858 65.0668 60.7323C65.0784 60.6165 65.1503 60.514 65.2734 60.4426Z" fill="#aaaaaa"/>
<path opacity="0.7" d="M68.8295 58.3821L71.0121 57.1159C71.1215 57.053 71.2599 57.0197 71.4126 57.0197C71.6446 57.0197 71.8771 57.0985 72.033 57.2311L74.0666 58.964C74.1913 59.0702 74.2574 59.2045 74.2457 59.3302C74.2352 59.446 74.1617 59.548 74.0391 59.6199L71.8565 60.885C71.7487 60.9468 71.6124 60.9806 71.4623 60.9806C71.2314 60.9806 70.9989 60.9009 70.8419 60.7666L68.8078 59.0343C68.681 58.9265 68.6154 58.7917 68.6265 58.6659C68.6366 58.5518 68.7095 58.4514 68.8295 58.3821Z" fill="#aaaaaa"/>
<path opacity="0.7" d="M72.3861 56.3211L74.5687 55.0554C74.6797 54.9904 74.8187 54.9571 74.9714 54.9571C75.2018 54.9571 75.4333 55.0369 75.5897 55.1706L77.6232 56.9024C77.7495 57.0102 77.8161 57.145 77.8045 57.2697C77.7939 57.3833 77.721 57.4858 77.5963 57.5577L75.4137 58.8234C75.3054 58.8853 75.169 58.9191 75.0189 58.9191C74.788 58.9191 74.5555 58.8393 74.398 58.705L72.3655 56.9722C72.2381 56.8649 72.1715 56.7301 72.1832 56.6049C72.1927 56.4913 72.2656 56.3909 72.3861 56.3211Z" fill="#aaaaaa"/>
<path opacity="0.7" d="M61.7167 62.5037L63.8999 61.238C64.0072 61.1762 64.144 61.1424 64.2941 61.1424C64.5251 61.1424 64.7576 61.2221 64.915 61.3564L66.9476 63.0893C67.0749 63.1965 67.1415 63.3313 67.1299 63.4565C67.1193 63.5702 67.048 63.6711 66.9275 63.7403L64.7438 65.006C64.6344 65.07 64.495 65.1033 64.3433 65.1033C64.1113 65.1033 63.8782 65.0245 63.7228 64.8919L61.6898 63.159C61.564 63.0523 61.4995 62.9196 61.5101 62.7928C61.5207 62.677 61.5946 62.575 61.7167 62.5037Z" fill="#aaaaaa"/>
<path opacity="0.7" d="M61.9609 57.6206L64.144 56.3544C64.2534 56.292 64.3909 56.2577 64.5441 56.2577C64.7767 56.2577 65.0092 56.337 65.164 56.4696L67.1981 58.2019C67.3228 58.3081 67.3857 58.436 67.3751 58.5623C67.364 58.6781 67.2895 58.7811 67.1659 58.8535L64.9822 60.1182C64.8718 60.1827 64.7312 60.217 64.5779 60.217C64.3486 60.217 64.1203 60.1398 63.967 60.0077L61.9334 58.2754C61.8087 58.1692 61.7432 58.0355 61.7543 57.9097C61.7649 57.7939 61.8378 57.6914 61.9609 57.6206Z" fill="#aaaaaa"/>
<path opacity="0.7" d="M69.0736 53.498L71.2567 52.2328C71.3672 52.1684 71.5056 52.1346 71.6584 52.1346C71.8898 52.1346 72.1202 52.2143 72.2777 52.3481L74.3113 54.0804C74.4371 54.1882 74.501 54.3155 74.4899 54.4408C74.4788 54.5555 74.4048 54.658 74.2791 54.7309L72.0954 55.9961C71.986 56.0595 71.8487 56.0939 71.6975 56.0939C71.4697 56.0939 71.2414 56.0146 71.086 55.883L69.053 54.1501C68.9257 54.0423 68.8601 53.9081 68.8707 53.7823C68.8808 53.6692 68.9531 53.5683 69.0736 53.498Z" fill="#aaaaaa"/>
<path opacity="0.7" d="M65.5175 55.5591L67.7006 54.2939C67.8095 54.23 67.9485 54.1961 68.1007 54.1961C68.3327 54.1961 68.5658 54.2759 68.7217 54.4081L70.7547 56.1409C70.88 56.2477 70.9423 56.3755 70.9317 56.5008C70.9206 56.6165 70.8472 56.7196 70.7225 56.792L68.5388 58.0571C68.4294 58.1211 68.291 58.1549 68.142 58.1549C67.9131 58.1549 67.6848 58.0756 67.5289 57.943L65.4953 56.2117C65.369 56.1034 65.3025 55.9692 65.3146 55.8434C65.3247 55.7298 65.3965 55.6288 65.5175 55.5591Z" fill="#aaaaaa"/>
<path opacity="0.7" d="M58.4043 59.6806L60.5874 58.4154C60.6958 58.3531 60.8316 58.3198 60.9817 58.3198C61.2131 58.3198 61.4451 58.399 61.6031 58.5338L63.6362 60.2662C63.7636 60.3745 63.8264 60.5029 63.8159 60.6292C63.8053 60.7413 63.7318 60.8433 63.6098 60.9135L61.4261 62.1798C61.3157 62.2437 61.1756 62.2781 61.0213 62.2781C60.7925 62.2781 60.5642 62.1998 60.4109 62.0688L58.3773 60.3364C58.2526 60.2302 58.1876 60.097 58.1977 59.9713C58.2088 59.8545 58.2812 59.752 58.4043 59.6806Z" fill="#aaaaaa"/>
<path opacity="0.7" d="M65.7612 50.6754L67.9443 49.4103C68.0563 49.3453 68.1969 49.3109 68.3486 49.3109C68.5769 49.3109 68.8078 49.3907 68.9653 49.526L70.9989 51.2578C71.1252 51.3651 71.1886 51.4935 71.1775 51.6188C71.1669 51.7329 71.0929 51.836 70.9666 51.9089L68.7835 53.174C68.6736 53.238 68.5361 53.2723 68.3855 53.2723C68.1578 53.2723 67.9289 53.1926 67.7741 53.061L65.7405 51.3281C65.61 51.2176 65.545 51.0876 65.5561 50.9608C65.5656 50.8472 65.6391 50.7462 65.7612 50.6754Z" fill="#aaaaaa"/>
<path opacity="0.7" d="M56.0727 30.6029L58.2558 29.3377C58.3657 29.2749 58.5036 29.2405 58.6543 29.2405C58.882 29.2405 59.1114 29.3192 59.2652 29.4508L61.2988 31.1842C61.4261 31.2915 61.4927 31.4252 61.4811 31.5515C61.4705 31.6646 61.3991 31.7656 61.2776 31.8353L59.095 33.1005C58.9856 33.1639 58.8471 33.1977 58.6944 33.1977H58.6934C58.4614 33.1977 58.2294 33.1184 58.074 32.9853L56.0399 31.2535C55.9152 31.1467 55.8523 31.0188 55.8639 30.8936C55.8745 30.7778 55.9485 30.6743 56.0727 30.6029Z" fill="#aaaaaa"/>
<path opacity="0.7" d="M52.5161 32.664L54.6992 31.3978C54.8091 31.3349 54.9465 31.3005 55.0971 31.3005C55.3254 31.3005 55.5537 31.3798 55.7091 31.5119L57.7427 33.2442C57.8695 33.3526 57.9356 33.4863 57.9245 33.6121C57.9139 33.7246 57.8426 33.8256 57.721 33.8964L55.5379 35.1615C55.4275 35.2255 55.2879 35.2598 55.1363 35.2598C54.9053 35.2598 54.6749 35.1806 54.5174 35.0463L52.4833 33.3145C52.3575 33.2062 52.2941 33.0783 52.3047 32.9536C52.3153 32.8394 52.3908 32.7369 52.5161 32.664Z" fill="#aaaaaa"/>
<path opacity="0.7" d="M69.8109 32.1255L71.994 30.8598C72.1044 30.7964 72.2429 30.7615 72.3946 30.7615C72.626 30.7615 72.857 30.8418 73.015 30.975L75.0475 32.7073C75.1738 32.8157 75.2378 32.9435 75.2262 33.0683C75.2156 33.1829 75.1415 33.2855 75.0163 33.3589L72.8327 34.6236C72.7233 34.6875 72.5848 34.7208 72.4347 34.7208C72.2069 34.7208 71.9787 34.642 71.8228 34.5099L69.7892 32.7781C69.6629 32.6698 69.5963 32.5356 69.6079 32.4098C69.6174 32.2967 69.6898 32.1957 69.8109 32.1255Z" fill="#aaaaaa"/>
<path opacity="0.7" d="M66.4978 29.3029L68.681 28.0382C68.7931 27.9732 68.9326 27.9384 69.0853 27.9384C69.3136 27.9384 69.5445 28.0192 69.7015 28.1534L71.7345 29.8858C71.8619 29.9941 71.9247 30.122 71.9142 30.2462C71.9036 30.3609 71.8291 30.4639 71.7034 30.5374L69.5202 31.8026C69.4103 31.866 69.2729 31.9003 69.1228 31.9003C68.894 31.9003 68.6657 31.821 68.5108 31.6884L66.4773 29.9561C66.3467 29.8456 66.2817 29.7151 66.2928 29.5888C66.3023 29.4757 66.3752 29.3737 66.4978 29.3029Z" fill="#aaaaaa"/>
<path opacity="0.7" d="M63.1854 26.4808L65.3685 25.2151C65.4806 25.1496 65.6211 25.1158 65.7738 25.1158C66.0016 25.1158 66.2289 25.1945 66.3837 25.3267L68.4168 27.059C68.5441 27.1663 68.6097 27.3 68.5986 27.4247C68.5885 27.5394 68.515 27.6424 68.3908 27.7132L66.2067 28.9795C66.0994 29.0418 65.9626 29.0746 65.813 29.0746C65.5815 29.0746 65.349 28.9948 65.1915 28.8611L63.1584 27.1282C63.0311 27.0209 62.9671 26.892 62.9793 26.7667C62.9893 26.6531 63.0623 26.5522 63.1854 26.4808Z" fill="#aaaaaa"/>
<path opacity="0.7" d="M66.2532 34.187L68.4363 32.9214C68.5462 32.8585 68.6846 32.8252 68.8374 32.8252C69.0694 32.8252 69.3025 32.9039 69.4573 33.0366L71.4909 34.7689C71.6156 34.8756 71.679 35.0035 71.6679 35.1298C71.6568 35.2445 71.5828 35.3476 71.4586 35.42L69.276 36.6851C69.1661 36.7491 69.0282 36.7824 68.8781 36.7824C68.6492 36.7824 68.422 36.7036 68.2661 36.5715L66.2325 34.8397C66.1062 34.7314 66.0397 34.5966 66.0508 34.4714C66.0608 34.3572 66.1332 34.2563 66.2532 34.187Z" fill="#aaaaaa"/>
<path opacity="0.7" d="M66.0101 39.0707L68.1927 37.8055C68.3005 37.7421 68.4374 37.7093 68.5864 37.7093C68.8179 37.7093 69.0509 37.7891 69.2079 37.9234L71.241 39.6557C71.3683 39.764 71.4344 39.8983 71.4233 40.024C71.4127 40.1371 71.3408 40.2375 71.2198 40.3078L69.0367 41.573C68.9278 41.6364 68.7894 41.6697 68.6366 41.6697C68.4041 41.6697 68.1715 41.5904 68.0167 41.4578L65.9831 39.726C65.8573 39.6192 65.7924 39.4855 65.8035 39.3603C65.814 39.2445 65.8864 39.142 66.0101 39.0707Z" fill="#aaaaaa"/>
<path opacity="0.7" d="M73.1223 34.948L75.3054 33.6829C75.4164 33.6189 75.5553 33.5846 75.7076 33.5846C75.9385 33.5846 76.17 33.6639 76.3264 33.7981L78.36 35.531C78.4863 35.6382 78.5524 35.7719 78.5413 35.8967C78.5307 36.0108 78.4577 36.1139 78.333 36.1852L76.1499 37.4504C76.0416 37.5138 75.9058 37.546 75.7557 37.546C75.5242 37.546 75.2922 37.4667 75.1347 37.3325L73.1006 35.6002C72.9738 35.4919 72.9083 35.3571 72.9199 35.2318C72.9299 35.1188 73.0023 35.0183 73.1223 34.948Z" fill="#aaaaaa"/>
<path opacity="0.7" d="M69.5662 37.0096L71.7493 35.7444C71.8587 35.681 71.9972 35.6467 72.1499 35.6467C72.3819 35.6467 72.6144 35.7254 72.7703 35.8591L74.8034 37.5915C74.9286 37.6982 74.9936 37.8319 74.9825 37.9572C74.9725 38.0734 74.899 38.1754 74.7764 38.2468L72.5933 39.5119C72.4855 39.5743 72.3497 39.6076 72.1996 39.6076C71.9681 39.6076 71.7361 39.5283 71.5781 39.3936L69.5445 37.6617C69.4177 37.5534 69.3522 37.4186 69.3633 37.2934C69.3733 37.1803 69.4462 37.0788 69.5662 37.0096Z" fill="#aaaaaa"/>
<path opacity="0.7" d="M62.6976 36.2481L64.8802 34.9824C64.9886 34.9195 65.1249 34.8867 65.275 34.8867C65.5065 34.8867 65.738 34.9665 65.896 35.1007L67.9295 36.8331C68.0564 36.9414 68.1198 37.0698 68.1092 37.1951C68.0986 37.3087 68.0252 37.4102 67.9026 37.481L65.7195 38.7456C65.609 38.8106 65.4684 38.845 65.3152 38.845C65.0858 38.845 64.8575 38.7673 64.7032 38.6357L62.6702 36.9039C62.5449 36.7971 62.4799 36.6634 62.491 36.5377C62.5021 36.4214 62.5745 36.3194 62.6976 36.2481Z" fill="#aaaaaa"/>
<path opacity="0.7" d="M62.454 41.1306L64.6371 39.8665C64.7443 39.8031 64.8813 39.7693 65.0314 39.7693C65.2623 39.7693 65.4948 39.8501 65.6523 39.9844L67.6848 41.7167C67.8122 41.824 67.8777 41.9587 67.8671 42.084C67.8566 42.1971 67.7852 42.298 67.6637 42.3688L65.4805 43.6329C65.369 43.6979 65.2306 43.7312 65.0789 43.7312C64.848 43.7312 64.6165 43.6525 64.4601 43.5188L62.426 41.7859C62.2997 41.6781 62.2341 41.545 62.2447 41.4202C62.2553 41.3056 62.3292 41.2036 62.454 41.1306Z" fill="#aaaaaa"/>
<path opacity="0.7" d="M62.9418 31.3639L65.1249 30.0988C65.2354 30.0348 65.3749 30.0005 65.5276 30.0005C65.758 30.0005 65.9885 30.0803 66.1459 30.214L68.1784 31.9463C68.3042 32.0525 68.3665 32.1804 68.3554 32.3067C68.3454 32.4225 68.2715 32.525 68.1467 32.5979L65.9631 33.8625C65.8537 33.9265 65.7163 33.9598 65.5652 33.9598C65.3363 33.9598 65.1086 33.881 64.9542 33.7489L62.9201 32.0166C62.7901 31.9061 62.7251 31.7756 62.7362 31.6493C62.7463 31.5362 62.8187 31.4353 62.9418 31.3639Z" fill="#aaaaaa"/>
<path opacity="0.7" d="M59.3846 33.425L61.5683 32.1593C61.6771 32.0969 61.815 32.0626 61.964 32.0626C62.1939 32.0626 62.4254 32.1429 62.5834 32.2782L64.6165 34.0105C64.7438 34.1189 64.8067 34.2468 64.7956 34.3725C64.7856 34.4856 64.7132 34.5876 64.59 34.6579L62.4069 35.9236C62.2959 35.9881 62.1554 36.0214 62.0021 36.0214C61.7727 36.0214 61.5444 35.9442 61.3912 35.8126L59.3576 34.0798C59.2292 33.9709 59.1648 33.8409 59.1764 33.7146C59.1864 33.5994 59.2614 33.4963 59.3846 33.425Z" fill="#aaaaaa"/>
<path opacity="0.7" d="M55.8285 35.4865L58.0122 34.2214C58.1216 34.1574 58.258 34.1236 58.4091 34.1236C58.6379 34.1236 58.8694 34.2045 59.0274 34.3397L61.0604 36.0721C61.1873 36.1799 61.2507 36.3088 61.2401 36.4341C61.23 36.5472 61.1561 36.6481 61.0335 36.7194L58.8503 37.9846C58.7378 38.0496 58.5972 38.084 58.4445 38.084C58.2178 38.084 57.99 38.0052 57.8351 37.8742L55.8016 36.1418C55.6716 36.0314 55.6071 35.9009 55.6177 35.7756C55.6293 35.6615 55.7033 35.5584 55.8285 35.4865Z" fill="#aaaaaa"/>
<path opacity="0.7" d="M59.6287 28.5419L61.8119 27.2762C61.9223 27.2123 62.0634 27.1779 62.2167 27.1779C62.4465 27.1779 62.6743 27.2561 62.8281 27.3867L64.8606 29.1201C64.9864 29.2268 65.0519 29.36 65.0403 29.4858C65.0297 29.6004 64.9568 29.703 64.8337 29.7754L62.6506 31.0395C62.5422 31.1024 62.4064 31.1357 62.2563 31.1357C62.0248 31.1357 61.7928 31.0559 61.6354 30.9211L59.6023 29.1893C59.4755 29.0809 59.4115 28.9531 59.4221 28.8268C59.4332 28.7137 59.5067 28.6127 59.6287 28.5419Z" fill="#aaaaaa"/>
<path opacity="0.7" d="M59.141 38.3086L61.3241 37.0439C61.4324 36.9811 61.5682 36.9478 61.7183 36.9478C61.9493 36.9478 62.1818 37.0281 62.3393 37.1623L64.3728 38.8941C64.4991 39.0025 64.5631 39.1309 64.5525 39.2567C64.542 39.3703 64.4685 39.4712 64.3459 39.542L62.1628 40.8072C62.0497 40.8733 61.9096 40.9071 61.7569 40.9071C61.5302 40.9071 61.3019 40.8278 61.1465 40.6967L59.114 38.9639C58.9867 38.8566 58.9211 38.7229 58.9327 38.5977C58.9423 38.483 59.0168 38.3799 59.141 38.3086Z" fill="#aaaaaa"/>
<path opacity="0.7" d="M77.5826 38.6468L79.7657 37.3811C79.8782 37.3167 80.0183 37.2818 80.1705 37.2818C80.3988 37.2818 80.626 37.36 80.7809 37.4921L82.8139 39.2245C82.9412 39.3323 83.0062 39.4665 82.9957 39.5912C82.9851 39.7048 82.9112 39.8079 82.7875 39.8798L80.6038 41.1449C80.4955 41.2073 80.3597 41.2411 80.2101 41.2411C79.9786 41.2411 79.7461 41.1603 79.5887 41.0266L77.5551 39.2947C77.4283 39.1864 77.3643 39.0575 77.3759 38.9322C77.3865 38.8196 77.4589 38.7187 77.5826 38.6468Z" fill="#aaaaaa"/>
<path opacity="0.7" d="M73.7818 45.5915L75.9649 44.3269C76.0749 44.2624 76.2149 44.2286 76.3671 44.2286C76.5975 44.2286 76.829 44.3068 76.9854 44.4415L79.0184 46.1739C79.1442 46.2801 79.2066 46.408 79.1955 46.5332C79.1849 46.65 79.111 46.7526 78.9868 46.8244L76.8036 48.0906C76.6921 48.1546 76.5521 48.1889 76.3988 48.1889C76.1695 48.1889 75.9412 48.1113 75.7879 47.9797L73.7538 46.2473C73.6259 46.1385 73.562 46.009 73.5731 45.8816C73.5831 45.7664 73.6576 45.6639 73.7818 45.5915Z" fill="#aaaaaa"/>
<path opacity="0.7" d="M70.2252 47.6526L72.4078 46.3874C72.5177 46.3234 72.6557 46.2902 72.8047 46.2902C73.0346 46.2902 73.265 46.3705 73.4235 46.5058L75.457 48.2381C75.5839 48.3465 75.6473 48.4749 75.6368 48.6001C75.6262 48.7132 75.5538 48.8142 75.4301 48.8855L73.247 50.1512C73.1361 50.2157 72.996 50.25 72.8427 50.25C72.6139 50.25 72.3861 50.1713 72.2307 50.0407L70.1977 48.3084C70.0698 48.1995 70.0059 48.069 70.017 47.9427C70.0281 47.8275 70.1016 47.725 70.2252 47.6526Z" fill="#aaaaaa"/>
<path opacity="0.7" d="M70.4693 42.7694L72.6524 41.5038C72.764 41.4398 72.9029 41.4055 73.0567 41.4055C73.286 41.4055 73.5144 41.4826 73.6682 41.6142L75.7012 43.3476C75.8269 43.4533 75.8914 43.587 75.8808 43.7133C75.8703 43.829 75.7968 43.9316 75.6742 44.0018L73.4911 45.2681C73.3822 45.3304 73.2438 45.3648 73.0911 45.3648C72.8591 45.3648 72.626 45.286 72.4701 45.1523L70.4365 43.42C70.3118 43.3143 70.2484 43.1854 70.2606 43.0601C70.2706 42.9449 70.3446 42.8413 70.4693 42.7694Z" fill="#aaaaaa"/>
<path opacity="0.7" d="M66.9127 44.83L69.0958 43.5648C69.2057 43.5008 69.3431 43.4676 69.4938 43.4676C69.7215 43.4676 69.9503 43.5463 70.1052 43.6779L72.1393 45.4108C72.2661 45.5186 72.3316 45.6533 72.3211 45.7786C72.3105 45.8917 72.2386 45.9915 72.1166 46.0624L69.9345 47.3275C69.8256 47.3915 69.6861 47.4253 69.5339 47.4253C69.3014 47.4253 69.0694 47.3455 68.914 47.2134L66.8799 45.4805C66.7547 45.3738 66.6923 45.2459 66.7029 45.1201C66.7145 45.0054 66.789 44.9018 66.9127 44.83Z" fill="#aaaaaa"/>
<path opacity="0.7" d="M77.3384 43.5305L79.5216 42.2653C79.6315 42.2014 79.7715 42.167 79.9237 42.167C80.1552 42.167 80.3846 42.2463 80.5426 42.38L82.5751 44.1129C82.7009 44.2196 82.7632 44.3464 82.7521 44.4728C82.7416 44.5885 82.6676 44.6915 82.5434 44.7639L80.3603 46.0291C80.2503 46.0925 80.1119 46.1269 79.9618 46.1269C79.7329 46.1269 79.5057 46.0476 79.3498 45.915L77.3162 44.1826C77.1868 44.0722 77.1217 43.9416 77.1328 43.8164C77.1434 43.7028 77.2153 43.6013 77.3384 43.5305Z" fill="#aaaaaa"/>
<path opacity="0.7" d="M74.0254 40.7089L76.208 39.4427C76.3189 39.3787 76.4601 39.3444 76.6133 39.3444C76.8422 39.3444 77.071 39.4226 77.2243 39.5537L79.2573 41.2865C79.383 41.3933 79.4485 41.5265 79.4369 41.6522C79.4263 41.768 79.3529 41.8705 79.2303 41.9418L77.0472 43.207C76.9399 43.2694 76.803 43.3032 76.653 43.3032C76.4215 43.3032 76.1895 43.2234 76.032 43.0881L73.9985 41.3568C73.8722 41.2485 73.8082 41.1195 73.8187 40.9932C73.8293 40.8812 73.9028 40.7797 74.0254 40.7089Z" fill="#aaaaaa"/>
<path opacity="0.7" d="M80.4067 51.2366L82.5893 49.9715C82.6982 49.9081 82.8372 49.8748 82.9894 49.8748C83.2219 49.8748 83.4544 49.9535 83.6103 50.0861L85.6433 51.8185C85.7686 51.9252 85.8336 52.0589 85.8231 52.1852C85.8125 52.2999 85.739 52.4024 85.6164 52.4738L83.4333 53.7389C83.3239 53.8024 83.1854 53.8367 83.0332 53.8367C82.8007 53.8367 82.5681 53.7569 82.4122 53.6243L80.3787 51.8919C80.254 51.7852 80.189 51.6515 80.2001 51.5262C80.2107 51.411 80.2831 51.308 80.4067 51.2366Z" fill="#aaaaaa"/>
<path opacity="0.7" d="M83.9628 49.1756L86.1459 47.9105C86.2553 47.847 86.3938 47.8132 86.546 47.8132C86.7785 47.8132 87.011 47.8925 87.1669 48.0257L89.1999 49.7575C89.3252 49.8642 89.3908 49.9984 89.3791 50.1242C89.3686 50.2394 89.2956 50.3425 89.1724 50.4138L86.9904 51.6779C86.8821 51.7403 86.7452 51.7746 86.5961 51.7746C86.3647 51.7746 86.1317 51.6943 85.9752 51.5601L83.9406 49.8277C83.8143 49.7199 83.7488 49.5857 83.7593 49.4599C83.7699 49.3463 83.8418 49.2459 83.9628 49.1756Z" fill="#aaaaaa"/>
<path opacity="0.7" d="M87.5189 47.1151L89.702 45.8504C89.8125 45.7854 89.952 45.7511 90.1037 45.7511C90.3346 45.7511 90.5656 45.8304 90.723 45.9646L92.7566 47.6975C92.8829 47.8047 92.9484 47.9384 92.9378 48.0632C92.9273 48.1778 92.8538 48.2804 92.7286 48.3517L90.5465 49.6179C90.4382 49.6803 90.3013 49.7136 90.1523 49.7136C89.9208 49.7136 89.6888 49.6333 89.5313 49.4996L87.4978 47.7667C87.3704 47.6594 87.3049 47.5246 87.316 47.3994C87.326 47.2863 87.3984 47.1848 87.5189 47.1151Z" fill="#aaaaaa"/>
<path opacity="0.7" d="M76.8501 53.2982L79.0332 52.033C79.141 51.9702 79.2779 51.9369 79.428 51.9369C79.6589 51.9369 79.8904 52.0167 80.049 52.1509L82.0814 53.8832C82.2088 53.9916 82.2743 54.1253 82.2637 54.2516C82.2532 54.3647 82.1814 54.4651 82.0603 54.5354L79.8772 55.8005C79.7672 55.8639 79.6288 55.8972 79.4761 55.8972C79.2441 55.8972 79.012 55.819 78.8561 55.6853L76.8226 53.9535C76.6979 53.8467 76.6329 53.7131 76.6429 53.5878C76.6545 53.4721 76.7275 53.369 76.8501 53.2982Z" fill="#aaaaaa"/>
<path opacity="0.7" d="M77.0937 48.4146L79.2769 47.1489C79.3863 47.086 79.5248 47.0517 79.677 47.0517C79.9095 47.0517 80.142 47.1315 80.2979 47.2641L82.3315 48.9964C82.4562 49.1032 82.5196 49.2311 82.509 49.3569C82.498 49.4726 82.4234 49.5751 82.2997 49.6481L80.1166 50.9127C80.0056 50.9772 79.8656 51.0115 79.7123 51.0115C79.4824 51.0115 79.2546 50.9333 79.1014 50.8022L77.0673 49.0704C76.9421 48.9637 76.8771 48.83 76.8876 48.7042C76.8987 48.5885 76.9711 48.4854 77.0937 48.4146Z" fill="#aaaaaa"/>
<path opacity="0.7" d="M84.2065 44.293L86.3896 43.0268C86.5011 42.9629 86.6396 42.9285 86.7923 42.9285C87.0227 42.9285 87.2537 43.0083 87.4112 43.1426L89.4453 44.8744C89.5705 44.9822 89.6344 45.1101 89.6238 45.2353C89.6127 45.3495 89.5382 45.4525 89.4119 45.5254L87.2293 46.7906C87.1189 46.854 86.9815 46.8884 86.8314 46.8884C86.6036 46.8884 86.3743 46.8096 86.2195 46.6775L84.1859 44.9447C84.0596 44.8374 83.993 44.7026 84.0046 44.5763C84.0146 44.4627 84.086 44.3623 84.2065 44.293Z" fill="#aaaaaa"/>
<path opacity="0.7" d="M80.6498 46.3531L82.8329 45.0884C82.9418 45.0245 83.0813 44.9912 83.234 44.9912C83.466 44.9912 83.698 45.0699 83.8539 45.2026L85.8875 46.936C86.0122 47.0422 86.0756 47.1695 86.0645 47.2958C86.0534 47.4111 85.9794 47.5136 85.8552 47.586L83.6721 48.8522C83.5627 48.9151 83.4248 48.9494 83.2747 48.9494C83.0459 48.9494 82.8176 48.8697 82.6627 48.7375L80.6292 47.0057C80.5029 46.8979 80.4363 46.7637 80.4479 46.6374C80.458 46.5243 80.5298 46.4233 80.6498 46.3531Z" fill="#aaaaaa"/>
<path opacity="0.7" d="M73.5371 50.4757L75.7202 49.21C75.828 49.1476 75.9649 49.1143 76.1139 49.1143C76.3454 49.1143 76.5785 49.1941 76.7354 49.3283L78.7685 51.0607C78.8958 51.1685 78.9598 51.2974 78.9487 51.4227C78.9381 51.5363 78.8652 51.6372 78.742 51.7086L76.5594 52.9732C76.4479 53.0382 76.3084 53.0715 76.1541 53.0715C75.9258 53.0715 75.6975 52.9944 75.5442 52.8628L73.5096 51.131C73.3849 51.0242 73.3199 50.8905 73.331 50.7647C73.3421 50.649 73.415 50.547 73.5371 50.4757Z" fill="#aaaaaa"/>
<path opacity="0.7" d="M80.894 41.4699L83.0771 40.2042C83.1897 40.1392 83.3298 40.1043 83.4814 40.1043C83.7092 40.1043 83.9401 40.1852 84.0982 40.3205L86.1317 42.0528C86.2575 42.1601 86.3214 42.288 86.3109 42.4122C86.3003 42.5269 86.2252 42.6304 86.1 42.7034L83.9169 43.9691C83.807 44.033 83.669 44.0663 83.5189 44.0663C83.2901 44.0663 83.0623 43.987 82.9064 43.8544L80.8729 42.1221C80.7429 42.0116 80.6784 41.8816 80.6889 41.7548C80.699 41.6411 80.772 41.5402 80.894 41.4699Z" fill="#aaaaaa"/>
<path opacity="0.7" d="M71.205 21.3969L73.3891 20.1328C73.4985 20.0683 73.6365 20.035 73.7876 20.035C74.0154 20.035 74.2437 20.1127 74.3985 20.2448L76.4321 21.9777C76.5584 22.086 76.625 22.2197 76.6139 22.3455C76.6033 22.4586 76.532 22.5595 76.4099 22.6298L74.2279 23.8955C74.119 23.9584 73.9795 23.9917 73.8278 23.9917H73.8267C73.5947 23.9917 73.3628 23.9129 73.2063 23.7803L71.1733 22.0485C71.0475 21.9412 70.9851 21.8133 70.9962 21.687C71.0073 21.5723 71.0813 21.4682 71.205 21.3969Z" fill="#aaaaaa"/>
<path opacity="0.7" d="M67.6499 23.4579L69.833 22.1928C69.9429 22.1294 70.0804 22.095 70.2305 22.095C70.4588 22.095 70.6876 22.1737 70.8424 22.3069L72.876 24.0387C73.0023 24.146 73.0689 24.2808 73.0583 24.406C73.0477 24.5196 72.9759 24.6206 72.8543 24.6909L70.6717 25.9555C70.5602 26.0205 70.4213 26.0543 70.2691 26.0543C70.0381 26.0543 69.8077 25.9745 69.6502 25.8413L67.6171 24.1085C67.4908 24.0007 67.4269 23.8728 67.4385 23.7475C67.4491 23.6339 67.5231 23.5314 67.6499 23.4579Z" fill="#aaaaaa"/>
<path opacity="0.7" d="M84.9431 22.9199L87.1262 21.6548C87.2367 21.5908 87.3762 21.5565 87.5279 21.5565C87.7588 21.5565 87.9903 21.6357 88.1473 21.77L90.1808 23.5018C90.3071 23.609 90.3706 23.7369 90.3595 23.8622C90.3489 23.9763 90.2738 24.0799 90.1486 24.1528L87.9655 25.418C87.8555 25.4809 87.7182 25.5152 87.5681 25.5152C87.3403 25.5152 87.1109 25.4365 86.9561 25.3044L84.922 23.5715C84.7962 23.4642 84.7296 23.3295 84.7402 23.2042C84.7513 23.0911 84.8232 22.9897 84.9431 22.9199Z" fill="#aaaaaa"/>
<path opacity="0.7" d="M81.6312 20.0979L83.8138 18.8317C83.9258 18.7677 84.0664 18.7328 84.2186 18.7328C84.4464 18.7328 84.6773 18.8121 84.8353 18.9474L86.8683 20.6797C86.9957 20.787 87.0586 20.9149 87.047 21.0407C87.0364 21.1543 86.9624 21.2579 86.8372 21.3308L84.653 22.596C84.5441 22.6599 84.4057 22.6932 84.2556 22.6932C84.0273 22.6932 83.799 22.6145 83.6436 22.4824L81.61 20.7495C81.48 20.6396 81.4156 20.5085 81.4261 20.3833C81.4362 20.2691 81.5086 20.1676 81.6312 20.0979Z" fill="#aaaaaa"/>
<path opacity="0.7" d="M78.3187 17.2748L80.5013 16.0091C80.6144 15.9441 80.7545 15.9103 80.9072 15.9103C81.135 15.9103 81.3627 15.988 81.5176 16.1201L83.5501 17.8519C83.6769 17.9597 83.7425 18.0939 83.7314 18.2192C83.7219 18.3328 83.6479 18.4353 83.5231 18.5077L81.3405 19.7729C81.2322 19.8358 81.0959 19.8685 80.9458 19.8685C80.7143 19.8685 80.4823 19.7887 80.3253 19.6545L78.2918 17.9222C78.1639 17.8144 78.101 17.6854 78.1126 17.5602C78.1232 17.4471 78.1961 17.3461 78.3187 17.2748Z" fill="#aaaaaa"/>
<path opacity="0.7" d="M81.3871 24.9815L83.5702 23.7164C83.6791 23.6524 83.8185 23.6186 83.9702 23.6186C84.2033 23.6186 84.4353 23.6984 84.5912 23.8316L86.6237 25.5634C86.7495 25.6701 86.8119 25.798 86.8008 25.9233C86.7907 26.039 86.7162 26.142 86.592 26.2144L84.4089 27.4796C84.299 27.5425 84.1616 27.5768 84.0104 27.5768C83.7826 27.5768 83.5543 27.4981 83.3995 27.366L81.3659 25.6331C81.2386 25.5258 81.173 25.3911 81.1836 25.2658C81.1942 25.1522 81.2661 25.0513 81.3871 24.9815Z" fill="#aaaaaa"/>
<path opacity="0.7" d="M81.1429 29.8651L83.326 28.5989C83.4338 28.5365 83.5702 28.5038 83.7203 28.5038C83.9518 28.5038 84.1837 28.5836 84.3412 28.7173L86.3748 30.4502C86.5021 30.558 86.5677 30.6922 86.5566 30.8185C86.546 30.9316 86.4736 31.0315 86.3531 31.1018L84.1705 32.3675C84.0606 32.4298 83.9227 32.4642 83.77 32.4642H83.7694C83.5369 32.4642 83.3054 32.3854 83.1495 32.2517L81.1159 30.5194C80.9912 30.4132 80.9252 30.28 80.9374 30.1537C80.9474 30.0379 81.0203 29.9365 81.1429 29.8651Z" fill="#aaaaaa"/>
<path opacity="0.7" d="M88.2562 25.7425L90.4393 24.4774C90.5497 24.4129 90.6893 24.3791 90.8409 24.3791C91.0719 24.3791 91.3028 24.4589 91.4597 24.5915L93.4928 26.3244C93.6191 26.4322 93.6856 26.5654 93.6751 26.6901C93.6645 26.8048 93.5905 26.9078 93.4658 26.9797L91.2827 28.2449C91.1754 28.3078 91.0385 28.3411 90.889 28.3411C90.6575 28.3411 90.425 28.2613 90.2675 28.1265L88.2339 26.3936C88.1076 26.2863 88.0421 26.1521 88.0527 26.0263C88.0633 25.9138 88.1346 25.8128 88.2562 25.7425Z" fill="#aaaaaa"/>
<path opacity="0.7" d="M84.6995 27.8041L86.8827 26.5379C86.9915 26.4744 87.1294 26.4412 87.2827 26.4412C87.5152 26.4412 87.7477 26.5204 87.9036 26.6536L89.9362 28.3859C90.0619 28.4916 90.1269 28.6264 90.1158 28.7516C90.1053 28.8674 90.0323 28.9699 89.9092 29.0412L87.7261 30.3064C87.6188 30.3688 87.4819 30.4026 87.3329 30.4026C87.1014 30.4026 86.8683 30.3228 86.7114 30.188L84.6773 28.4552C84.551 28.3479 84.4844 28.2137 84.496 28.0879C84.5066 27.9748 84.579 27.8733 84.6995 27.8041Z" fill="#aaaaaa"/>
<path opacity="0.7" d="M77.8305 27.042L80.0136 25.7763C80.1209 25.714 80.2583 25.6802 80.4073 25.6802C80.6388 25.6802 80.8713 25.761 81.0288 25.8947L83.0629 27.6276C83.1886 27.7359 83.2521 27.8638 83.2415 27.9901C83.2315 28.1027 83.1585 28.2042 83.0354 28.275L80.8528 29.5407C80.7413 29.6051 80.6007 29.639 80.4485 29.639C80.2181 29.639 79.9898 29.5608 79.8366 29.4297L77.8035 27.6973C77.6782 27.5906 77.6133 27.4574 77.6238 27.3317C77.6344 27.2154 77.7084 27.1134 77.8305 27.042Z" fill="#aaaaaa"/>
<path opacity="0.7" d="M77.5862 31.9251L79.7694 30.66C79.8777 30.5976 80.0135 30.5643 80.1636 30.5643C80.3951 30.5643 80.6271 30.6436 80.7846 30.7783L82.8181 32.5112C82.9445 32.6185 83.011 32.7532 82.9994 32.8785C82.9894 32.9916 82.9175 33.0925 82.7965 33.1623L80.6128 34.428C80.5024 34.4924 80.3629 34.5257 80.2112 34.5257C79.9803 34.5257 79.7493 34.4465 79.5918 34.3128L77.5593 32.5804C77.433 32.4731 77.3669 32.3389 77.378 32.2142C77.3886 32.1006 77.4621 31.9975 77.5862 31.9251Z" fill="#aaaaaa"/>
<path opacity="0.7" d="M78.0751 22.1579L80.2571 20.8933C80.3676 20.8288 80.5082 20.795 80.6604 20.795C80.8908 20.795 81.1212 20.8742 81.2782 21.0074L83.3117 22.7408C83.4375 22.8475 83.4993 22.9754 83.4887 23.1007C83.4776 23.2169 83.4037 23.3195 83.2795 23.3919L81.0964 24.6565C80.9875 24.7199 80.8491 24.7543 80.6979 24.7543C80.4702 24.7543 80.2419 24.6755 80.087 24.5434L78.0534 22.8105C77.924 22.7001 77.8579 22.5696 77.8695 22.4438C77.8796 22.3302 77.9525 22.2292 78.0751 22.1579Z" fill="#aaaaaa"/>
<path opacity="0.7" d="M74.5179 24.219L76.701 22.9538C76.8099 22.8904 76.9479 22.8571 77.098 22.8571C77.3273 22.8571 77.5582 22.9374 77.7162 23.0716L79.7498 24.805C79.8772 24.9128 79.9406 25.0413 79.9295 25.167C79.9189 25.2807 79.8465 25.3816 79.7228 25.4529L77.5402 26.7176C77.4293 26.7815 77.2892 26.8159 77.136 26.8159C76.9061 26.8159 76.6778 26.7382 76.524 26.6071L74.4909 24.8743C74.3631 24.7649 74.2986 24.6349 74.3097 24.5091C74.3203 24.3939 74.3937 24.2914 74.5179 24.219Z" fill="#aaaaaa"/>
<path opacity="0.7" d="M70.9613 26.2805L73.1444 25.0154C73.2543 24.9519 73.3912 24.9186 73.5413 24.9186C73.7712 24.9186 74.0016 24.999 74.1596 25.1332L76.1937 26.8655C76.3205 26.9739 76.384 27.1023 76.3729 27.2281C76.3623 27.3412 76.2893 27.4432 76.1667 27.514L73.9836 28.7786C73.87 28.8441 73.7305 28.879 73.5778 28.879C73.3505 28.879 73.1222 28.7997 72.9674 28.6676L70.9343 26.9358C70.8049 26.8254 70.7394 26.6954 70.751 26.5696C70.7616 26.456 70.836 26.3534 70.9613 26.2805Z" fill="#aaaaaa"/>
<path opacity="0.7" d="M74.7626 19.3358L76.9457 18.0701C77.0562 18.0062 77.1962 17.9719 77.3505 17.9719C77.5794 17.9719 77.8071 18.0501 77.9614 18.1811L79.9945 19.9129C80.1197 20.0197 80.1847 20.1534 80.1742 20.2792C80.1636 20.3949 80.0901 20.4969 79.9675 20.5682L77.7844 21.8339C77.6761 21.8958 77.5403 21.9296 77.3897 21.9296C77.1587 21.9296 76.9267 21.8498 76.7692 21.7156L74.7351 19.9832C74.6083 19.8749 74.5449 19.747 74.556 19.6212C74.5665 19.5081 74.6395 19.4067 74.7626 19.3358Z" fill="#aaaaaa"/>
<path opacity="0.7" d="M74.2749 29.1031L76.4575 27.8379C76.5653 27.7755 76.7016 27.7417 76.8512 27.7417C77.0826 27.7417 77.3152 27.8215 77.4727 27.9563L79.5057 29.6881C79.633 29.7964 79.696 29.9254 79.6854 30.0506C79.6754 30.1637 79.6024 30.2652 79.4793 30.336L77.2967 31.6022C77.1836 31.6667 77.0435 31.7016 76.8898 31.7016C76.663 31.7016 76.4353 31.6234 76.2804 31.4912L74.2469 29.7589C74.1206 29.6516 74.055 29.5169 74.0656 29.3921C74.0762 29.278 74.1496 29.1744 74.2749 29.1031Z" fill="#aaaaaa"/>
<path opacity="0.7" d="M42.0142 18.5273L44.1979 17.2632C44.3073 17.1993 44.4447 17.1654 44.5958 17.1654C44.8247 17.1654 45.0525 17.2436 45.2079 17.3758L47.2414 19.1086C47.3677 19.217 47.4343 19.3507 47.4232 19.4759C47.4126 19.589 47.3402 19.6899 47.2192 19.7608L45.0361 21.0259C44.9272 21.0888 44.7888 21.1226 44.636 21.1226C44.404 21.1226 44.1709 21.0439 44.0156 20.9107L41.9826 19.1789C41.8568 19.0722 41.7944 18.9437 41.8055 18.818C41.8161 18.7028 41.8906 18.5992 42.0142 18.5273Z" fill="#aaaaaa"/>
<path opacity="0.7" d="M38.4576 20.5884L40.6413 19.3232C40.7507 19.2603 40.888 19.226 41.0392 19.226C41.267 19.226 41.4952 19.3047 41.6511 19.4363L43.6842 21.1697C43.811 21.277 43.8766 21.4118 43.866 21.537C43.8565 21.6501 43.7841 21.751 43.6625 21.8213L41.4794 23.086C41.369 23.151 41.2294 23.1842 41.0778 23.1842C40.8468 23.1842 40.6164 23.1055 40.4589 22.9718L38.4259 21.2389C38.2986 21.1317 38.2356 21.0038 38.2462 20.878C38.2573 20.7649 38.3323 20.6613 38.4576 20.5884Z" fill="#aaaaaa"/>
<path opacity="0.7" d="M55.7524 20.0514L57.9356 18.7857C58.046 18.7218 58.1844 18.6874 58.3361 18.6874C58.5676 18.6874 58.7985 18.7667 58.956 18.901L60.9891 20.6328C61.1159 20.7406 61.1793 20.8685 61.1677 20.9937C61.1571 21.1079 61.0831 21.2109 60.9579 21.2838L58.7748 22.549C58.6649 22.6124 58.5274 22.6468 58.3763 22.6468C58.1485 22.6468 57.9202 22.568 57.7643 22.4359L55.7308 20.703C55.6045 20.5958 55.5384 20.461 55.5495 20.3358C55.5595 20.2216 55.6314 20.1207 55.7524 20.0514Z" fill="#aaaaaa"/>
<path opacity="0.7" d="M52.4394 17.2283L54.622 15.9626C54.7346 15.8987 54.8747 15.8633 55.0263 15.8633C55.2552 15.8633 55.4856 15.9431 55.6431 16.0784L57.6766 17.8102C57.8035 17.918 57.8663 18.0459 57.8558 18.1711C57.8452 18.2847 57.7701 18.3883 57.6449 18.4613L55.4618 19.7264C55.3519 19.7909 55.2144 19.8242 55.0638 19.8242C54.8355 19.8242 54.6072 19.7449 54.4524 19.6133L52.4183 17.8799C52.2883 17.7705 52.2233 17.639 52.2338 17.5137C52.2439 17.4001 52.3179 17.2986 52.4394 17.2283Z" fill="#aaaaaa"/>
<path opacity="0.7" d="M49.1275 14.4058L51.3106 13.1395C51.4232 13.0751 51.5637 13.0407 51.7165 13.0407C51.9437 13.0407 52.1715 13.1184 52.3258 13.2505L54.3593 14.9829C54.4862 15.0901 54.5517 15.2249 54.5406 15.3496C54.5301 15.4632 54.4572 15.5663 54.3324 15.6382L52.1488 16.9033C52.0415 16.9667 51.9046 16.9995 51.755 16.9995C51.5236 16.9995 51.2916 16.9197 51.1335 16.785L49.1006 15.0531C48.9737 14.9448 48.9103 14.8159 48.9209 14.6906C48.9325 14.578 49.0049 14.4771 49.1275 14.4058Z" fill="#aaaaaa"/>
<path opacity="0.7" d="M52.1964 22.1114L54.379 20.8468C54.4884 20.7828 54.6268 20.7495 54.7795 20.7495C55.0115 20.7495 55.2446 20.8283 55.3999 20.9609L57.433 22.6938C57.5588 22.8006 57.6211 22.929 57.61 23.0537C57.5994 23.1694 57.5255 23.273 57.4013 23.3449L55.2171 24.61C55.1082 24.6734 54.9698 24.7078 54.8197 24.7078C54.5919 24.7078 54.3636 24.6291 54.2077 24.4959L52.1742 22.7641C52.0479 22.6563 51.9813 22.522 51.9929 22.3963C52.003 22.2826 52.0748 22.1817 52.1964 22.1114Z" fill="#aaaaaa"/>
<path opacity="0.7" d="M51.9522 26.9951L54.1348 25.7299C54.2431 25.667 54.3789 25.6337 54.5295 25.6337C54.761 25.6337 54.993 25.7141 55.15 25.8483L57.1835 27.5811C57.3103 27.6884 57.3764 27.8227 57.3647 27.9484C57.3542 28.0621 57.2829 28.1625 57.1624 28.2322L54.9787 29.4979C54.8693 29.5608 54.7308 29.5952 54.5792 29.5952H54.5787C54.3461 29.5952 54.1147 29.5159 53.9588 29.3822L51.9247 27.6504C51.7994 27.5436 51.7344 27.4099 51.7455 27.2847C51.7566 27.1689 51.829 27.0669 51.9522 26.9951Z" fill="#aaaaaa"/>
<path opacity="0.7" d="M59.0644 22.8735L61.2475 21.6089C61.3585 21.5439 61.4974 21.5106 61.6491 21.5106C61.8801 21.5106 62.1115 21.5893 62.2685 21.723L64.3021 23.4559C64.4284 23.5631 64.4939 23.6969 64.4833 23.8216C64.4728 23.9363 64.3993 24.0388 64.2751 24.1112L62.092 25.3763C61.9847 25.4387 61.8478 25.472 61.6978 25.472C61.4663 25.472 61.2343 25.3917 61.0768 25.258L59.0432 23.5251C58.9169 23.4173 58.8503 23.2831 58.8619 23.1573C58.872 23.0447 58.9439 22.9427 59.0644 22.8735Z" fill="#aaaaaa"/>
<path opacity="0.7" d="M55.5088 24.934L57.6909 23.6689C57.8003 23.6054 57.9387 23.5721 58.0909 23.5721C58.3235 23.5721 58.556 23.6509 58.7119 23.7841L60.7455 25.5159C60.8702 25.6226 60.9357 25.7569 60.9241 25.8826C60.9135 25.9978 60.8416 26.1009 60.7174 26.1722L58.5354 27.4374C58.4271 27.4998 58.2912 27.533 58.1411 27.533C57.9096 27.533 57.6777 27.4527 57.5202 27.318L55.4866 25.5862C55.3603 25.4783 55.2937 25.3441 55.3054 25.2183C55.3159 25.1047 55.3878 25.0043 55.5088 24.934Z" fill="#aaaaaa"/>
<path opacity="0.7" d="M48.6397 24.1735L50.8228 22.9073C50.9301 22.8449 51.067 22.8116 51.2165 22.8116C51.448 22.8116 51.6805 22.892 51.838 23.0257L53.871 24.7585C53.9979 24.8669 54.0613 24.9948 54.0502 25.1211C54.0401 25.2342 53.9672 25.3351 53.8446 25.4064L51.661 26.6716C51.55 26.7366 51.4099 26.7699 51.2567 26.7699C51.0268 26.7699 50.799 26.6917 50.6447 26.5606L48.6117 24.8288C48.4864 24.7221 48.4214 24.5884 48.433 24.4626C48.4436 24.3463 48.5165 24.2443 48.6397 24.1735Z" fill="#aaaaaa"/>
<path opacity="0.7" d="M48.395 29.0566L50.5781 27.7915C50.686 27.7286 50.8228 27.6953 50.9729 27.6953C51.2044 27.6953 51.4364 27.7751 51.5939 27.9093L53.6274 29.6422C53.7537 29.75 53.8203 29.8842 53.8087 30.01C53.7981 30.1231 53.7262 30.224 53.6052 30.2938L51.4221 31.559C51.3111 31.6234 51.1721 31.6572 51.0204 31.6572C50.789 31.6572 50.5585 31.5774 50.4011 31.4437L48.3681 29.7119C48.2412 29.6041 48.1757 29.4699 48.1863 29.3452C48.1968 29.231 48.2714 29.1285 48.395 29.0566Z" fill="#aaaaaa"/>
<path opacity="0.7" d="M48.8833 19.2883L51.0665 18.0237C51.1769 17.9592 51.3164 17.9254 51.4686 17.9254C51.7001 17.9254 51.9305 18.0047 52.0875 18.1384L54.121 19.8712C54.2458 19.978 54.3086 20.1059 54.2981 20.2311C54.287 20.3469 54.2125 20.4499 54.0888 20.5223L51.9057 21.7875C51.7958 21.8509 51.6583 21.8852 51.5072 21.8852C51.2794 21.8852 51.0506 21.806 50.8963 21.6738L48.8622 19.941C48.7327 19.8305 48.6672 19.7 48.6783 19.5747C48.6878 19.4611 48.7618 19.3597 48.8833 19.2883Z" fill="#aaaaaa"/>
<path opacity="0.7" d="M45.3273 21.3504L47.5104 20.0847C47.6192 20.0213 47.7572 19.988 47.9062 19.988C48.1356 19.988 48.3676 20.0684 48.5256 20.2031L50.5592 21.936C50.6855 22.0443 50.7494 22.1722 50.7388 22.2985C50.7283 22.4116 50.6553 22.5125 50.5322 22.5839L48.3491 23.8491C48.2386 23.913 48.0975 23.9473 47.9443 23.9473C47.7154 23.9473 47.4871 23.8691 47.3334 23.7381L45.3003 22.0052C45.1714 21.8963 45.1074 21.7658 45.1185 21.6406C45.1285 21.5248 45.2025 21.4218 45.3273 21.3504Z" fill="#aaaaaa"/>
<path opacity="0.7" d="M41.7706 23.4109L43.9537 22.1458C44.0631 22.0824 44.2005 22.0491 44.3506 22.0491C44.5794 22.0491 44.8109 22.1294 44.9689 22.2642L47.0019 23.9965C47.1287 24.1048 47.1927 24.2332 47.1821 24.3585C47.1716 24.4716 47.0987 24.5725 46.975 24.6449L44.7924 25.9096C44.6793 25.9746 44.5392 26.0094 44.3865 26.0094C44.1598 26.0094 43.9315 25.9307 43.7767 25.7986L41.7436 24.0662C41.6142 23.9558 41.5486 23.8258 41.5597 23.7006C41.5708 23.5864 41.6448 23.4839 41.7706 23.4109Z" fill="#aaaaaa"/>
<path opacity="0.7" d="M45.5703 16.4674L47.754 15.2011C47.8644 15.1372 48.005 15.1028 48.1583 15.1028C48.3876 15.1028 48.6159 15.1811 48.7691 15.3121L50.8032 17.0445C50.9279 17.1512 50.9935 17.2844 50.9818 17.4102C50.9713 17.5259 50.8978 17.6284 50.7757 17.6998L48.5921 18.9649C48.4848 19.0273 48.3479 19.0606 48.1984 19.0606C47.9669 19.0606 47.7344 18.9808 47.5769 18.8466L45.5439 17.1147C45.4171 17.0064 45.3537 16.8775 45.3648 16.7522C45.3748 16.6396 45.4487 16.5371 45.5703 16.4674Z" fill="#aaaaaa"/>
<path opacity="0.7" d="M45.083 26.234L47.2656 24.9683C47.374 24.906 47.5109 24.8727 47.6604 24.8727C47.8919 24.8727 48.1244 24.9525 48.2808 25.0867L50.3149 26.8185C50.4423 26.9269 50.5052 27.0558 50.4941 27.1811C50.4835 27.2941 50.4116 27.3961 50.2874 27.4664L48.1049 28.7327C47.9923 28.7977 47.8517 28.832 47.699 28.832C47.4718 28.832 47.2435 28.7533 47.0886 28.6211L45.0561 26.8893C44.9292 26.7815 44.8638 26.6468 44.8749 26.522C44.8854 26.4084 44.9583 26.3059 45.083 26.234Z" fill="#aaaaaa"/>
<path opacity="0.7" d="M57.1481 9.32185L59.3312 8.05668C59.4406 7.99379 59.5786 7.95944 59.7297 7.95944C59.9575 7.95944 60.1857 8.03819 60.3406 8.17031L62.3741 9.90317C62.5015 10.0105 62.5676 10.1452 62.5559 10.2705C62.5454 10.3841 62.4741 10.485 62.3531 10.5542L60.1699 11.8199C60.061 11.8828 59.9215 11.9172 59.7698 11.9172H59.7688C59.5368 11.9172 59.3048 11.8384 59.1489 11.7047L57.1154 9.97239C56.9906 9.86564 56.9272 9.73775 56.9388 9.6125C56.9494 9.49729 57.0234 9.39425 57.1481 9.32185Z" fill="#aaaaaa"/>
<path opacity="0.7" d="M53.5915 11.3829L55.7746 10.1172C55.8846 10.0538 56.0219 10.0205 56.1731 10.0205C56.4008 10.0205 56.6286 10.0992 56.784 10.2313L58.8176 11.9631C58.9439 12.0715 59.0104 12.2052 58.9999 12.331C58.9893 12.4441 58.9174 12.545 58.7964 12.6153L56.6133 13.881C56.5028 13.9449 56.3633 13.9793 56.2106 13.9793C55.9802 13.9793 55.7492 13.8989 55.5923 13.7658L53.5588 12.0334C53.4325 11.9251 53.369 11.7972 53.3801 11.6725C53.3907 11.5583 53.4657 11.4558 53.5915 11.3829Z" fill="#aaaaaa"/>
<path opacity="0.7" d="M70.8858 10.8449L73.0689 9.57974C73.1799 9.5158 73.3184 9.48145 73.47 9.48145C73.701 9.48145 73.9324 9.56071 74.0899 9.69494L76.1229 11.4278C76.2492 11.5351 76.3132 11.663 76.3016 11.7882C76.291 11.9024 76.217 12.006 76.0907 12.0789L73.9076 13.344C73.7988 13.4069 73.6603 13.4413 73.5097 13.4413C73.2819 13.4413 73.0536 13.3625 72.8982 13.2299L70.8641 11.4976C70.7378 11.3892 70.6717 11.2555 70.6834 11.1292C70.6934 11.0156 70.7648 10.9157 70.8858 10.8449Z" fill="#aaaaaa"/>
<path opacity="0.7" d="M67.5728 8.02234L69.7559 6.75718C69.8684 6.69218 70.0074 6.65784 70.1602 6.65784C70.389 6.65784 70.6194 6.73815 70.7769 6.87238L72.81 8.60473C72.9368 8.71306 73.0002 8.84095 72.9886 8.96566C72.9785 9.08034 72.904 9.18341 72.7782 9.25633L70.5956 10.5215C70.4857 10.5849 70.3478 10.6193 70.1977 10.6193C69.9689 10.6193 69.7411 10.5405 69.5857 10.4073L67.5522 8.67554C67.4217 8.56456 67.3567 8.43402 67.3678 8.30772C67.3778 8.19463 67.4507 8.09368 67.5728 8.02234Z" fill="#aaaaaa"/>
<path opacity="0.7" d="M64.2614 5.19923L66.4445 3.9346C66.5565 3.86854 66.6966 3.83472 66.8504 3.83472C67.0771 3.83472 67.3048 3.91398 67.4597 4.0461L69.4922 5.77791C69.6195 5.88519 69.6851 6.0189 69.6745 6.14467C69.664 6.25882 69.59 6.36134 69.4653 6.43321L67.2821 7.69839C67.1748 7.76074 67.0379 7.79404 66.8879 7.79404C66.6569 7.79404 66.4244 7.7137 66.2675 7.58052L64.2344 5.84713C64.107 5.73985 64.0431 5.61091 64.0547 5.48566C64.0653 5.37151 64.1377 5.27058 64.2614 5.19923Z" fill="#aaaaaa"/>
<path opacity="0.7" d="M67.3286 12.906L69.5117 11.6408C69.6206 11.5774 69.7601 11.5441 69.9129 11.5441C70.1449 11.5441 70.3769 11.6228 70.5322 11.756L72.5663 13.4889C72.691 13.5946 72.754 13.7225 72.7434 13.8482C72.7323 13.964 72.6578 14.067 72.5341 14.1394L70.351 15.4051C70.241 15.468 70.1037 15.5024 69.9536 15.5024C69.7247 15.5024 69.4965 15.4226 69.3416 15.2905L67.308 13.5586C67.1812 13.4508 67.1152 13.3166 67.1257 13.1903C67.1358 13.0772 67.2087 12.9768 67.3286 12.906Z" fill="#aaaaaa"/>
<path opacity="0.7" d="M67.085 17.7896L69.2681 16.5244C69.3754 16.462 69.5123 16.4282 69.6618 16.4282C69.8933 16.4282 70.1258 16.508 70.2833 16.6423L72.3163 18.3756C72.4431 18.4829 72.5097 18.6177 72.4981 18.7429C72.4875 18.856 72.4162 18.9564 72.2947 19.0267L70.1121 20.2919C70.0027 20.3553 69.8642 20.3891 69.7115 20.3891C69.4795 20.3891 69.247 20.3099 69.0911 20.1767L67.058 18.4449C66.9328 18.3381 66.8678 18.2044 66.8784 18.0787C66.8889 17.964 66.9619 17.8609 67.085 17.7896Z" fill="#aaaaaa"/>
<path opacity="0.7" d="M74.1977 13.6685L76.3803 12.4023C76.4913 12.3384 76.6308 12.304 76.7825 12.304C77.0134 12.304 77.2449 12.3838 77.4013 12.5175L79.4343 14.2504C79.5617 14.3577 79.6273 14.4914 79.6167 14.6161C79.6061 14.7308 79.5321 14.8338 79.4079 14.9046L77.2253 16.1698C77.117 16.2332 76.9801 16.266 76.8305 16.266C76.5991 16.266 76.3671 16.1862 76.2101 16.0525L74.1755 14.3196C74.0492 14.2113 73.9837 14.077 73.9942 13.9513C74.0048 13.8382 74.0767 13.7372 74.1977 13.6685Z" fill="#aaaaaa"/>
<path opacity="0.7" d="M70.6416 15.7285L72.8247 14.4634C72.9336 14.4 73.072 14.3656 73.2248 14.3656C73.4568 14.3656 73.6899 14.4454 73.8452 14.5781L75.8782 16.3104C76.004 16.4171 76.0691 16.5508 76.058 16.6771C76.0474 16.7929 75.9745 16.8949 75.8513 16.9657L73.6682 18.2308C73.5609 18.2937 73.4246 18.327 73.275 18.327C73.0435 18.327 72.8115 18.2472 72.653 18.113L70.6194 16.3807C70.4931 16.2734 70.4276 16.1386 70.4382 16.0123C70.4487 15.8992 70.5201 15.7988 70.6416 15.7285Z" fill="#aaaaaa"/>
<path opacity="0.7" d="M63.7725 14.9675L65.9556 13.7024C66.064 13.6389 66.1998 13.6062 66.3499 13.6062C66.5814 13.6062 66.8134 13.686 66.9709 13.8207L69.0044 15.5525C69.1307 15.6609 69.1947 15.7898 69.1841 15.9151C69.1735 16.0276 69.1006 16.1296 68.9775 16.1999L66.7943 17.4661C66.6839 17.5301 66.5438 17.5639 66.3901 17.5639C66.1607 17.5639 65.9329 17.4862 65.7786 17.3546L63.7456 15.6228C63.6199 15.5161 63.5553 15.3824 63.5659 15.2571C63.5775 15.1414 63.6499 15.0383 63.7725 14.9675Z" fill="#aaaaaa"/>
<path opacity="0.7" d="M63.5289 19.8511L65.712 18.5854C65.8193 18.5236 65.9562 18.4898 66.1063 18.4898C66.3377 18.4898 66.5698 18.5696 66.7272 18.7038L68.7602 20.4361C68.8871 20.544 68.9531 20.6782 68.942 20.8045C68.9315 20.9165 68.8602 21.018 68.7386 21.0883L66.556 22.3534C66.4451 22.4174 66.3055 22.4517 66.1538 22.4517C65.9229 22.4517 65.6914 22.3719 65.535 22.2382L63.5009 20.5054C63.3752 20.3981 63.3091 20.2644 63.3202 20.1397C63.3307 20.025 63.4053 19.923 63.5289 19.8511Z" fill="#aaaaaa"/>
<path opacity="0.7" d="M64.0172 10.0834L66.1998 8.81769C66.3108 8.75427 66.4498 8.71939 66.6025 8.71939C66.8329 8.71939 67.0633 8.7992 67.2208 8.93291L69.2539 10.6652C69.3791 10.772 69.4415 10.8999 69.4309 11.0262C69.4203 11.1414 69.3463 11.245 69.2216 11.3168L67.038 12.582C66.9291 12.6454 66.7911 12.6787 66.6405 12.6787C66.4117 12.6787 66.1834 12.601 66.0291 12.4679L63.9955 10.736C63.865 10.6251 63.8005 10.4945 63.8111 10.3682C63.8217 10.2562 63.8941 10.1547 64.0172 10.0834Z" fill="#aaaaaa"/>
<path opacity="0.7" d="M60.4595 12.145L62.6437 10.8792C62.7525 10.8164 62.8894 10.782 63.0395 10.782C63.2689 10.782 63.5003 10.8623 63.6589 10.9976L65.6914 12.73C65.8187 12.8383 65.8822 12.9667 65.8711 13.092C65.8616 13.2056 65.7881 13.307 65.6655 13.3779L63.4824 14.6436C63.3709 14.7075 63.2308 14.7408 63.0771 14.7408C62.8477 14.7408 62.6194 14.6637 62.4661 14.5321L60.4326 12.8003C60.3047 12.6909 60.2407 12.5609 60.2513 12.434C60.2619 12.3193 60.3364 12.2168 60.4595 12.145Z" fill="#aaaaaa"/>
<path opacity="0.7" d="M56.9034 14.206L59.0876 12.9403C59.1964 12.8764 59.3344 12.8431 59.4845 12.8431C59.7128 12.8431 59.9442 12.9234 60.1028 13.0587L62.1353 14.791C62.2627 14.8988 62.3261 15.0278 62.315 15.153C62.3044 15.2667 62.232 15.3676 62.1084 15.4389L59.9258 16.7036C59.8132 16.7696 59.6726 16.8035 59.5199 16.8035C59.2926 16.8035 59.0644 16.7252 58.91 16.5931L56.8765 14.8613C56.747 14.7503 56.682 14.6198 56.6931 14.494C56.7042 14.3804 56.7782 14.2784 56.9034 14.206Z" fill="#aaaaaa"/>
<path opacity="0.7" d="M60.7036 7.26083L62.8868 5.99619C62.9978 5.93171 63.1389 5.89789 63.2921 5.89789C63.5209 5.89789 63.7498 5.97557 63.903 6.10663L65.936 7.8395C66.0613 7.94626 66.1268 8.07995 66.1152 8.2052C66.1046 8.32094 66.0317 8.42346 65.9091 8.49481L63.726 9.75944C63.6176 9.82233 63.4813 9.85615 63.3312 9.85615C63.1003 9.85615 62.8683 9.77529 62.7108 9.64211L60.6778 7.90872C60.5504 7.80039 60.4865 7.6725 60.4976 7.54672C60.5081 7.43363 60.5815 7.33164 60.7036 7.26083Z" fill="#aaaaaa"/>
<path opacity="0.7" d="M60.2159 17.028L62.399 15.7634C62.5073 15.7 62.6437 15.6662 62.7938 15.6662C63.0247 15.6662 63.2567 15.747 63.4142 15.8812L65.4473 17.6136C65.5751 17.7219 65.6385 17.8498 65.6274 17.9761C65.6169 18.0887 65.5439 18.1896 65.4208 18.261L63.2382 19.5267C63.1256 19.5922 62.9851 19.626 62.8319 19.626C62.6051 19.626 62.3768 19.5478 62.222 19.4157L60.1889 17.6828C60.0626 17.5755 59.9961 17.4418 60.0077 17.3171C60.0183 17.2024 60.0922 17.0999 60.2159 17.028Z" fill="#aaaaaa"/>
<path opacity="0.7" d="M92.7149 29.4413L94.898 28.1762C95.0106 28.1101 95.1511 28.0763 95.3039 28.0763C95.5316 28.0763 95.7594 28.1545 95.9143 28.2877L97.9468 30.0195C98.0736 30.1268 98.1391 30.261 98.128 30.3857C98.1175 30.5004 98.0445 30.6029 97.9198 30.6737L95.7367 31.94C95.6283 32.0023 95.4925 32.0361 95.3425 32.0361C95.111 32.0361 94.879 31.9553 94.7221 31.8221L92.688 30.0892C92.5611 29.9814 92.4977 29.8525 92.5093 29.7267C92.5199 29.6141 92.5928 29.5122 92.7149 29.4413Z" fill="#aaaaaa"/>
<path opacity="0.7" d="M88.9151 36.3865L91.0977 35.1203C91.2082 35.0569 91.3477 35.022 91.5009 35.022C91.7313 35.022 91.9618 35.1018 92.1193 35.236L94.1523 36.9684C94.277 37.0751 94.3404 37.2019 94.3293 37.3283C94.3182 37.444 94.2448 37.547 94.1201 37.6194L91.937 38.8846C91.8265 38.9491 91.6865 38.9829 91.5322 38.9829C91.3033 38.9829 91.0745 38.9052 90.9212 38.7736L88.8882 37.0408C88.7603 36.9319 88.6953 36.8024 88.7069 36.6761C88.7169 36.5609 88.7904 36.4579 88.9151 36.3865Z" fill="#aaaaaa"/>
<path opacity="0.7" d="M85.3585 38.4476L87.5417 37.1814C87.6516 37.118 87.7884 37.0847 87.9385 37.0847C88.1679 37.0847 88.3989 37.165 88.5569 37.2992L90.5904 39.0326C90.7167 39.1409 90.7812 39.2688 90.7701 39.3941C90.7595 39.5082 90.6866 39.6092 90.5635 39.6805L88.3809 40.9451C88.2699 41.0096 88.1298 41.0434 87.9766 41.0434H87.9756C87.7467 41.0434 87.519 40.9658 87.3646 40.8342L85.3316 39.1034C85.2037 38.993 85.1387 38.8635 85.1498 38.7372C85.1609 38.6209 85.2349 38.5184 85.3585 38.4476Z" fill="#aaaaaa"/>
<path opacity="0.7" d="M85.6016 33.5634L87.7852 32.2977C87.8962 32.2338 88.0357 32.1994 88.189 32.1994C88.4184 32.1994 88.6472 32.2776 88.8004 32.4087L90.8345 34.1405C90.9592 34.2473 91.0248 34.381 91.0132 34.5073C91.0031 34.622 90.9302 34.7245 90.8076 34.7958L88.6234 36.0615C88.5145 36.1244 88.3766 36.1588 88.2234 36.1588C87.9914 36.1588 87.7583 36.079 87.6029 35.9463L85.5699 34.214C85.4441 34.1072 85.3817 33.9793 85.3928 33.8536C85.4039 33.7383 85.4779 33.6358 85.6016 33.5634Z" fill="#aaaaaa"/>
<path opacity="0.7" d="M82.0455 35.6245L84.2297 34.3588C84.3386 34.2954 84.477 34.261 84.6271 34.261C84.8549 34.261 85.0831 34.3408 85.239 34.4729L87.2726 36.2047C87.4 36.3131 87.4655 36.4478 87.4539 36.5726C87.4444 36.6862 87.372 36.7866 87.2504 36.8569L85.0673 38.1226C84.9585 38.1854 84.82 38.2187 84.6673 38.2187C84.4353 38.2187 84.2022 38.14 84.0468 38.0074L82.0138 36.2745C81.888 36.1688 81.8256 36.0404 81.8367 35.9141C81.8478 35.7999 81.9218 35.6969 82.0455 35.6245Z" fill="#aaaaaa"/>
<path opacity="0.7" d="M92.4718 34.3255L94.6539 33.0598C94.7643 32.9959 94.9043 32.9615 95.0571 32.9615C95.2875 32.9615 95.5179 33.0418 95.6749 33.175L97.7085 34.9074C97.8332 35.0141 97.896 35.142 97.8855 35.2683C97.8744 35.3835 97.8004 35.486 97.6762 35.5584L95.4931 36.8236C95.3842 36.8876 95.2457 36.9208 95.0956 36.9208C94.8668 36.9208 94.6396 36.8432 94.4837 36.71L92.4496 34.9782C92.3201 34.8672 92.2556 34.7367 92.2657 34.6104C92.2752 34.4978 92.3492 34.3963 92.4718 34.3255Z" fill="#aaaaaa"/>
<path opacity="0.7" d="M89.1588 31.5024L91.3419 30.2377C91.4529 30.1727 91.5929 30.1394 91.7473 30.1394C91.9756 30.1394 92.2038 30.2166 92.3571 30.3482L94.3912 32.0811C94.5164 32.1878 94.5815 32.3215 94.5704 32.4467C94.5598 32.562 94.4869 32.6645 94.3643 32.7353L92.1811 34.001C92.0728 34.0634 91.9364 34.0972 91.7864 34.0972C91.5554 34.0972 91.3234 34.0168 91.1649 33.8826L89.1319 32.1503C89.005 32.0425 88.9416 31.9146 88.9521 31.7883C88.9627 31.6746 89.0362 31.5732 89.1588 31.5024Z" fill="#aaaaaa"/>
<path opacity="0.7" d="M95.5401 42.0317L97.7227 40.7665C97.8316 40.7031 97.9705 40.6687 98.1232 40.6687C98.3552 40.6687 98.5873 40.7485 98.7432 40.8806L100.777 42.6135C100.902 42.7203 100.968 42.854 100.956 42.9792C100.945 43.0949 100.873 43.1975 100.75 43.2688L98.5672 44.534C98.4578 44.5974 98.3193 44.6307 98.1666 44.6307C97.9346 44.6307 97.7021 44.5519 97.5462 44.4188L95.5121 42.687C95.3869 42.5802 95.3219 42.4465 95.333 42.3207C95.3441 42.2055 95.417 42.1025 95.5401 42.0317Z" fill="#aaaaaa"/>
<path opacity="0.7" d="M99.0967 39.9701L101.279 38.7049C101.388 38.6415 101.527 38.6072 101.679 38.6072C101.911 38.6072 102.145 38.687 102.301 38.8196L104.333 40.552C104.459 40.6587 104.524 40.7924 104.513 40.9177C104.502 41.0344 104.43 41.1359 104.306 41.2073L102.123 42.4724C102.016 42.5348 101.879 42.5686 101.73 42.5686C101.499 42.5686 101.266 42.4888 101.108 42.354L99.0745 40.6222C98.9482 40.5139 98.8816 40.3797 98.8933 40.2539C98.9033 40.1408 98.9757 40.0399 99.0967 39.9701Z" fill="#aaaaaa"/>
<path opacity="0.7" d="M102.653 37.909L104.835 36.6439C104.946 36.5799 105.086 36.5456 105.238 36.5456C105.468 36.5456 105.699 36.6254 105.856 36.7591L107.89 38.4909C108.016 38.5987 108.082 38.7329 108.071 38.8577C108.061 38.9718 107.987 39.0743 107.862 39.1462L105.679 40.4114C105.572 40.4748 105.435 40.5075 105.286 40.5075C105.054 40.5075 104.822 40.4277 104.664 40.2935L102.632 38.5612C102.504 38.4528 102.438 38.3186 102.449 38.1928C102.46 38.0798 102.532 37.9793 102.653 37.909Z" fill="#aaaaaa"/>
<path opacity="0.7" d="M91.9835 44.0917L94.1661 42.8276C94.2744 42.7641 94.4107 42.7308 94.5608 42.7308C94.7923 42.7308 95.0243 42.8112 95.1818 42.9454L97.2153 44.6777C97.3416 44.785 97.4082 44.9198 97.3966 45.0455C97.386 45.1581 97.3152 45.259 97.1937 45.3299L95.01 46.595C94.9011 46.6579 94.7627 46.6918 94.61 46.6918C94.378 46.6918 94.146 46.613 93.9901 46.4798L91.9565 44.747C91.8313 44.6407 91.7663 44.5076 91.7768 44.3823C91.7879 44.2666 91.8603 44.1641 91.9835 44.0917Z" fill="#aaaaaa"/>
<path opacity="0.7" d="M92.2276 39.2091L94.4108 37.9439C94.5196 37.8805 94.6581 37.8462 94.8108 37.8462C95.0433 37.8462 95.2758 37.9249 95.4317 38.0586L97.4643 39.7909C97.59 39.8972 97.6524 40.0256 97.6418 40.1508C97.6312 40.266 97.5573 40.3696 97.4325 40.442L95.2494 41.7072C95.1379 41.7711 94.9979 41.8055 94.8446 41.8055C94.6153 41.8055 94.3875 41.7283 94.2342 41.5967L92.2007 39.8644C92.0755 39.7576 92.0093 39.6239 92.021 39.4987C92.031 39.3819 92.105 39.2799 92.2276 39.2091Z" fill="#aaaaaa"/>
<path opacity="0.7" d="M99.3404 35.0865L101.523 33.8213C101.634 33.7574 101.773 33.723 101.925 33.723C102.156 33.723 102.388 33.8023 102.545 33.9365L104.578 35.6683C104.704 35.7767 104.767 35.9045 104.757 36.0293C104.746 36.1439 104.671 36.2465 104.546 36.3199L102.363 37.5846C102.253 37.6485 102.115 37.6818 101.964 37.6818C101.736 37.6818 101.508 37.6036 101.353 37.4715L99.3192 35.7391C99.1924 35.6308 99.1269 35.496 99.1374 35.3708C99.1469 35.2572 99.2199 35.1573 99.3404 35.0865Z" fill="#aaaaaa"/>
<path opacity="0.7" d="M95.7837 37.1476L97.9669 35.8824C98.0758 35.819 98.2142 35.7857 98.368 35.7857C98.6 35.7857 98.832 35.8644 98.9873 35.9976L101.021 37.7294C101.146 37.8362 101.209 37.964 101.197 38.0898C101.187 38.205 101.113 38.3086 100.989 38.3805L98.8055 39.6457C98.6956 39.7096 98.5572 39.7429 98.4082 39.7429C98.1793 39.7429 97.951 39.6647 97.7951 39.5325L95.7626 37.8002C95.6353 37.6919 95.5697 37.5571 95.5803 37.4319C95.5908 37.3188 95.6627 37.2173 95.7837 37.1476Z" fill="#aaaaaa"/>
<path opacity="0.7" d="M88.671 41.2691L90.8541 40.005C90.9614 39.9416 91.0983 39.9077 91.2478 39.9077C91.4793 39.9077 91.7118 39.9886 91.8693 40.1228L93.9024 41.8552C94.0297 41.9635 94.0937 42.0914 94.0815 42.2177C94.0715 42.3303 93.9991 42.4317 93.8759 42.5025L91.6928 43.7682C91.5813 43.8322 91.4413 43.8665 91.288 43.8665C91.0587 43.8665 90.8314 43.7883 90.6771 43.6573L88.6435 41.9244C88.5188 41.8176 88.4538 41.685 88.4644 41.5598C88.4749 41.443 88.5479 41.3404 88.671 41.2691Z" fill="#aaaaaa"/>
<path opacity="0.7" d="M96.0279 32.2639L98.21 30.9982C98.3236 30.9337 98.4626 30.8989 98.6148 30.8989C98.8431 30.8989 99.074 30.9792 99.232 31.1134L101.265 32.8458C101.391 32.9541 101.454 33.082 101.444 33.2067C101.433 33.3214 101.359 33.4239 101.233 33.4979L99.0497 34.7625C98.9408 34.8259 98.8018 34.8603 98.6517 34.8603C98.424 34.8603 98.1962 34.7805 98.0403 34.6484L96.0067 32.9166C95.8757 32.8056 95.8112 32.6751 95.8218 32.5493C95.8329 32.4362 95.9058 32.3352 96.0279 32.2639Z" fill="#aaaaaa"/>
<g opacity="0.1">
<path opacity="0.1" d="M61.7506 5.09991L16.5402 50.3103L11.2169 45.7094L37.7859 19.1399L61.7506 5.09991Z" fill="white"/>
</g>
<g opacity="0.1">
<path opacity="0.1" d="M90.7331 21.1824L40.7137 71.2029L29.2622 61.3051L79.2816 11.2862L90.7331 21.1824Z" fill="white"/>
</g>
<g opacity="0.1">
<path opacity="0.1" d="M101.156 30.1902L63.5188 67.827L49.7638 75.8857L98.1 27.5489L101.156 30.1902Z" fill="white"/>
</g>
</svg>
