<svg width="96" height="135" viewBox="0 0 96 135" fill="none" xmlns="http://www.w3.org/2000/svg">
<path d="M88.1995 99.7426C90.3291 97.6646 91.9854 95.2032 93.4051 92.4475C94.8248 89.6917 95.5347 87.0804 95.5347 85.0247L95.3217 29.5437C95.3106 26.6504 92.6241 26.0518 90.2555 28.4148L87.9629 30.7019L88.1995 99.7426Z" fill="#C9CEE2"/>
<path fill-rule="evenodd" clip-rule="evenodd" d="M9.54928 26.4881C6.83077 27.9004 4.41287 29.5388 2.39062 31.632L75.9855 38.2404C80.8612 38.6783 86.7455 34.7852 88.4835 30.5131H92.1339C93.5283 30.5131 94.6587 29.3828 94.6587 27.9884C94.6587 25.7573 92.8501 23.9487 90.6191 23.9487H86.1773C86.0509 23.9401 85.9211 23.9361 85.7882 23.9368L16.9159 24.3293C14.8603 24.3546 12.2678 25.0758 9.54928 26.4881Z" fill="#C9CEE2"/>
<path d="M12.2822 29.4883C6.75938 29.4883 2.28223 33.9654 2.28223 39.4883V91.7273C2.28223 97.2501 6.75937 101.727 12.2822 101.727H79.6193C85.1422 101.727 89.6193 97.2501 89.6193 91.7273V39.4883C89.6193 33.9654 85.1422 29.4883 79.6193 29.4883H12.2822Z" fill="#EFF8FF" stroke="#EFF8FF" stroke-width="2"/>
<path d="M0 39.1448C0 34.7265 3.58172 31.1448 8 31.1448H79.9629C84.3811 31.1448 87.9629 34.7265 87.9629 39.1448V93.3838C87.9629 97.8021 84.3811 101.384 79.9629 101.384H8C3.58172 101.384 0 97.802 0 93.3838V39.1448Z" fill="#283838"/>
<rect x="19" y="100" width="51" height="9" rx="2" fill="#283838"/>
<path d="M5.85693 85.6785C5.85693 87.099 7.17185 88.6521 8.37355 88.6511L80.3337 88.5893C81.0216 88.5887 81.4713 88.0567 81.4713 87.2436V48.092C81.4713 46.6715 80.1563 45.1183 78.9546 45.1194L6.99441 45.1863C6.30659 45.1869 5.85693 45.7189 5.85693 46.5319V85.6785Z" fill="#58676A"/>
<path d="M78.3499 63.0609L9.50526 63.5014L9.44585 47.1937L78.2904 46.7538L78.3499 63.0609Z" fill="#8D8C91"/>
<path d="M74.6084 60.8747L12 61.16V49.2576L74.5699 48.9721L74.6084 60.8747Z" fill="#CFD2D2"/>
<path d="M72.7856 58.9012L14 59.0292V51.3073L72.7671 51.1793L72.7856 58.9012Z" fill="#B0D7E5"/>
<path d="M49 54.9018L48 54.49V52.7165L49 52V54.9018ZM49 58L48 57.2821V55.4455L49 55.0858V58Z" fill="white"/>
<path d="M51.84 54.545L51 54.9032V52.8346L51.4159 52.4749L51.84 52.8346V54.545ZM54.4531 57.6321L54.025 58L51.1755 58L51.9858 57.2821L54.029 57.2821L54.4531 57.6321ZM54.8055 54.9966L54.0263 55.3205L51.9912 55.3123L51.2066 55.0007L52.0169 54.5889L54.0169 54.5889L54.8055 54.9966ZM54.4531 52.3665L54.025 52.7165L51.9818 52.7165L51.5537 52.3665L51.9818 52L54.025 52L54.4531 52.3665ZM55 54.9032L54.1614 54.545V52.8346L54.5773 52.4749L55 52.8346V54.9032ZM55 57.1572L54.5773 57.5154L54.1614 57.1572V55.51L55 55.0982V57.1572Z" fill="white"/>
<path d="M59.5714 52.3665L59.2349 52.7165L57.6349 52.7165L57 52L59.2317 52L59.5714 52.3665ZM59.5714 57.6321L59.2349 58L57.0032 58L57.6381 57.2821L59.2381 57.2821L59.5714 57.6321ZM59.8466 54.9952L59.2381 55.3274L57.636 55.3123L57.019 54.9828L57.6296 54.5944L59.2169 54.5944L59.8466 54.9952ZM60 54.9032L59.3428 54.4914V52.8442L59.6688 52.4846L60 52.8442V54.9032ZM60 57.1572L59.6688 57.5154L59.3428 57.1572V55.4468L60 55.0872V57.1572Z" fill="white"/>
<path d="M61.8395 54.4877L61 54.8997V52.8297L61.4177 52.4698L61.8395 52.8297V54.4877ZM61.8395 57.1607L61.4177 57.5192L61 57.1607V55.0893L61.8395 55.4492V57.1607ZM64.8134 54.9959L64.0335 55.3297L61.9814 55.3297L61.196 54.9959L62.0071 54.5948L64.0348 54.5948L64.8134 54.9959ZM64.8297 52L64.0294 52.717L61.9855 52.717L61.5556 52.3667L61.9855 52L64.8297 52ZM64.4593 57.6319L64.0294 58L61.9855 58L61.5556 57.6319L61.9855 57.2816L64.0294 57.2816L64.4593 57.6319ZM65 57.1566L64.5769 57.5151L64.1605 57.1566V55.4451L65 55.0852V57.1566Z" fill="white"/>
<path d="M23.4523 52.3681L23.0233 52.7184L20 52.7184L20.9794 52L23.0192 52L23.4523 52.3681ZM20.8418 57.1571L20.4196 57.5156L20.0041 57.1571V55.0869L20.8418 55.4468V57.1571ZM23.8098 54.9966L23.0233 55.3127L20.9821 55.3291L20.201 54.9952L20.9808 54.5943L23.0044 54.5943L23.8098 54.9966ZM24 58L20.9794 58L20.5518 57.6319L20.9794 57.2816L23.1946 57.2816L24 58ZM24 54.9035L23.1622 54.493V52.8402L23.5777 52.4816L24 52.8402V54.9035Z" fill="white"/>
<path d="M25.6292 54.487L25 54.8974V52.8276L25.3121 52.4692L25.6292 52.8276V54.487ZM25.6292 57.1573L25.3121 57.5157L25 57.1573V55.0876L25.6292 55.4474V57.1573ZM27.8582 54.9945L27.2756 55.327L25.7376 55.327L25.151 54.9918L25.7589 54.5924L27.2604 54.5924L27.8582 54.9945ZM27.5947 52.368L27.2725 52.7182L25.7356 52.7182L25.4144 52.368L25.7356 52L27.2675 52L27.5947 52.368ZM27.5947 57.632L27.2725 58L25.7356 58L25.4144 57.632L25.7356 57.2818L27.2675 57.2818L27.5947 57.632ZM28 54.9042L27.3708 54.4938V52.8413L27.6829 52.4829L28 52.8413V54.9042ZM28 57.1573L27.6829 57.5157L27.3708 57.1573V55.4474L28 55.0876V57.1573Z" fill="white"/>
<path d="M78.3499 83.4122L9.50526 83.8528L9.44585 67.545L78.2904 67.1051L78.3499 83.4122Z" fill="#8D8C91"/>
<path d="M2.84619 38.6591C2.84619 40.1332 4.21076 41.7449 5.45777 41.7438L84.5321 41.6701C85.2459 41.6695 85.7125 41.1175 85.7125 40.2738C85.7125 38.7997 84.3479 37.188 83.1009 37.1891L4.02654 37.2628C3.31279 37.2634 2.84619 37.8154 2.84619 38.6591Z" fill="#58676A"/>
<path d="M2.1897 93.9023C2.1897 95.3764 3.55426 96.9881 4.80128 96.9869L83.8756 96.9133C84.5894 96.9126 85.056 96.3606 85.056 95.5169C85.056 94.0429 83.6914 92.4311 82.4444 92.4323L3.37005 92.5059C2.6563 92.5066 2.1897 93.0586 2.1897 93.9023Z" fill="#58676A"/>
<path d="M18.2617 71.2155C19.4385 71.1772 20.5032 71.5686 21.276 72.2333L24.0588 74.6711L17.7846 79.9956L15.2485 77.8129C14.477 77.1487 14 76.2132 14 75.1618C13.9987 73.0575 15.9068 71.2915 18.2617 71.2155Z" fill="#283838"/>
<path d="M20.9298 73.5539C23.2859 73.4774 25.1965 75.1216 25.1965 77.2254C25.1965 79.3301 23.2859 81.0961 20.9298 81.1726C18.5749 81.2495 16.6643 79.6043 16.6643 77.5015C16.6656 75.3973 18.5749 73.6298 20.9298 73.5539Z" fill="#8D8C91"/>
<path d="M20.9302 74.6547C22.6054 74.601 23.9622 75.7685 23.9622 77.2657C23.9622 78.7611 22.6054 80.0176 20.9302 80.0713C19.2562 80.1266 17.8994 78.9581 17.8994 77.4618C17.8994 75.9655 19.2562 74.709 20.9302 74.6547Z" fill="#B8B4A9"/>
<path d="M20.9301 76.8056C21.275 76.7946 21.5557 77.0355 21.5557 77.3431C21.5557 77.6507 21.275 77.9093 20.9301 77.9212C20.5865 77.9327 20.3058 77.6918 20.3058 77.3842C20.3058 77.0756 20.5865 76.8171 20.9301 76.8056Z" fill="#8D8C91"/>
<path d="M27.4609 78.3798L26.6038 79.1715L24.0601 76.9915L24.916 76.1973L27.4609 78.3798Z" fill="#283838"/>
<path d="M24.4855 76.0521C24.8203 76.0418 25.0908 76.2746 25.0908 76.5734C25.0908 76.8723 24.819 77.1238 24.4855 77.1336C24.1507 77.1449 23.8801 76.9111 23.8801 76.6132C23.8801 76.3153 24.1519 76.0638 24.4855 76.0521Z" fill="#283838"/>
<path d="M27.0316 78.2342C27.3663 78.2239 27.6357 78.4562 27.6357 78.755C27.6357 79.0539 27.3651 79.3049 27.0316 79.3157C26.6955 79.3264 26.4262 79.0932 26.4262 78.7953C26.4262 78.4974 26.6955 78.2449 27.0316 78.2342Z" fill="#8D8C91"/>
</svg>
