<svg width="67" height="65" viewBox="0 0 67 65" fill="none" xmlns="http://www.w3.org/2000/svg">
<path fill-rule="evenodd" clip-rule="evenodd" d="M33.5 46.0417C45.8343 46.0417 55.8333 36.3412 55.8333 24.375C55.8333 12.4089 45.8343 2.70837 33.5 2.70837C21.1656 2.70837 11.1666 12.4089 11.1666 24.375C11.1666 36.3412 21.1656 46.0417 33.5 46.0417Z" fill="#FFA234"/>
<path opacity="0.4" fill-rule="evenodd" clip-rule="evenodd" d="M18.2523 24.375L29.5023 52.44L33.4328 50.9571L37.3371 52.4534L48.7711 24.375H18.2523ZM26.4142 29.7917H40.562L33.4324 47.2998L26.4142 29.7917Z" fill="white"/>
<path opacity="0.3" d="M27.9166 59.5833H39.0833V62.9999C39.0833 64.1045 38.1879 64.9999 37.0833 64.9999H29.9166C28.8121 64.9999 27.9166 64.1045 27.9166 62.9999V59.5833Z" fill="#303030"/>
<path fill-rule="evenodd" clip-rule="evenodd" d="M22.3334 45.3333C22.3334 44.2287 23.2288 43.3333 24.3334 43.3333H42.6667C43.7713 43.3333 44.6667 44.2287 44.6667 45.3333V46.7499C44.6667 47.8526 43.7743 48.7469 42.6723 48.7499C42.6704 48.7499 42.6686 48.7499 42.6667 48.7499H24.3334C24.3315 48.7499 24.3297 48.7499 24.3278 48.7499C23.2258 48.7469 22.3334 47.8526 22.3334 46.7499V45.3333ZM24.3278 48.7499C23.2258 48.7529 22.3334 49.6472 22.3334 50.7499V52.1666C22.3334 53.2711 23.2288 54.1666 24.3334 54.1666H42.6667C43.7713 54.1666 44.6667 53.2711 44.6667 52.1666V50.7499C44.6667 49.6472 43.7743 48.7529 42.6723 48.7499C42.6704 48.7499 42.6686 48.7499 42.6667 48.7499H24.3334C24.3315 48.7499 24.3297 48.7499 24.3278 48.7499ZM24.3334 54.1666C23.2288 54.1666 22.3334 55.062 22.3334 56.1666V57.5833C22.3334 58.6878 23.2288 59.5833 24.3334 59.5833H42.6667C43.7713 59.5833 44.6667 58.6878 44.6667 57.5833V56.1666C44.6667 55.062 43.7713 54.1666 42.6667 54.1666H24.3334Z" fill="#303030"/>
</svg>
