<svg width="94" height="252" viewBox="0 0 94 252" fill="none" xmlns="http://www.w3.org/2000/svg">
<path d="M7.47916 196.393L3.57935 191.886L0.940674 48.7733L4.84041 53.2754L7.47916 196.393Z" fill="#E0E2E2"/>
<path d="M4.84044 53.2751L0.940704 48.773L85.1111 49.1403L89.0109 53.6424L4.84044 53.2751Z" fill="#ECF0F1"/>
<path d="M89.0108 53.6423L91.6495 196.76L7.47911 196.392L4.84036 53.2749L89.0108 53.6423Z" fill="#D4D6D6"/>
<path d="M8.74999 202.186L4.85017 197.679L2.21143 54.562L6.11124 59.0683L8.74999 202.186Z" fill="#E0E2E2"/>
<path d="M6.11127 59.0682L2.21146 54.5619L86.3819 54.9293L90.2817 59.4355L6.11127 59.0682Z" fill="#ECF0F1"/>
<path d="M90.2817 59.4351L92.9204 202.552L8.74998 202.185L6.11124 59.0678L90.2817 59.4351Z" fill="#D4D6D6"/>
<path d="M23.0799 189.733L19.3381 185.409L17.2528 70.8376L20.9946 75.1617L23.0799 189.733Z" fill="#B27E4B"/>
<path d="M20.9948 75.1626L17.253 70.8386L76.523 70.522L80.2648 74.8461L20.9948 75.1626Z" fill="#BC874D"/>
<path d="M80.2643 74.8455L82.3495 189.417L23.0796 189.733L20.9943 75.1621L80.2643 74.8455Z" fill="#A87648"/>
<path d="M76.6466 79.2091L75.4343 79.2178L75.7438 96.1044L76.9793 97.3104L76.6466 79.2091Z" fill="#B27E4B"/>
<path d="M75.7433 96.1051L25.0822 96.3782L25.1053 97.5888L76.9787 97.3112L75.7433 96.1051Z" fill="#BC874D"/>
<path d="M77.0648 102.014L75.8525 102.018L76.1662 118.912L77.3975 120.115L77.0648 102.014Z" fill="#B27E4B"/>
<path d="M76.1664 118.911L25.5053 119.18L25.5284 120.394L77.3977 120.114L76.1664 118.911Z" fill="#BC874D"/>
<path d="M77.8397 145.425L76.6315 145.436L77.3402 183.889L78.5715 185.093L77.8397 145.425Z" fill="#B27E4B"/>
<path d="M77.3402 183.89L26.6791 184.159L26.7021 185.37L78.5715 185.094L77.3402 183.89Z" fill="#BC874D"/>
<path d="M75.7474 96.1083L73.9228 96.1177L63.5628 96.176L56.056 96.2089L29.8091 96.3519L25.0903 96.3754L24.7727 79.4924L38.4593 79.4103L64.7062 79.2672L72.213 79.2343L75.4295 79.2086L75.6812 92.6682L75.7474 96.1083Z" fill="#84DBFF"/>
<path d="M76.1706 118.918L62.2389 118.99L51.891 119.039L44.372 119.077L25.5012 119.178L25.2549 105.288L25.1957 102.29L26.7877 102.286L53.0223 102.136L60.5413 102.097L70.9015 102.056L75.8527 102.018L76.1706 118.918Z" fill="#84DBFF"/>
<path d="M77.3315 183.886L61.563 183.977L52.0112 184.024L45.0759 184.057L26.6744 184.153L26.478 173.182L25.9658 145.704L40.5383 145.622L64.7649 145.508L71.7 145.462L76.627 145.439L76.788 154.152L77.3315 183.886Z" fill="#84DBFF"/>
<path d="M75.8918 129.104C76.2082 129.102 76.4717 129.404 76.4788 129.775L76.554 133.871C76.561 134.242 76.3086 134.547 75.9922 134.548L63.2533 134.616C62.9288 134.618 62.6652 134.316 62.6582 133.945L62.5826 129.85C62.5759 129.478 62.8284 129.174 63.1529 129.172L75.8918 129.104Z" fill="#ECF0F1"/>
<g opacity="0.3">
<path opacity="0.3" d="M64.765 145.509L45.076 184.058L26.6746 184.154L26.4781 173.183L40.5384 145.623L64.765 145.509Z" fill="#ECF0F1"/>
<path opacity="0.3" d="M76.7877 154.152L61.5628 183.977L52.0109 184.024L71.6997 145.462L76.6267 145.439L76.7877 154.152Z" fill="#ECF0F1"/>
</g>
<g opacity="0.3">
<path opacity="0.3" d="M53.0221 102.135L44.3718 119.077L25.501 119.178L25.2547 105.288L26.7875 102.286L53.0221 102.135Z" fill="#ECF0F1"/>
<path opacity="0.3" d="M70.901 102.056L62.2384 118.991L51.8905 119.039L60.5408 102.098L70.901 102.056Z" fill="#ECF0F1"/>
</g>
<g opacity="0.3">
<path opacity="0.3" d="M64.707 79.2679L56.0567 96.2096L29.8098 96.3527L38.4601 79.411L64.707 79.2679Z" fill="#ECF0F1"/>
<path opacity="0.3" d="M75.6822 92.669L73.9237 96.1185L63.5638 96.1767L72.214 79.2351L75.4305 79.2093L75.6822 92.669Z" fill="#ECF0F1"/>
</g>
</svg>
