<svg width="108" height="165" viewBox="0 0 108 165" fill="none" xmlns="http://www.w3.org/2000/svg">
<path d="M102.761 44.4829C104.283 44.5616 105.55 45.0167 106.459 45.8114C107.368 46.606 107.893 47.7179 107.992 49.0567L107.908 115.349C107.908 117.887 105.526 119.963 102.636 119.981L53.2311 107.959C51.7098 107.879 50.4437 107.423 49.535 106.629C48.6263 105.834 48.1005 104.723 48 103.386L4.08325 49.0933C4.08325 46.5554 6.46559 44.4796 9.35605 44.4616L102.761 44.4829Z" fill="#8D8C91"/>
<path d="M102 47.5901H6C4.34315 47.5901 3 48.9332 3 50.5901V117.59C3 119.247 4.34315 120.59 6 120.59H102C103.657 120.59 105 119.247 105 117.59V50.5901C105 48.9332 103.657 47.5901 102 47.5901Z" fill="#283838"/>
<path d="M99.3367 51.9902H10.0792C8.42237 51.9902 7.07922 53.3334 7.07922 54.9902V113.246C7.07922 114.903 8.42236 116.246 10.0792 116.246H99.3367C100.994 116.246 102.337 114.903 102.337 113.246V54.9902C102.337 53.3334 100.994 51.9902 99.3367 51.9902Z" fill="#ADADAD"/>
<rect x="15" y="58" width="5.72569" height="10.6334" rx="2" fill="white"/>
<rect x="15.818" y="58.8179" width="4.08978" height="6.54364" rx="1" fill="#11984B"/>
<path d="M20.9302 69.6558L19.7033 66.1794H15.818L17.2494 69.6558H20.9302Z" fill="black"/>
<path d="M17.2494 71.7009V69.656H20.9302V71.7009H17.2494Z" fill="#454A4D"/>
<path d="M15.818 68.2243V66.1794L17.2494 69.6558V71.7006L15.818 68.2243Z" fill="#313234"/>
<rect x="32.1771" y="58" width="5.72569" height="10.6334" rx="2" fill="white"/>
<rect x="32.9951" y="58.8179" width="4.08978" height="6.54364" rx="1" fill="#11984B"/>
<path d="M38.1073 69.6558L36.8804 66.1794H32.9951L34.4265 69.6558H38.1073Z" fill="black"/>
<path d="M34.4265 71.7009V69.656H38.1073V71.7009H34.4265Z" fill="#454A4D"/>
<path d="M32.9951 68.2243V66.1794L34.4265 69.6558V71.7006L32.9951 68.2243Z" fill="#313234"/>
<rect x="15" y="78" width="83" height="33" rx="1" fill="#C4C4C4"/>
<rect x="16.1647" y="79.553" width="20.9647" height="29.8941" rx="1" fill="#7A3C09"/>
<rect x="39" y="80" width="19" height="29" rx="1" fill="#7A3C09"/>
<rect width="5.43529" height="10.0941" rx="2" transform="matrix(1 0 0 -1 23.9294 101.1)" fill="#C4C4C4"/>
<rect width="3.88235" height="6.21176" rx="1" transform="matrix(1 0 0 -1 24.7059 100.323)" fill="#D8000B"/>
<path d="M29.5589 90.0352L28.3942 93.3352H24.7059L26.0648 90.0352H29.5589Z" fill="black"/>
<path d="M26.0648 88.0942V90.0354H29.5589V88.0942H26.0648Z" fill="#454A4D"/>
<path d="M24.7059 91.394V93.3352L26.0648 90.0352V88.094L24.7059 91.394Z" fill="#313234"/>
<rect width="5.43529" height="10.0941" rx="2" transform="matrix(1 0 0 -1 45 101.006)" fill="#C4C4C4"/>
<rect width="3.88235" height="6.21176" rx="1" transform="matrix(1 0 0 -1 45.7765 100.229)" fill="#D8000B"/>
<path d="M50.6294 89.941L49.4647 93.241H45.7765L47.1353 89.941H50.6294Z" fill="black"/>
<path d="M47.1354 88V89.9412H50.6295V88H47.1354Z" fill="#454A4D"/>
<path d="M45.7765 91.2998V93.241L47.1353 89.941V87.9998L45.7765 91.2998Z" fill="#313234"/>
<rect x="60.3965" y="58" width="5.72569" height="10.6334" rx="2" fill="white"/>
<rect x="61.2145" y="58.8179" width="4.08978" height="6.54364" rx="1" fill="#11984B"/>
<path d="M66.3267 69.6558L65.0998 66.1794H61.2145L62.6459 69.6558H66.3267Z" fill="black"/>
<path d="M62.6459 71.7009V69.656H66.3267V71.7009H62.6459Z" fill="#454A4D"/>
<path d="M61.2145 68.2243V66.1794L62.6459 69.6558V71.7006L61.2145 68.2243Z" fill="#313234"/>
<rect width="5.72569" height="10.6334" rx="2" transform="matrix(1 0 0 -1 60 99.7009)" fill="white"/>
<rect width="4.08978" height="6.54364" rx="1" transform="matrix(1 0 0 -1 60.818 98.8831)" fill="#D8000B"/>
<path d="M65.9302 88.0452L64.7033 91.5215H60.818L62.2494 88.0452H65.9302Z" fill="black"/>
<path d="M62.2494 86V88.0449H65.9302V86H62.2494Z" fill="#454A4D"/>
<path d="M60.818 89.4766V91.5215L62.2494 88.0452V86.0003L60.818 89.4766Z" fill="#313234"/>
<rect width="5.72569" height="10.6334" rx="2" transform="matrix(1 0 0 -1 70 99.7009)" fill="white"/>
<rect width="4.08978" height="6.54364" rx="1" transform="matrix(1 0 0 -1 70.818 98.8831)" fill="#D8000B"/>
<path d="M75.9302 88.0452L74.7033 91.5215H70.818L72.2494 88.0452H75.9302Z" fill="black"/>
<path d="M72.2494 86V88.0449H75.9302V86H72.2494Z" fill="#454A4D"/>
<path d="M70.818 89.4766V91.5215L72.2494 88.0452V86.0003L70.818 89.4766Z" fill="#313234"/>
<rect width="5.72569" height="10.6334" rx="2" transform="matrix(1 0 0 -1 80 99.7009)" fill="white"/>
<rect width="4.08978" height="6.54364" rx="1" transform="matrix(1 0 0 -1 80.8179 98.8831)" fill="#D8000B"/>
<path d="M85.9302 88.0452L84.7033 91.5215H80.818L82.2494 88.0452H85.9302Z" fill="black"/>
<path d="M82.2493 86V88.0449H85.9301V86H82.2493Z" fill="#454A4D"/>
<path d="M80.818 89.4766V91.5215L82.2494 88.0452V86.0003L80.818 89.4766Z" fill="#313234"/>
<rect width="5.72569" height="10.6334" rx="2" transform="matrix(1 0 0 -1 90 99.7009)" fill="white"/>
<rect width="4.08978" height="6.54364" rx="1" transform="matrix(1 0 0 -1 90.8179 98.8831)" fill="#D8000B"/>
<path d="M95.9302 88.0452L94.7033 91.5215H90.818L92.2494 88.0452H95.9302Z" fill="black"/>
<path d="M92.2493 86V88.0449H95.9301V86H92.2493Z" fill="#454A4D"/>
<path d="M90.818 89.4766V91.5215L92.2494 88.0452V86.0003L90.818 89.4766Z" fill="#313234"/>
<rect x="71.439" y="58.4092" width="5.72569" height="10.6334" rx="2" fill="white"/>
<rect x="72.257" y="59.2271" width="4.08978" height="6.54364" rx="1" fill="#11984B"/>
<path d="M77.3692 70.0649L76.1422 66.5886H72.257L73.6884 70.0649H77.3692Z" fill="black"/>
<path d="M73.6884 72.1096V70.0647H77.3692V72.1096H73.6884Z" fill="#454A4D"/>
<path d="M72.257 68.6335V66.5886L73.6884 70.0649V72.1098L72.257 68.6335Z" fill="#313234"/>
<rect x="81.2545" y="58.4092" width="5.72569" height="10.6334" rx="2" fill="white"/>
<rect x="82.0724" y="59.2271" width="4.08978" height="6.54364" rx="1" fill="#11984B"/>
<path d="M87.1847 70.0649L85.9577 66.5886H82.0724L83.5039 70.0649H87.1847Z" fill="black"/>
<path d="M83.5038 72.1096V70.0647H87.1846V72.1096H83.5038Z" fill="#454A4D"/>
<path d="M82.0724 68.6335V66.5886L83.5039 70.0649V72.1098L82.0724 68.6335Z" fill="#313234"/>
<rect x="91.0698" y="58.4092" width="5.72569" height="10.6334" rx="2" fill="white"/>
<rect x="91.8878" y="59.2271" width="4.08978" height="6.54364" rx="1" fill="#11984B"/>
<path d="M97 70.0649L95.7731 66.5886H91.8878L93.3192 70.0649H97Z" fill="black"/>
<path d="M93.3192 72.1096V70.0647H97V72.1096H93.3192Z" fill="#454A4D"/>
<path d="M91.8878 68.6335V66.5886L93.3192 70.0649V72.1098L91.8878 68.6335Z" fill="#313234"/>
</svg>
