<svg width="82" height="121" viewBox="0 0 82 121" fill="none" xmlns="http://www.w3.org/2000/svg">
<path d="M75.0725 84.8977C76.8851 83.129 78.2949 81.0339 79.5033 78.6883C80.7118 76.3426 81.316 74.12 81.316 72.3703L81.1382 26.0633C81.1271 23.1701 78.4406 22.5715 76.072 24.9344L74.8711 26.1324L75.0725 84.8977Z" fill="#C9CEE2"/>
<path fill-rule="evenodd" clip-rule="evenodd" d="M8.12788 22.5459C5.81398 23.748 3.75593 25.1426 2.03467 26.9242L63.4666 32.4405C67.7581 32.8258 72.8749 29.6678 74.8964 25.9719H78.4213C79.6081 25.9719 80.5703 25.0097 80.5703 23.8229C80.5703 21.9239 79.0309 20.3845 77.1319 20.3845H73.1949C73.152 20.3845 73.1094 20.3854 73.067 20.3873C72.9477 20.3792 72.8253 20.3754 72.6999 20.3761L14.3981 20.7084C12.6485 20.7299 10.4418 21.3438 8.12788 22.5459Z" fill="#C9CEE2"/>
<path d="M11.7937 24.9507C6.27085 24.9507 1.7937 29.4278 1.7937 34.9507V76.7358C1.7937 82.2587 6.27085 86.7358 11.7937 86.7358H66.4299C71.9527 86.7358 76.4299 82.2587 76.4299 76.7358V34.9507C76.4299 29.4278 71.9527 24.9507 66.4299 24.9507H11.7937Z" fill="#EFF8FF" stroke="#EFF8FF" stroke-width="2"/>
<path d="M0 34.5095C0 30.0912 3.58172 26.5095 8 26.5095H66.8711C71.2894 26.5095 74.8711 30.0912 74.8711 34.5095V78.2947C74.8711 82.713 71.2894 86.2947 66.8711 86.2947H8C3.58173 86.2947 0 82.713 0 78.2947V34.5095Z" fill="#283838"/>
<path d="M4.98535 72.484C4.98535 73.9045 6.30026 75.4576 7.50196 75.4566L68.2083 75.4045C68.8962 75.4039 69.3459 74.8719 69.3459 74.0588V41.3771C69.3459 39.9566 68.0309 38.4034 66.8292 38.4046L6.12283 38.4609C5.435 38.4616 4.98535 38.9935 4.98535 39.8066V72.484Z" fill="#CFD2D2"/>
<path d="M66.689 53.6754L8.09069 54.0504L8.04012 40.1697L66.6384 39.7954L66.689 53.6754Z" fill="#8D8C91"/>
<path d="M63.5042 51.8145L10.5 52.0574V41.9264L63.4714 41.6834L63.5042 51.8145Z" fill="#CFD2D2"/>
<path d="M61.9529 50.2837L12.5 50.3927V43.5224L61.9371 43.4134L61.9529 50.2837Z" fill="#B0D7E5"/>
<path d="M44 46.9018L43 46.49V44.7165L44 44V46.9018ZM44 50L43 49.2821V47.4455L44 47.0858V50Z" fill="white"/>
<path d="M46.84 46.545L46 46.9032V44.8346L46.4159 44.4749L46.84 44.8346V46.545ZM49.4531 49.6321L49.025 50L46.1755 50L46.9858 49.2821L49.029 49.2821L49.4531 49.6321ZM49.8055 46.9966L49.0263 47.3205L46.9912 47.3123L46.2066 47.0007L47.0169 46.5889L49.0169 46.5889L49.8055 46.9966ZM49.4531 44.3665L49.025 44.7165L46.9818 44.7165L46.5537 44.3665L46.9818 44L49.025 44L49.4531 44.3665ZM50 46.9032L49.1614 46.545V44.8346L49.5773 44.4749L50 44.8346V46.9032ZM50 49.1572L49.5773 49.5154L49.1614 49.1572V47.51L50 47.0982V49.1572Z" fill="white"/>
<path d="M54.5714 44.3665L54.2349 44.7165L52.6349 44.7165L52 44L54.2317 44L54.5714 44.3665ZM54.5714 49.6321L54.2349 50L52.0032 50L52.6381 49.2821L54.2381 49.2821L54.5714 49.6321ZM54.8466 46.9952L54.2381 47.3274L52.636 47.3123L52.019 46.9828L52.6296 46.5944L54.2169 46.5944L54.8466 46.9952ZM55 46.9032L54.3428 46.4914V44.8442L54.6688 44.4846L55 44.8442V46.9032ZM55 49.1572L54.6688 49.5154L54.3428 49.1572V47.4468L55 47.0872V49.1572Z" fill="white"/>
<path d="M56.8395 46.4877L56 46.8997V44.8297L56.4177 44.4698L56.8395 44.8297V46.4877ZM56.8395 49.1607L56.4177 49.5192L56 49.1607V47.0893L56.8395 47.4492V49.1607ZM59.8134 46.9959L59.0335 47.3297L56.9814 47.3297L56.196 46.9959L57.0071 46.5948L59.0348 46.5948L59.8134 46.9959ZM59.8297 44L59.0294 44.717L56.9855 44.717L56.5556 44.3667L56.9855 44L59.8297 44ZM59.4593 49.6319L59.0294 50L56.9855 50L56.5556 49.6319L56.9855 49.2816L59.0294 49.2816L59.4593 49.6319ZM60 49.1566L59.5769 49.5151L59.1605 49.1566V47.4451L60 47.0852V49.1566Z" fill="white"/>
<path d="M18.4523 44.3681L18.0233 44.7184L15 44.7184L15.9794 44L18.0192 44L18.4523 44.3681ZM15.8418 49.1571L15.4196 49.5156L15.0041 49.1571V47.0869L15.8418 47.4468V49.1571ZM18.8098 46.9966L18.0233 47.3127L15.9821 47.3291L15.201 46.9952L15.9808 46.5943L18.0044 46.5943L18.8098 46.9966ZM19 50L15.9794 50L15.5518 49.6319L15.9794 49.2816L18.1946 49.2816L19 50ZM19 46.9035L18.1622 46.493V44.8402L18.5777 44.4816L19 44.8402V46.9035Z" fill="white"/>
<path d="M20.6292 46.487L20 46.8974V44.8276L20.3121 44.4692L20.6292 44.8276V46.487ZM20.6292 49.1573L20.3121 49.5157L20 49.1573V47.0876L20.6292 47.4474V49.1573ZM22.8582 46.9945L22.2756 47.327L20.7376 47.327L20.151 46.9918L20.7589 46.5924L22.2604 46.5924L22.8582 46.9945ZM22.5947 44.368L22.2725 44.7182L20.7356 44.7182L20.4144 44.368L20.7356 44L22.2675 44L22.5947 44.368ZM22.5947 49.632L22.2725 50L20.7356 50L20.4144 49.632L20.7356 49.2818L22.2675 49.2818L22.5947 49.632ZM23 46.9042L22.3708 46.4938V44.8413L22.6829 44.4829L23 44.8413V46.9042ZM23 49.1573L22.6829 49.5157L22.3708 49.1573V47.4474L23 47.0876V49.1573Z" fill="white"/>
<path d="M66.6887 70.9979L8.09045 71.3729L8.03987 57.4923L66.6381 57.1179L66.6887 70.9979Z" fill="#4E5859"/>
<path d="M11.7353 68.4876C11.734 68.8877 11.9475 69.1479 12.2782 69.1493L20.2594 69.1834C20.8555 69.186 21.5216 68.3842 21.5216 67.6642V59.7137C21.5216 59.3155 21.3083 59.0569 20.9787 59.0555L13.0229 59.0206C12.4281 59.018 11.763 59.8166 11.7607 60.5363L11.7353 68.4876Z" fill="#8D8C91"/>
<path d="M16.6823 60.5625C16.286 60.5708 15.9279 60.724 15.6679 60.9668L14.532 62.065L16.6432 63.7861L17.6956 62.7805C17.9556 62.5369 18.1152 62.2073 18.1152 61.845C18.1152 61.1222 17.4738 60.5472 16.6823 60.5625Z" fill="#283838"/>
<path d="M15.5844 61.6249C14.7918 61.6399 14.1494 62.2407 14.1494 62.9644C14.1494 63.6897 14.7918 64.2643 15.5844 64.2485C16.3769 64.2336 17.0183 63.6332 17.0183 62.9087C17.0183 62.1842 16.3769 61.6083 15.5844 61.6249Z" fill="#CFD2D2"/>
<path d="M16.6823 64.4416C16.286 64.4499 15.9279 64.6032 15.6679 64.846L14.532 65.9441L16.6432 67.6653L17.6956 66.6597C17.9556 66.416 18.1152 66.0864 18.1152 65.7242C18.1152 65.0014 17.4738 64.4263 16.6823 64.4416Z" fill="#283838"/>
<path d="M15.5844 65.5041C14.7918 65.519 14.1494 66.1199 14.1494 66.8435C14.1494 67.5689 14.7918 68.1434 15.5844 68.1277C16.3769 68.1127 17.0183 67.5123 17.0183 66.7878C17.0183 66.0633 16.3769 65.4875 15.5844 65.5041Z" fill="#CFD2D2"/>
<path d="M25.4213 68.2876C25.42 68.6878 25.6335 68.948 25.9643 68.9494L33.9454 68.9835C34.5415 68.986 35.2076 68.1842 35.2076 67.4642V59.5137C35.2076 59.1155 34.9944 58.857 34.6647 58.8555L26.709 58.8206C26.1141 58.818 25.449 59.6167 25.4467 60.3363L25.4213 68.2876Z" fill="#8D8C91"/>
<path d="M30.3678 60.3625C29.9716 60.3708 29.6134 60.5241 29.3535 60.7669L28.2175 61.865L30.3288 63.5862L31.3812 62.5806C31.6411 62.3369 31.8007 62.0073 31.8007 61.6451C31.8007 60.9223 31.1593 60.3472 30.3678 60.3625Z" fill="#283838"/>
<path d="M29.2701 61.4252C28.4776 61.4401 27.8352 62.041 27.8352 62.7647C27.8352 63.49 28.4776 64.0646 29.2701 64.0488C30.0627 64.0339 30.7041 63.4335 30.7041 62.709C30.7041 61.9845 30.0627 61.4086 29.2701 61.4252Z" fill="#CFD2D2"/>
<path d="M30.3678 64.2414C29.9716 64.2497 29.6134 64.403 29.3535 64.6458L28.2175 65.7439L30.3288 67.4651L31.3812 66.4595C31.6411 66.2158 31.8007 65.8863 31.8007 65.524C31.8007 64.8012 31.1593 64.2262 30.3678 64.2414Z" fill="#283838"/>
<path d="M29.2701 65.3039C28.4776 65.3188 27.8352 65.9197 27.8352 66.6433C27.8352 67.3687 28.4776 67.9432 29.2701 67.9275C30.0627 67.9125 30.7041 67.3121 30.7041 66.5876C30.7041 65.8631 30.0627 65.2873 29.2701 65.3039Z" fill="#CFD2D2"/>
<path d="M39.1068 68.0869C39.1056 68.4871 39.3191 68.7473 39.6498 68.7487L47.631 68.7828C48.2271 68.7853 48.8932 67.9836 48.8932 67.2635V59.3131C48.8932 58.9148 48.6799 58.6563 48.3503 58.6548L40.3945 58.6199C39.7997 58.6173 39.1346 59.416 39.1323 60.1356L39.1068 68.0869Z" fill="#8D8C91"/>
<path d="M44.0536 60.1621C43.6574 60.1704 43.2992 60.3237 43.0393 60.5664L41.9033 61.6646L44.0146 63.3857L45.067 62.3801C45.3269 62.1365 45.4865 61.8069 45.4865 61.4447C45.4865 60.7218 44.8451 60.1468 44.0536 60.1621Z" fill="#283838"/>
<path d="M42.9557 61.2243C42.1632 61.2392 41.5208 61.8401 41.5208 62.5638C41.5208 63.2891 42.1632 63.8636 42.9557 63.8479C43.7482 63.8329 44.3896 63.2325 44.3896 62.508C44.3896 61.7835 43.7482 61.2077 42.9557 61.2243Z" fill="#CFD2D2"/>
<path d="M44.0536 64.0407C43.6574 64.049 43.2992 64.2023 43.0393 64.4451L41.9033 65.5432L44.0146 67.2644L45.067 66.2588C45.3269 66.0152 45.4865 65.6856 45.4865 65.3233C45.4865 64.6005 44.8451 64.0255 44.0536 64.0407Z" fill="#283838"/>
<path d="M42.9557 65.1032C42.1632 65.1181 41.5208 65.719 41.5208 66.4427C41.5208 67.168 42.1632 67.7425 42.9557 67.7268C43.7482 67.7119 44.3896 67.1114 44.3896 66.3869C44.3896 65.6624 43.7482 65.0866 42.9557 65.1032Z" fill="#CFD2D2"/>
<path d="M52.7929 67.8867C52.7916 68.2869 53.0051 68.5471 53.3359 68.5485L61.317 68.5826C61.9131 68.5851 62.5792 67.7834 62.5792 67.0633V59.1129C62.5792 58.7146 62.3659 58.4561 62.0363 58.4546L54.0805 58.4198C53.4857 58.4171 52.8206 59.2158 52.8183 59.9354L52.7929 67.8867Z" fill="#8D8C91"/>
<path d="M57.7399 59.9619C57.3437 59.9702 56.9855 60.1235 56.7255 60.3662L55.5896 61.4644L57.7008 63.1855L58.7533 62.1799C59.0132 61.9363 59.1728 61.6067 59.1728 61.2445C59.1728 60.5216 58.5314 59.9466 57.7399 59.9619Z" fill="#283838"/>
<path d="M56.642 61.0241C55.8495 61.039 55.207 61.6399 55.207 62.3636C55.207 63.0889 55.8495 63.6634 56.642 63.6477C57.4345 63.6327 58.0759 63.0323 58.0759 62.3078C58.0759 61.5833 57.4345 61.0075 56.642 61.0241Z" fill="#CFD2D2"/>
<path d="M57.7399 63.8405C57.3437 63.8488 56.9855 64.0021 56.7255 64.2449L55.5896 65.343L57.7008 67.0642L58.7533 66.0586C59.0132 65.815 59.1728 65.4854 59.1728 65.1231C59.1728 64.4003 58.5314 63.8253 57.7399 63.8405Z" fill="#283838"/>
<path d="M56.642 64.9028C55.8495 64.9177 55.207 65.5186 55.207 66.2422C55.207 66.9676 55.8495 67.5421 56.642 67.5263C57.4345 67.5114 58.0759 66.911 58.0759 66.1865C58.0759 65.462 57.4345 64.8862 56.642 64.9028Z" fill="#CFD2D2"/>
<path d="M2.42261 32.9054C2.42261 34.1601 3.58408 35.532 4.6455 35.531L71.951 35.4683C72.5585 35.4677 72.9557 34.9979 72.9557 34.2798C72.9557 33.0251 71.7942 31.6532 70.7328 31.6542L3.42729 31.7169C2.81977 31.7175 2.42261 32.1873 2.42261 32.9054Z" fill="#CFD2D2"/>
<path d="M1.86377 79.9267C1.86377 81.1813 3.02524 82.5532 4.08666 82.5522L71.3922 82.4895C71.9997 82.489 72.3969 82.0191 72.3969 81.301C72.3969 80.0463 71.2354 78.6745 70.174 78.6754L2.86845 78.7381C2.26093 78.7387 1.86377 79.2085 1.86377 79.9267Z" fill="#CFD2D2"/>
</svg>
