<svg width="64" height="64" viewBox="0 0 64 64" fill="none" xmlns="http://www.w3.org/2000/svg">
<circle cx="32" cy="32" r="32" fill="url(#paint0_linear)"/>
<path d="M29 30H30C30.2652 30 30.5196 29.8946 30.7071 29.7071C30.8946 29.5196 31 29.2652 31 29C31 28.7348 30.8946 28.4804 30.7071 28.2929C30.5196 28.1054 30.2652 28 30 28H29C28.7348 28 28.4804 28.1054 28.2929 28.2929C28.1054 28.4804 28 28.7348 28 29C28 29.2652 28.1054 29.5196 28.2929 29.7071C28.4804 29.8946 28.7348 30 29 30ZM29 32C28.7348 32 28.4804 32.1054 28.2929 32.2929C28.1054 32.4804 28 32.7348 28 33C28 33.2652 28.1054 33.5196 28.2929 33.7071C28.4804 33.8946 28.7348 34 29 34H35C35.2652 34 35.5196 33.8946 35.7071 33.7071C35.8946 33.5196 36 33.2652 36 33C36 32.7348 35.8946 32.4804 35.7071 32.2929C35.5196 32.1054 35.2652 32 35 32H29ZM40 28.94C39.9896 28.8481 39.9695 28.7576 39.94 28.67V28.58C39.8919 28.4772 39.8278 28.3827 39.75 28.3L33.75 22.3C33.6673 22.2222 33.5728 22.1581 33.47 22.11C33.4402 22.1058 33.4099 22.1058 33.38 22.11C33.2784 22.0517 33.1662 22.0143 33.05 22H27C26.2044 22 25.4413 22.3161 24.8787 22.8787C24.3161 23.4413 24 24.2044 24 25V39C24 39.7956 24.3161 40.5587 24.8787 41.1213C25.4413 41.6839 26.2044 42 27 42H37C37.7956 42 38.5587 41.6839 39.1213 41.1213C39.6839 40.5587 40 39.7956 40 39V29C40 29 40 29 40 28.94ZM34 25.41L36.59 28H35C34.7348 28 34.4804 27.8946 34.2929 27.7071C34.1054 27.5196 34 27.2652 34 27V25.41ZM38 39C38 39.2652 37.8946 39.5196 37.7071 39.7071C37.5196 39.8946 37.2652 40 37 40H27C26.7348 40 26.4804 39.8946 26.2929 39.7071C26.1054 39.5196 26 39.2652 26 39V25C26 24.7348 26.1054 24.4804 26.2929 24.2929C26.4804 24.1054 26.7348 24 27 24H32V27C32 27.7956 32.3161 28.5587 32.8787 29.1213C33.4413 29.6839 34.2044 30 35 30H38V39ZM35 36H29C28.7348 36 28.4804 36.1054 28.2929 36.2929C28.1054 36.4804 28 36.7348 28 37C28 37.2652 28.1054 37.5196 28.2929 37.7071C28.4804 37.8946 28.7348 38 29 38H35C35.2652 38 35.5196 37.8946 35.7071 37.7071C35.8946 37.5196 36 37.2652 36 37C36 36.7348 35.8946 36.4804 35.7071 36.2929C35.5196 36.1054 35.2652 36 35 36Z" fill="white"/>
<defs>
<linearGradient id="paint0_linear" x1="4.76837e-07" y1="32" x2="64" y2="32" gradientUnits="userSpaceOnUse">
<stop stop-color="#569DF2"/>
<stop offset="1" stop-color="#3472F0"/>
</linearGradient>
</defs>
</svg>
