<svg width="27" height="24" viewBox="0 0 27 24" fill="none" xmlns="http://www.w3.org/2000/svg">
<path fill-rule="evenodd" clip-rule="evenodd" d="M1.4598 21.3784H24.7571C25.5629 21.3784 26.2169 21.961 26.2169 22.6922C26.2169 23.4235 25.5695 24.0001 24.7571 24.0001H1.4598C0.653935 24.0001 0 23.4175 0 22.6922C0 21.967 0.64733 21.3784 1.4598 21.3784Z" fill="white"/>
<path fill-rule="evenodd" clip-rule="evenodd" d="M18.6731 20.0137V11.0506V1C18.6731 0.447715 19.1208 0 19.6731 0H22.8188C23.7133 0 24.4288 0.90046 24.4288 2.01405V3.88423V19.5561C24.4288 20.1083 23.9811 20.5561 23.4288 20.5561H19.2155C18.916 20.5561 18.6731 20.3132 18.6731 20.0137ZM22.7843 2.77C22.7843 2.14789 22.4495 1.64454 22.0309 1.64454H20.1626V19.3409H22.7843V2.77Z" fill="white"/>
<path fill-rule="evenodd" clip-rule="evenodd" d="M2.34076 3.74648C2.34076 1.6651 3.68192 0 5.34051 0H17.1411V16.3834C17.1411 18.6927 15.6492 20.5561 13.8001 20.5561H2.34076V3.74648ZM11.7332 3.95917C11.9253 4.06707 12.0602 4.25397 12.1021 4.47024L12.5122 6.58452C12.591 6.99116 12.3253 7.38474 11.9187 7.4636C11.5121 7.54247 11.1185 7.27676 11.0396 6.87013L11.0117 6.72635L9.64351 9.09617L12.3723 9.70627C12.6052 9.75835 12.7994 9.91819 12.8954 10.1368C12.9913 10.3553 12.9775 10.6065 12.8581 10.8132L11.0891 13.8772L11.1655 13.8489C11.5538 13.7047 11.9855 13.9026 12.1297 14.291C12.2738 14.6793 12.0759 15.1109 11.6876 15.2551L9.70813 15.99C9.5016 16.0667 9.27181 16.0486 9.07974 15.9407C8.88768 15.8328 8.75277 15.6459 8.71082 15.4297L8.30076 13.3154C8.22189 12.9087 8.4876 12.5152 8.89423 12.4363C9.30087 12.3574 9.69445 12.6231 9.77332 13.0298L9.79169 13.1245L11.0486 10.9474L8.31988 10.3373C8.08694 10.2852 7.8927 10.1253 7.79677 9.90678C7.70083 9.68822 7.71466 9.43704 7.834 9.23033L9.67563 6.04054L9.64741 6.05102C9.25909 6.19518 8.82743 5.99726 8.68327 5.60894C8.53911 5.22062 8.73703 4.78896 9.12535 4.6448L11.1048 3.90993C11.3113 3.83325 11.5411 3.85126 11.7332 3.95917Z" fill="white"/>
</svg>
