<svg width="15" height="14" viewBox="0 0 15 14" fill="none" xmlns="http://www.w3.org/2000/svg">
<path fill-rule="evenodd" clip-rule="evenodd" d="M1.82153 2.91659C1.82153 4.20525 2.8662 5.24992 4.15487 5.24992C5.44353 5.24992 6.4882 4.20525 6.4882 2.91659C6.4882 1.62792 5.44353 0.583252 4.15487 0.583252C2.8662 0.583252 1.82153 1.62792 1.82153 2.91659ZM5.32154 2.91659C5.32154 3.56092 4.7992 4.08325 4.15487 4.08325C3.51054 4.08325 2.9882 3.56092 2.9882 2.91659C2.9882 2.27226 3.51054 1.74992 4.15487 1.74992C4.7992 1.74992 5.32154 2.27226 5.32154 2.91659Z" fill="white"/>
<path fill-rule="evenodd" clip-rule="evenodd" d="M9.40487 5.83325V6.99992H5.90487C5.47986 6.99992 5.0814 6.88629 4.7382 6.68776V9.91659C4.7382 10.5609 5.26053 11.0833 5.90487 11.0833H9.40487V12.2499H5.90487C4.6162 12.2499 3.57153 11.2053 3.57153 9.91659V4.66659V4.37492V4.08325H4.7382V4.37492V4.66659C4.7382 5.31092 5.26053 5.83325 5.90487 5.83325H9.40487Z" fill="white"/>
<path fill-rule="evenodd" clip-rule="evenodd" d="M8.82153 11.6666C8.82153 12.9553 9.8662 13.9999 11.1549 13.9999C12.4435 13.9999 13.4882 12.9553 13.4882 11.6666C13.4882 10.3779 12.4435 9.33325 11.1549 9.33325C9.8662 9.33325 8.82153 10.3779 8.82153 11.6666ZM12.3215 11.6666C12.3215 12.3109 11.7992 12.8333 11.1549 12.8333C10.5105 12.8333 9.9882 12.3109 9.9882 11.6666C9.9882 11.0223 10.5105 10.4999 11.1549 10.4999C11.7992 10.4999 12.3215 11.0223 12.3215 11.6666Z" fill="white"/>
<path fill-rule="evenodd" clip-rule="evenodd" d="M8.82153 6.41659C8.82153 7.70525 9.8662 8.74992 11.1549 8.74992C12.4435 8.74992 13.4882 7.70525 13.4882 6.41659C13.4882 5.12792 12.4435 4.08325 11.1549 4.08325C9.8662 4.08325 8.82153 5.12792 8.82153 6.41659ZM12.3215 6.41659C12.3215 7.06092 11.7992 7.58325 11.1549 7.58325C10.5105 7.58325 9.9882 7.06092 9.9882 6.41659C9.9882 5.77226 10.5105 5.24992 11.1549 5.24992C11.7992 5.24992 12.3215 5.77226 12.3215 6.41659Z" fill="white"/>
</svg>
