<svg width="33" height="32" viewBox="0 0 33 32" fill="none" xmlns="http://www.w3.org/2000/svg">
<path fill-rule="evenodd" clip-rule="evenodd" d="M3.6748 4C3.12252 4 2.6748 4.44772 2.6748 5V15C2.6748 15.5523 3.12252 16 3.6748 16H28.3415C28.8938 16 29.3415 15.5523 29.3415 15V5C29.3415 4.44772 28.8938 4 28.3415 4H3.6748ZM6.34146 10.6667C5.78917 10.6667 5.34146 11.1144 5.34146 11.6667V12.3333C5.34146 12.8856 5.78917 13.3333 6.34146 13.3333H25.6748C26.2271 13.3333 26.6748 12.8856 26.6748 12.3333V11.6667C26.6748 11.1144 26.2271 10.6667 25.6748 10.6667H6.34146Z" fill="white"/>
<path fill-rule="evenodd" clip-rule="evenodd" d="M8.95267 20.9408L7.06315 19.0591C4.62741 21.5049 4.63562 25.4623 7.08148 27.898C7.29092 28.1066 7.5149 28.3 7.75173 28.4769L8.54338 29.0682L10.1391 26.9317L9.34746 26.3404C9.21168 26.239 9.08327 26.1281 8.96318 26.0085C7.56087 24.612 7.55617 22.3431 8.95267 20.9408ZM23.0631 19.0591L24.9527 20.9408C23.5562 22.3431 23.5609 24.612 24.9632 26.0085C25.0833 26.1281 25.2117 26.239 25.3475 26.3404L26.1391 26.9317L24.5434 29.0682L23.7517 28.4769C23.5149 28.3 23.2909 28.1066 23.0815 27.898C20.6356 25.4623 20.6274 21.5049 23.0631 19.0591ZM15.0632 20.3924L16.9527 22.2741C15.5562 23.6764 15.5609 25.9453 16.9632 27.3418C17.0833 27.4614 17.2117 27.5723 17.3475 27.6737L18.1391 28.265L16.5434 30.4015L15.7517 29.8103C15.5149 29.6334 15.2909 29.4399 15.0815 29.2314C12.6356 26.7956 12.6274 22.8383 15.0632 20.3924Z" fill="white"/>
</svg>
