<svg width="17" height="11" viewBox="0 0 17 11" fill="none" xmlns="http://www.w3.org/2000/svg">
<path fill-rule="evenodd" clip-rule="evenodd" d="M6.34538 10.9881C6.2273 10.996 6.10817 10.9999 5.98812 10.9999C3.0426 10.9999 0.654785 8.6121 0.654785 5.66658C0.654785 2.72107 3.0426 0.333252 5.98812 0.333252C7.96221 0.333252 9.6858 1.40579 10.608 2.99993H12.6548C14.8639 2.99993 16.6548 4.79079 16.6548 6.99993C16.6548 9.20907 14.8639 10.9999 12.6548 10.9999H6.65479C6.55067 10.9999 6.44749 10.996 6.34538 10.9881Z" fill="white"/>
<path fill-rule="evenodd" clip-rule="evenodd" d="M9.07125 8.38068C9.30118 8.15075 9.30118 7.77796 9.07125 7.54803C8.84131 7.3181 8.46852 7.3181 8.23859 7.54803C8.00866 7.77796 8.00866 8.15075 8.23859 8.38068C8.46852 8.61061 8.84131 8.61061 9.07125 8.38068Z" fill="url(#paint0_linear)"/>
<path d="M10.5284 6.92358L10.1121 7.33991C9.30735 6.53515 8.00258 6.53515 7.19782 7.33991L6.78149 6.92358C7.81618 5.8889 9.49374 5.8889 10.5284 6.92358Z" fill="url(#paint1_linear)"/>
<path d="M11.361 6.09082L10.9446 6.50715C9.71835 5.28085 7.59135 5.28085 6.36506 6.50715L5.94873 6.09082C7.40496 4.63459 9.90475 4.63459 11.361 6.09082Z" fill="url(#paint2_linear)"/>
<defs>
<linearGradient id="paint0_linear" x1="8.23859" y1="8.38068" x2="9.07125" y2="7.54803" gradientUnits="userSpaceOnUse">
<stop stop-color="#569DF2"/>
<stop offset="1" stop-color="#3472F0"/>
</linearGradient>
<linearGradient id="paint1_linear" x1="7.71823" y1="7.86032" x2="9.5917" y2="5.98685" gradientUnits="userSpaceOnUse">
<stop stop-color="#569DF2"/>
<stop offset="1" stop-color="#3472F0"/>
</linearGradient>
<linearGradient id="paint2_linear" x1="7.30179" y1="7.44388" x2="10.0079" y2="4.73776" gradientUnits="userSpaceOnUse">
<stop stop-color="#569DF2"/>
<stop offset="1" stop-color="#3472F0"/>
</linearGradient>
</defs>
</svg>
