<svg width="24" height="24" viewBox="0 0 24 24" fill="none" xmlns="http://www.w3.org/2000/svg">
<path d="M23.0539 9.09882L20.818 8.35354L21.8723 6.24615C21.9835 6.02368 22.0219 5.77184 21.982 5.52633C21.9422 5.28082 21.826 5.05408 21.6501 4.87825L19.1359 2.36351C18.9601 2.18758 18.7334 2.07145 18.4879 2.03157C18.2424 1.99169 17.9905 2.03008 17.768 2.14131L15.6607 3.19559L14.9154 0.959742C14.8367 0.723817 14.6858 0.518629 14.484 0.373241C14.2822 0.227852 14.0398 0.149631 13.7911 0.149658H10.236C9.98725 0.149631 9.74485 0.227852 9.54307 0.373241C9.34129 0.518629 9.19036 0.723817 9.11167 0.959742L8.36638 3.19559L6.25895 2.14131C6.03662 2.02946 5.78464 1.99071 5.53898 2.03062C5.29332 2.07052 5.06656 2.18703 4.89107 2.36351L2.37694 4.87825C2.20101 5.05408 2.08488 5.28082 2.045 5.52633C2.00512 5.77184 2.04351 6.02368 2.15474 6.24615L3.20902 8.35354L0.97317 9.09882C0.737232 9.17731 0.532 9.3281 0.386592 9.52981C0.241184 9.73151 0.162984 9.97388 0.163086 10.2225V13.7777C0.162984 14.0263 0.241184 14.2687 0.386592 14.4704C0.532 14.6721 0.737232 14.8229 0.97317 14.9014L3.20902 15.6467L2.15474 17.754C2.04351 17.9765 2.00512 18.2283 2.045 18.4739C2.08488 18.7194 2.20101 18.9461 2.37694 19.1219L4.89111 21.6367C5.06678 21.8129 5.29353 21.9292 5.53911 21.9691C5.78469 22.009 6.0366 21.9704 6.259 21.8589L8.36638 20.8046L9.11167 23.0404C9.19036 23.2764 9.34129 23.4816 9.54307 23.6269C9.74485 23.7723 9.98725 23.8506 10.236 23.8505H13.7911C14.0398 23.8506 14.2822 23.7723 14.484 23.6269C14.6858 23.4816 14.8367 23.2764 14.9154 23.0404L15.6607 20.8046L17.768 21.8589C17.9905 21.9701 18.2423 22.0085 18.4879 21.9686C18.7334 21.9287 18.9601 21.8126 19.1359 21.6367L21.6501 19.1219C21.826 18.9461 21.9422 18.7194 21.982 18.4739C22.0219 18.2283 21.9835 17.9765 21.8723 17.754L20.8186 15.6467L23.0539 14.9014C23.2898 14.8229 23.495 14.6721 23.6405 14.4704C23.7859 14.2687 23.8641 14.0263 23.864 13.7777V10.2225C23.8641 9.97388 23.7859 9.73151 23.6405 9.52981C23.495 9.3281 23.2898 9.17731 23.0539 9.09882ZM12.0135 15.5552C11.3104 15.5552 10.623 15.3467 10.0384 14.9561C9.45376 14.5654 8.99809 14.0102 8.72901 13.3606C8.45993 12.711 8.38953 11.9962 8.5267 11.3065C8.66388 10.6169 9.00247 9.98343 9.49966 9.48624C9.99686 8.98904 10.6303 8.65045 11.32 8.51327C12.0096 8.3761 12.7244 8.4465 13.374 8.71558C14.0236 8.98466 14.5789 9.44033 14.9695 10.025C15.3601 10.6096 15.5687 11.297 15.5687 12.0001C15.5676 12.9426 15.1927 13.8463 14.5262 14.5128C13.8597 15.1792 12.9561 15.5541 12.0135 15.5552Z" fill="white"/>
</svg>
