<svg width="14" height="24" viewBox="0 0 14 24" fill="none" xmlns="http://www.w3.org/2000/svg">
<path d="M6.73756 24C6.42401 23.9961 6.11426 23.9309 5.82584 23.8078C5.53487 23.6864 5.26691 23.5159 5.03365 23.3038C4.82203 23.0702 4.65161 22.8023 4.52965 22.5116C4.3946 22.2272 4.32877 21.9148 4.33756 21.6C4.34156 21.4389 4.35723 21.2783 4.38443 21.1195C4.41154 20.9694 4.4605 20.8242 4.52975 20.6883C4.58153 20.5346 4.65407 20.3887 4.74536 20.2547C4.83422 20.1295 4.93046 20.0097 5.03356 19.896C5.49759 19.4676 6.10594 19.2298 6.73746 19.2298C7.36898 19.2298 7.97733 19.4676 8.44136 19.896C8.88369 20.3535 9.13298 20.9637 9.13755 21.6C9.1337 21.9135 9.0684 22.2233 8.94536 22.5117C8.83745 22.8095 8.66543 23.0799 8.44148 23.3038C8.21753 23.5278 7.94712 23.6998 7.64936 23.8077C7.36092 23.9308 7.05114 23.9961 6.73756 24Z" fill="white"/>
<path d="M13.9375 7.20001C13.9375 5.61526 13.4146 4.07479 12.45 2.81745C11.4853 1.56011 10.1328 0.656137 8.60216 0.24569C7.07149 -0.164757 5.44815 -0.0587489 3.98386 0.547279C2.51956 1.15331 1.2961 2.2255 0.503176 3.59761C0.18428 4.14835 0.0972261 4.80322 0.261164 5.41814C0.425101 6.03307 0.826601 6.55768 1.37734 6.87658C1.92808 7.19547 2.58294 7.28253 3.19787 7.11859C3.81279 6.95465 4.3374 6.55315 4.6563 6.00241C4.8665 5.63705 5.16919 5.33347 5.53395 5.12221C5.8987 4.91096 6.31265 4.79947 6.73417 4.79896C7.15568 4.79845 7.5699 4.90895 7.93516 5.11932C8.30042 5.3297 8.60385 5.63255 8.81493 5.99741C9.026 6.36227 9.13729 6.77628 9.13758 7.19779C9.13788 7.61931 9.02718 8.03347 8.81662 8.39863C8.60606 8.76378 8.30306 9.06706 7.9381 9.27795C7.57313 9.48885 7.15907 9.59992 6.73756 9.60001C6.42233 9.59983 6.11016 9.66178 5.8189 9.78233C5.52764 9.90288 5.263 10.0797 5.0401 10.3026C4.8172 10.5254 4.64043 10.7901 4.51988 11.0814C4.39933 11.3726 4.33738 11.6848 4.33756 12V14.4C4.33756 15.0365 4.59041 15.647 5.0405 16.0971C5.49059 16.5471 6.10104 16.8 6.73756 16.8C7.37407 16.8 7.98452 16.5471 8.43461 16.0971C8.8847 15.647 9.13755 15.0365 9.13755 14.4V13.9576C10.5374 13.4646 11.7503 12.5504 12.6098 11.3404C13.4692 10.1305 13.933 8.68413 13.9375 7.20001Z" fill="white"/>
</svg>
