<?xml version="1.0" encoding="UTF-8"?><svg xmlns="http://www.w3.org/2000/svg" viewBox="0 0 135.82 179.96"><defs><style>.d{fill:#2670e6;}.e{fill:#7fc143;}.f{fill:#266fe6;}.g{fill:#518cef;}</style></defs><g id="a"/><g id="b"><g id="c"><path class="f" d="M135.82,67.91C135.82,30.46,105.35,0,67.91,0S0,30.46,0,67.91c0,23.81,12.33,44.79,30.93,56.91v-24.18c-7.73-8.73-12.44-20.19-12.44-32.74,0-27.25,22.17-49.42,49.42-49.42s49.42,22.17,49.42,49.42c0,12.16-4.42,23.3-11.73,31.92v24.54c18.21-12.19,30.22-32.95,30.22-56.46Z"/><path class="e" d="M64.49,43.67h5.47c.97,0,1.92,.31,2.69,.9,6.75,5.13,39.87,30.37,39.87,31.81,0,1.6,0,4.27-3.56,4.27h-5.5c-2.46,0-4.46,2-4.46,4.46v30.9c0,2.46-2,4.46-4.46,4.46h-13.48c-2.46,0-4.46-2-4.46-4.46v-31.44c0-2.46-2-4.46-4.46-4.46h-10.28c-2.46,0-4.46,2-4.46,4.46v31.44c0,2.46-2,4.46-4.46,4.46h-12.41c-2.46,0-4.46-2-4.46-4.46v-31.44c0-2.46-2-4.46-4.46-4.46h-5.87c-1.05,0-2.08-.34-2.86-1.04-.92-.83-1.57-2.1,.21-3.58,2.85-2.38,32.23-25.78,38.6-30.85,.79-.63,1.77-.97,2.77-.97Z"/><path class="g" d="M99.44,149.66c.42-.42,.26-.9,.2-1.04-.06-.14-.29-.59-.88-.59H35.75c-.59,0-.82,.45-.88,.59-.06,.14-.21,.62,.2,1.04l2.8,2.81h58.77l2.8-2.81Z"/><path class="d" d="M107.24,140.94h-34.02c.53,.24,.88,.69,.88,1.35,0,1.04-.85,1.55-1.88,1.55h-9.92c-1.04,0-1.88-.52-1.88-1.55,0-.67,.35-1.12,.88-1.35H27.27v.03c-.17,1.08-.17,2.18,0,3.26l2.39,5.02c1.04,1.72,1.44,3.22,3.22,3.22h2.21l-1.41-1.42c-.85-.85-1.09-2.08-.63-3.19,.46-1.11,1.5-1.8,2.7-1.8h63.02c1.21,0,2.24,.69,2.7,1.8,.46,1.11,.22,2.34-.63,3.19l-1.41,1.42h2.21c1.78,0,2.16-.83,3.22-3.22l2.39-5.02c.17-1.08,.17-2.18,0-3.26v-.03Z"/><path class="f" d="M62.85,140.85h8.83c-.18-1.44,1.54-1.24,1.54-1.24h34.02l-2.38-11.58c-.55-1.8-1.44-3.22-3.22-3.22H32.87c-1.78,0-2.68,1.43-3.22,3.22l-2.38,11.58H61.29s1.66-.2,1.56,1.24Zm-26.74-12.36h62.3c.53,0,.96,.43,.96,.96s-.43,.96-.96,.96H36.1c-.53,0-.96-.43-.96-.96s.43-.96,.96-.96Zm0,3.2h62.3c.53,0,.96,.43,.96,.96s-.43,.96-.96,.96H36.1c-.53,0-.96-.43-.96-.96s.43-.96,.96-.96Zm-.96,4.16c0-.53,.43-.96,.96-.96h62.3c.53,0,.96,.43,.96,.96s-.43,.96-.96,.96H36.1c-.53,0-.96-.43-.96-.96Z"/><path class="f" d="M88.89,158.98c0,11.59-9.39,20.98-20.98,20.98s-20.98-9.39-20.98-20.98"/></g></g></svg>